G04 #@! TF.GenerationSoftware,KiCad,Pcbnew,(7.0.0)*
G04 #@! TF.CreationDate,2023-04-22T14:23:37+07:00*
G04 #@! TF.ProjectId,nrf52840-qfaa-breakout,6e726635-3238-4343-902d-716661612d62,rev?*
G04 #@! TF.SameCoordinates,Original*
G04 #@! TF.FileFunction,Legend,Top*
G04 #@! TF.FilePolarity,Positive*
%FSLAX46Y46*%
G04 Gerber Fmt 4.6, Leading zero omitted, Abs format (unit mm)*
G04 Created by KiCad (PCBNEW (7.0.0)) date 2023-04-22 14:23:37*
%MOMM*%
%LPD*%
G01*
G04 APERTURE LIST*
%ADD10C,0.133350*%
%ADD11C,0.100000*%
%ADD12C,0.120000*%
%ADD13C,0.203200*%
%ADD14C,0.127000*%
%ADD15C,0.010000*%
G04 APERTURE END LIST*
D10*
X142400866Y-124210561D02*
X142652750Y-124966211D01*
X142652750Y-124966211D02*
X142904633Y-124210561D01*
X143156516Y-124966211D02*
X143156516Y-124210561D01*
X143516349Y-124966211D02*
X143516349Y-124210561D01*
X143516349Y-124210561D02*
X143948149Y-124966211D01*
X143948149Y-124966211D02*
X143948149Y-124210561D01*
X142652750Y-106430561D02*
X142724716Y-106430561D01*
X142724716Y-106430561D02*
X142796683Y-106466545D01*
X142796683Y-106466545D02*
X142832666Y-106502528D01*
X142832666Y-106502528D02*
X142868650Y-106574495D01*
X142868650Y-106574495D02*
X142904633Y-106718428D01*
X142904633Y-106718428D02*
X142904633Y-106898345D01*
X142904633Y-106898345D02*
X142868650Y-107042278D01*
X142868650Y-107042278D02*
X142832666Y-107114245D01*
X142832666Y-107114245D02*
X142796683Y-107150228D01*
X142796683Y-107150228D02*
X142724716Y-107186211D01*
X142724716Y-107186211D02*
X142652750Y-107186211D01*
X142652750Y-107186211D02*
X142580783Y-107150228D01*
X142580783Y-107150228D02*
X142544800Y-107114245D01*
X142544800Y-107114245D02*
X142508816Y-107042278D01*
X142508816Y-107042278D02*
X142472833Y-106898345D01*
X142472833Y-106898345D02*
X142472833Y-106718428D01*
X142472833Y-106718428D02*
X142508816Y-106574495D01*
X142508816Y-106574495D02*
X142544800Y-106502528D01*
X142544800Y-106502528D02*
X142580783Y-106466545D01*
X142580783Y-106466545D02*
X142652750Y-106430561D01*
X143624300Y-107186211D02*
X143192500Y-107186211D01*
X143408400Y-107186211D02*
X143408400Y-106430561D01*
X143408400Y-106430561D02*
X143336433Y-106538511D01*
X143336433Y-106538511D02*
X143264467Y-106610478D01*
X143264467Y-106610478D02*
X143192500Y-106646461D01*
X142904633Y-116626545D02*
X142832666Y-116590561D01*
X142832666Y-116590561D02*
X142724716Y-116590561D01*
X142724716Y-116590561D02*
X142616766Y-116626545D01*
X142616766Y-116626545D02*
X142544800Y-116698511D01*
X142544800Y-116698511D02*
X142508816Y-116770478D01*
X142508816Y-116770478D02*
X142472833Y-116914411D01*
X142472833Y-116914411D02*
X142472833Y-117022361D01*
X142472833Y-117022361D02*
X142508816Y-117166295D01*
X142508816Y-117166295D02*
X142544800Y-117238261D01*
X142544800Y-117238261D02*
X142616766Y-117310228D01*
X142616766Y-117310228D02*
X142724716Y-117346211D01*
X142724716Y-117346211D02*
X142796683Y-117346211D01*
X142796683Y-117346211D02*
X142904633Y-117310228D01*
X142904633Y-117310228D02*
X142940616Y-117274245D01*
X142940616Y-117274245D02*
X142940616Y-117022361D01*
X142940616Y-117022361D02*
X142796683Y-117022361D01*
X143264466Y-117346211D02*
X143264466Y-116590561D01*
X143264466Y-116590561D02*
X143696266Y-117346211D01*
X143696266Y-117346211D02*
X143696266Y-116590561D01*
X144056099Y-117346211D02*
X144056099Y-116590561D01*
X144056099Y-116590561D02*
X144236016Y-116590561D01*
X144236016Y-116590561D02*
X144343966Y-116626545D01*
X144343966Y-116626545D02*
X144415933Y-116698511D01*
X144415933Y-116698511D02*
X144451916Y-116770478D01*
X144451916Y-116770478D02*
X144487899Y-116914411D01*
X144487899Y-116914411D02*
X144487899Y-117022361D01*
X144487899Y-117022361D02*
X144451916Y-117166295D01*
X144451916Y-117166295D02*
X144415933Y-117238261D01*
X144415933Y-117238261D02*
X144343966Y-117310228D01*
X144343966Y-117310228D02*
X144236016Y-117346211D01*
X144236016Y-117346211D02*
X144056099Y-117346211D01*
X153987499Y-109726211D02*
X153555699Y-109726211D01*
X153771599Y-109726211D02*
X153771599Y-108970561D01*
X153771599Y-108970561D02*
X153699632Y-109078511D01*
X153699632Y-109078511D02*
X153627666Y-109150478D01*
X153627666Y-109150478D02*
X153555699Y-109186461D01*
X154635199Y-109222445D02*
X154635199Y-109726211D01*
X154455283Y-108934578D02*
X154275366Y-109474328D01*
X154275366Y-109474328D02*
X154743149Y-109474328D01*
X144471961Y-128168033D02*
X145227611Y-127916150D01*
X145227611Y-127916150D02*
X144471961Y-127664266D01*
X145155645Y-126980583D02*
X145191628Y-127016566D01*
X145191628Y-127016566D02*
X145227611Y-127124516D01*
X145227611Y-127124516D02*
X145227611Y-127196483D01*
X145227611Y-127196483D02*
X145191628Y-127304433D01*
X145191628Y-127304433D02*
X145119661Y-127376400D01*
X145119661Y-127376400D02*
X145047695Y-127412383D01*
X145047695Y-127412383D02*
X144903761Y-127448366D01*
X144903761Y-127448366D02*
X144795811Y-127448366D01*
X144795811Y-127448366D02*
X144651878Y-127412383D01*
X144651878Y-127412383D02*
X144579911Y-127376400D01*
X144579911Y-127376400D02*
X144507945Y-127304433D01*
X144507945Y-127304433D02*
X144471961Y-127196483D01*
X144471961Y-127196483D02*
X144471961Y-127124516D01*
X144471961Y-127124516D02*
X144507945Y-127016566D01*
X144507945Y-127016566D02*
X144543928Y-126980583D01*
X145155645Y-126224933D02*
X145191628Y-126260916D01*
X145191628Y-126260916D02*
X145227611Y-126368866D01*
X145227611Y-126368866D02*
X145227611Y-126440833D01*
X145227611Y-126440833D02*
X145191628Y-126548783D01*
X145191628Y-126548783D02*
X145119661Y-126620750D01*
X145119661Y-126620750D02*
X145047695Y-126656733D01*
X145047695Y-126656733D02*
X144903761Y-126692716D01*
X144903761Y-126692716D02*
X144795811Y-126692716D01*
X144795811Y-126692716D02*
X144651878Y-126656733D01*
X144651878Y-126656733D02*
X144579911Y-126620750D01*
X144579911Y-126620750D02*
X144507945Y-126548783D01*
X144507945Y-126548783D02*
X144471961Y-126440833D01*
X144471961Y-126440833D02*
X144471961Y-126368866D01*
X144471961Y-126368866D02*
X144507945Y-126260916D01*
X144507945Y-126260916D02*
X144543928Y-126224933D01*
X142436850Y-101350561D02*
X142904633Y-101350561D01*
X142904633Y-101350561D02*
X142652750Y-101638428D01*
X142652750Y-101638428D02*
X142760700Y-101638428D01*
X142760700Y-101638428D02*
X142832666Y-101674411D01*
X142832666Y-101674411D02*
X142868650Y-101710395D01*
X142868650Y-101710395D02*
X142904633Y-101782361D01*
X142904633Y-101782361D02*
X142904633Y-101962278D01*
X142904633Y-101962278D02*
X142868650Y-102034245D01*
X142868650Y-102034245D02*
X142832666Y-102070228D01*
X142832666Y-102070228D02*
X142760700Y-102106211D01*
X142760700Y-102106211D02*
X142544800Y-102106211D01*
X142544800Y-102106211D02*
X142472833Y-102070228D01*
X142472833Y-102070228D02*
X142436850Y-102034245D01*
X143624300Y-102106211D02*
X143192500Y-102106211D01*
X143408400Y-102106211D02*
X143408400Y-101350561D01*
X143408400Y-101350561D02*
X143336433Y-101458511D01*
X143336433Y-101458511D02*
X143264467Y-101530478D01*
X143264467Y-101530478D02*
X143192500Y-101566461D01*
D11*
X146106666Y-109160500D02*
X146073333Y-109193833D01*
X146073333Y-109193833D02*
X145973333Y-109227166D01*
X145973333Y-109227166D02*
X145906666Y-109227166D01*
X145906666Y-109227166D02*
X145806666Y-109193833D01*
X145806666Y-109193833D02*
X145740000Y-109127166D01*
X145740000Y-109127166D02*
X145706666Y-109060500D01*
X145706666Y-109060500D02*
X145673333Y-108927166D01*
X145673333Y-108927166D02*
X145673333Y-108827166D01*
X145673333Y-108827166D02*
X145706666Y-108693833D01*
X145706666Y-108693833D02*
X145740000Y-108627166D01*
X145740000Y-108627166D02*
X145806666Y-108560500D01*
X145806666Y-108560500D02*
X145906666Y-108527166D01*
X145906666Y-108527166D02*
X145973333Y-108527166D01*
X145973333Y-108527166D02*
X146073333Y-108560500D01*
X146073333Y-108560500D02*
X146106666Y-108593833D01*
X146740000Y-109227166D02*
X146406666Y-109227166D01*
X146406666Y-109227166D02*
X146406666Y-108527166D01*
X146973333Y-109227166D02*
X146973333Y-108527166D01*
X147373333Y-109227166D02*
X147073333Y-108827166D01*
X147373333Y-108527166D02*
X146973333Y-108927166D01*
X148513333Y-109227166D02*
X148513333Y-108527166D01*
X148513333Y-108527166D02*
X148680000Y-108527166D01*
X148680000Y-108527166D02*
X148780000Y-108560500D01*
X148780000Y-108560500D02*
X148846667Y-108627166D01*
X148846667Y-108627166D02*
X148880000Y-108693833D01*
X148880000Y-108693833D02*
X148913333Y-108827166D01*
X148913333Y-108827166D02*
X148913333Y-108927166D01*
X148913333Y-108927166D02*
X148880000Y-109060500D01*
X148880000Y-109060500D02*
X148846667Y-109127166D01*
X148846667Y-109127166D02*
X148780000Y-109193833D01*
X148780000Y-109193833D02*
X148680000Y-109227166D01*
X148680000Y-109227166D02*
X148513333Y-109227166D01*
X149213333Y-109227166D02*
X149213333Y-108527166D01*
X149680000Y-108527166D02*
X149813333Y-108527166D01*
X149813333Y-108527166D02*
X149880000Y-108560500D01*
X149880000Y-108560500D02*
X149946666Y-108627166D01*
X149946666Y-108627166D02*
X149980000Y-108760500D01*
X149980000Y-108760500D02*
X149980000Y-108993833D01*
X149980000Y-108993833D02*
X149946666Y-109127166D01*
X149946666Y-109127166D02*
X149880000Y-109193833D01*
X149880000Y-109193833D02*
X149813333Y-109227166D01*
X149813333Y-109227166D02*
X149680000Y-109227166D01*
X149680000Y-109227166D02*
X149613333Y-109193833D01*
X149613333Y-109193833D02*
X149546666Y-109127166D01*
X149546666Y-109127166D02*
X149513333Y-108993833D01*
X149513333Y-108993833D02*
X149513333Y-108760500D01*
X149513333Y-108760500D02*
X149546666Y-108627166D01*
X149546666Y-108627166D02*
X149613333Y-108560500D01*
X149613333Y-108560500D02*
X149680000Y-108527166D01*
X151486666Y-108560500D02*
X151419999Y-108527166D01*
X151419999Y-108527166D02*
X151319999Y-108527166D01*
X151319999Y-108527166D02*
X151219999Y-108560500D01*
X151219999Y-108560500D02*
X151153333Y-108627166D01*
X151153333Y-108627166D02*
X151119999Y-108693833D01*
X151119999Y-108693833D02*
X151086666Y-108827166D01*
X151086666Y-108827166D02*
X151086666Y-108927166D01*
X151086666Y-108927166D02*
X151119999Y-109060500D01*
X151119999Y-109060500D02*
X151153333Y-109127166D01*
X151153333Y-109127166D02*
X151219999Y-109193833D01*
X151219999Y-109193833D02*
X151319999Y-109227166D01*
X151319999Y-109227166D02*
X151386666Y-109227166D01*
X151386666Y-109227166D02*
X151486666Y-109193833D01*
X151486666Y-109193833D02*
X151519999Y-109160500D01*
X151519999Y-109160500D02*
X151519999Y-108927166D01*
X151519999Y-108927166D02*
X151386666Y-108927166D01*
X151819999Y-109227166D02*
X151819999Y-108527166D01*
X151819999Y-108527166D02*
X152219999Y-109227166D01*
X152219999Y-109227166D02*
X152219999Y-108527166D01*
X152553332Y-109227166D02*
X152553332Y-108527166D01*
X152553332Y-108527166D02*
X152719999Y-108527166D01*
X152719999Y-108527166D02*
X152819999Y-108560500D01*
X152819999Y-108560500D02*
X152886666Y-108627166D01*
X152886666Y-108627166D02*
X152919999Y-108693833D01*
X152919999Y-108693833D02*
X152953332Y-108827166D01*
X152953332Y-108827166D02*
X152953332Y-108927166D01*
X152953332Y-108927166D02*
X152919999Y-109060500D01*
X152919999Y-109060500D02*
X152886666Y-109127166D01*
X152886666Y-109127166D02*
X152819999Y-109193833D01*
X152819999Y-109193833D02*
X152719999Y-109227166D01*
X152719999Y-109227166D02*
X152553332Y-109227166D01*
D10*
X142904633Y-86866211D02*
X142472833Y-86866211D01*
X142688733Y-86866211D02*
X142688733Y-86110561D01*
X142688733Y-86110561D02*
X142616766Y-86218511D01*
X142616766Y-86218511D02*
X142544800Y-86290478D01*
X142544800Y-86290478D02*
X142472833Y-86326461D01*
X143624300Y-86866211D02*
X143192500Y-86866211D01*
X143408400Y-86866211D02*
X143408400Y-86110561D01*
X143408400Y-86110561D02*
X143336433Y-86218511D01*
X143336433Y-86218511D02*
X143264467Y-86290478D01*
X143264467Y-86290478D02*
X143192500Y-86326461D01*
X144307984Y-86110561D02*
X143948150Y-86110561D01*
X143948150Y-86110561D02*
X143912167Y-86470395D01*
X143912167Y-86470395D02*
X143948150Y-86434411D01*
X143948150Y-86434411D02*
X144020117Y-86398428D01*
X144020117Y-86398428D02*
X144200034Y-86398428D01*
X144200034Y-86398428D02*
X144272000Y-86434411D01*
X144272000Y-86434411D02*
X144307984Y-86470395D01*
X144307984Y-86470395D02*
X144343967Y-86542361D01*
X144343967Y-86542361D02*
X144343967Y-86722278D01*
X144343967Y-86722278D02*
X144307984Y-86794245D01*
X144307984Y-86794245D02*
X144272000Y-86830228D01*
X144272000Y-86830228D02*
X144200034Y-86866211D01*
X144200034Y-86866211D02*
X144020117Y-86866211D01*
X144020117Y-86866211D02*
X143948150Y-86830228D01*
X143948150Y-86830228D02*
X143912167Y-86794245D01*
X153987499Y-107186211D02*
X153555699Y-107186211D01*
X153771599Y-107186211D02*
X153771599Y-106430561D01*
X153771599Y-106430561D02*
X153699632Y-106538511D01*
X153699632Y-106538511D02*
X153627666Y-106610478D01*
X153627666Y-106610478D02*
X153555699Y-106646461D01*
X154239383Y-106430561D02*
X154743149Y-106430561D01*
X154743149Y-106430561D02*
X154419299Y-107186211D01*
X152872016Y-121670561D02*
X153339799Y-121670561D01*
X153339799Y-121670561D02*
X153087916Y-121958428D01*
X153087916Y-121958428D02*
X153195866Y-121958428D01*
X153195866Y-121958428D02*
X153267832Y-121994411D01*
X153267832Y-121994411D02*
X153303816Y-122030395D01*
X153303816Y-122030395D02*
X153339799Y-122102361D01*
X153339799Y-122102361D02*
X153339799Y-122282278D01*
X153339799Y-122282278D02*
X153303816Y-122354245D01*
X153303816Y-122354245D02*
X153267832Y-122390228D01*
X153267832Y-122390228D02*
X153195866Y-122426211D01*
X153195866Y-122426211D02*
X152979966Y-122426211D01*
X152979966Y-122426211D02*
X152907999Y-122390228D01*
X152907999Y-122390228D02*
X152872016Y-122354245D01*
X153555699Y-121670561D02*
X153807583Y-122426211D01*
X153807583Y-122426211D02*
X154059466Y-121670561D01*
X154239383Y-121670561D02*
X154707166Y-121670561D01*
X154707166Y-121670561D02*
X154455283Y-121958428D01*
X154455283Y-121958428D02*
X154563233Y-121958428D01*
X154563233Y-121958428D02*
X154635199Y-121994411D01*
X154635199Y-121994411D02*
X154671183Y-122030395D01*
X154671183Y-122030395D02*
X154707166Y-122102361D01*
X154707166Y-122102361D02*
X154707166Y-122282278D01*
X154707166Y-122282278D02*
X154671183Y-122354245D01*
X154671183Y-122354245D02*
X154635199Y-122390228D01*
X154635199Y-122390228D02*
X154563233Y-122426211D01*
X154563233Y-122426211D02*
X154347333Y-122426211D01*
X154347333Y-122426211D02*
X154275366Y-122390228D01*
X154275366Y-122390228D02*
X154239383Y-122354245D01*
X142652750Y-103890561D02*
X142724716Y-103890561D01*
X142724716Y-103890561D02*
X142796683Y-103926545D01*
X142796683Y-103926545D02*
X142832666Y-103962528D01*
X142832666Y-103962528D02*
X142868650Y-104034495D01*
X142868650Y-104034495D02*
X142904633Y-104178428D01*
X142904633Y-104178428D02*
X142904633Y-104358345D01*
X142904633Y-104358345D02*
X142868650Y-104502278D01*
X142868650Y-104502278D02*
X142832666Y-104574245D01*
X142832666Y-104574245D02*
X142796683Y-104610228D01*
X142796683Y-104610228D02*
X142724716Y-104646211D01*
X142724716Y-104646211D02*
X142652750Y-104646211D01*
X142652750Y-104646211D02*
X142580783Y-104610228D01*
X142580783Y-104610228D02*
X142544800Y-104574245D01*
X142544800Y-104574245D02*
X142508816Y-104502278D01*
X142508816Y-104502278D02*
X142472833Y-104358345D01*
X142472833Y-104358345D02*
X142472833Y-104178428D01*
X142472833Y-104178428D02*
X142508816Y-104034495D01*
X142508816Y-104034495D02*
X142544800Y-103962528D01*
X142544800Y-103962528D02*
X142580783Y-103926545D01*
X142580783Y-103926545D02*
X142652750Y-103890561D01*
X143372417Y-103890561D02*
X143444383Y-103890561D01*
X143444383Y-103890561D02*
X143516350Y-103926545D01*
X143516350Y-103926545D02*
X143552333Y-103962528D01*
X143552333Y-103962528D02*
X143588317Y-104034495D01*
X143588317Y-104034495D02*
X143624300Y-104178428D01*
X143624300Y-104178428D02*
X143624300Y-104358345D01*
X143624300Y-104358345D02*
X143588317Y-104502278D01*
X143588317Y-104502278D02*
X143552333Y-104574245D01*
X143552333Y-104574245D02*
X143516350Y-104610228D01*
X143516350Y-104610228D02*
X143444383Y-104646211D01*
X143444383Y-104646211D02*
X143372417Y-104646211D01*
X143372417Y-104646211D02*
X143300450Y-104610228D01*
X143300450Y-104610228D02*
X143264467Y-104574245D01*
X143264467Y-104574245D02*
X143228483Y-104502278D01*
X143228483Y-104502278D02*
X143192500Y-104358345D01*
X143192500Y-104358345D02*
X143192500Y-104178428D01*
X143192500Y-104178428D02*
X143228483Y-104034495D01*
X143228483Y-104034495D02*
X143264467Y-103962528D01*
X143264467Y-103962528D02*
X143300450Y-103926545D01*
X143300450Y-103926545D02*
X143372417Y-103890561D01*
X142436850Y-98810561D02*
X142904633Y-98810561D01*
X142904633Y-98810561D02*
X142652750Y-99098428D01*
X142652750Y-99098428D02*
X142760700Y-99098428D01*
X142760700Y-99098428D02*
X142832666Y-99134411D01*
X142832666Y-99134411D02*
X142868650Y-99170395D01*
X142868650Y-99170395D02*
X142904633Y-99242361D01*
X142904633Y-99242361D02*
X142904633Y-99422278D01*
X142904633Y-99422278D02*
X142868650Y-99494245D01*
X142868650Y-99494245D02*
X142832666Y-99530228D01*
X142832666Y-99530228D02*
X142760700Y-99566211D01*
X142760700Y-99566211D02*
X142544800Y-99566211D01*
X142544800Y-99566211D02*
X142472833Y-99530228D01*
X142472833Y-99530228D02*
X142436850Y-99494245D01*
X143372417Y-98810561D02*
X143444383Y-98810561D01*
X143444383Y-98810561D02*
X143516350Y-98846545D01*
X143516350Y-98846545D02*
X143552333Y-98882528D01*
X143552333Y-98882528D02*
X143588317Y-98954495D01*
X143588317Y-98954495D02*
X143624300Y-99098428D01*
X143624300Y-99098428D02*
X143624300Y-99278345D01*
X143624300Y-99278345D02*
X143588317Y-99422278D01*
X143588317Y-99422278D02*
X143552333Y-99494245D01*
X143552333Y-99494245D02*
X143516350Y-99530228D01*
X143516350Y-99530228D02*
X143444383Y-99566211D01*
X143444383Y-99566211D02*
X143372417Y-99566211D01*
X143372417Y-99566211D02*
X143300450Y-99530228D01*
X143300450Y-99530228D02*
X143264467Y-99494245D01*
X143264467Y-99494245D02*
X143228483Y-99422278D01*
X143228483Y-99422278D02*
X143192500Y-99278345D01*
X143192500Y-99278345D02*
X143192500Y-99098428D01*
X143192500Y-99098428D02*
X143228483Y-98954495D01*
X143228483Y-98954495D02*
X143264467Y-98882528D01*
X143264467Y-98882528D02*
X143300450Y-98846545D01*
X143300450Y-98846545D02*
X143372417Y-98810561D01*
D11*
X150173333Y-112647666D02*
X150239999Y-112647666D01*
X150239999Y-112647666D02*
X150306666Y-112681000D01*
X150306666Y-112681000D02*
X150339999Y-112714333D01*
X150339999Y-112714333D02*
X150373333Y-112781000D01*
X150373333Y-112781000D02*
X150406666Y-112914333D01*
X150406666Y-112914333D02*
X150406666Y-113081000D01*
X150406666Y-113081000D02*
X150373333Y-113214333D01*
X150373333Y-113214333D02*
X150339999Y-113281000D01*
X150339999Y-113281000D02*
X150306666Y-113314333D01*
X150306666Y-113314333D02*
X150239999Y-113347666D01*
X150239999Y-113347666D02*
X150173333Y-113347666D01*
X150173333Y-113347666D02*
X150106666Y-113314333D01*
X150106666Y-113314333D02*
X150073333Y-113281000D01*
X150073333Y-113281000D02*
X150039999Y-113214333D01*
X150039999Y-113214333D02*
X150006666Y-113081000D01*
X150006666Y-113081000D02*
X150006666Y-112914333D01*
X150006666Y-112914333D02*
X150039999Y-112781000D01*
X150039999Y-112781000D02*
X150073333Y-112714333D01*
X150073333Y-112714333D02*
X150106666Y-112681000D01*
X150106666Y-112681000D02*
X150173333Y-112647666D01*
X150706666Y-113281000D02*
X150740000Y-113314333D01*
X150740000Y-113314333D02*
X150706666Y-113347666D01*
X150706666Y-113347666D02*
X150673333Y-113314333D01*
X150673333Y-113314333D02*
X150706666Y-113281000D01*
X150706666Y-113281000D02*
X150706666Y-113347666D01*
X151173333Y-112647666D02*
X151239999Y-112647666D01*
X151239999Y-112647666D02*
X151306666Y-112681000D01*
X151306666Y-112681000D02*
X151339999Y-112714333D01*
X151339999Y-112714333D02*
X151373333Y-112781000D01*
X151373333Y-112781000D02*
X151406666Y-112914333D01*
X151406666Y-112914333D02*
X151406666Y-113081000D01*
X151406666Y-113081000D02*
X151373333Y-113214333D01*
X151373333Y-113214333D02*
X151339999Y-113281000D01*
X151339999Y-113281000D02*
X151306666Y-113314333D01*
X151306666Y-113314333D02*
X151239999Y-113347666D01*
X151239999Y-113347666D02*
X151173333Y-113347666D01*
X151173333Y-113347666D02*
X151106666Y-113314333D01*
X151106666Y-113314333D02*
X151073333Y-113281000D01*
X151073333Y-113281000D02*
X151039999Y-113214333D01*
X151039999Y-113214333D02*
X151006666Y-113081000D01*
X151006666Y-113081000D02*
X151006666Y-112914333D01*
X151006666Y-112914333D02*
X151039999Y-112781000D01*
X151039999Y-112781000D02*
X151073333Y-112714333D01*
X151073333Y-112714333D02*
X151106666Y-112681000D01*
X151106666Y-112681000D02*
X151173333Y-112647666D01*
X151640000Y-112647666D02*
X152106666Y-112647666D01*
X152106666Y-112647666D02*
X151806666Y-113347666D01*
X148887666Y-120253333D02*
X148887666Y-120653333D01*
X148887666Y-120453333D02*
X148187666Y-120453333D01*
X148187666Y-120453333D02*
X148287666Y-120520000D01*
X148287666Y-120520000D02*
X148354333Y-120586667D01*
X148354333Y-120586667D02*
X148387666Y-120653333D01*
X148821000Y-119953333D02*
X148854333Y-119920000D01*
X148854333Y-119920000D02*
X148887666Y-119953333D01*
X148887666Y-119953333D02*
X148854333Y-119986666D01*
X148854333Y-119986666D02*
X148821000Y-119953333D01*
X148821000Y-119953333D02*
X148887666Y-119953333D01*
X148187666Y-119486667D02*
X148187666Y-119420000D01*
X148187666Y-119420000D02*
X148221000Y-119353333D01*
X148221000Y-119353333D02*
X148254333Y-119320000D01*
X148254333Y-119320000D02*
X148321000Y-119286667D01*
X148321000Y-119286667D02*
X148454333Y-119253333D01*
X148454333Y-119253333D02*
X148621000Y-119253333D01*
X148621000Y-119253333D02*
X148754333Y-119286667D01*
X148754333Y-119286667D02*
X148821000Y-119320000D01*
X148821000Y-119320000D02*
X148854333Y-119353333D01*
X148854333Y-119353333D02*
X148887666Y-119420000D01*
X148887666Y-119420000D02*
X148887666Y-119486667D01*
X148887666Y-119486667D02*
X148854333Y-119553333D01*
X148854333Y-119553333D02*
X148821000Y-119586667D01*
X148821000Y-119586667D02*
X148754333Y-119620000D01*
X148754333Y-119620000D02*
X148621000Y-119653333D01*
X148621000Y-119653333D02*
X148454333Y-119653333D01*
X148454333Y-119653333D02*
X148321000Y-119620000D01*
X148321000Y-119620000D02*
X148254333Y-119586667D01*
X148254333Y-119586667D02*
X148221000Y-119553333D01*
X148221000Y-119553333D02*
X148187666Y-119486667D01*
X148487666Y-118853333D02*
X148454333Y-118920000D01*
X148454333Y-118920000D02*
X148421000Y-118953333D01*
X148421000Y-118953333D02*
X148354333Y-118986666D01*
X148354333Y-118986666D02*
X148321000Y-118986666D01*
X148321000Y-118986666D02*
X148254333Y-118953333D01*
X148254333Y-118953333D02*
X148221000Y-118920000D01*
X148221000Y-118920000D02*
X148187666Y-118853333D01*
X148187666Y-118853333D02*
X148187666Y-118720000D01*
X148187666Y-118720000D02*
X148221000Y-118653333D01*
X148221000Y-118653333D02*
X148254333Y-118620000D01*
X148254333Y-118620000D02*
X148321000Y-118586666D01*
X148321000Y-118586666D02*
X148354333Y-118586666D01*
X148354333Y-118586666D02*
X148421000Y-118620000D01*
X148421000Y-118620000D02*
X148454333Y-118653333D01*
X148454333Y-118653333D02*
X148487666Y-118720000D01*
X148487666Y-118720000D02*
X148487666Y-118853333D01*
X148487666Y-118853333D02*
X148521000Y-118920000D01*
X148521000Y-118920000D02*
X148554333Y-118953333D01*
X148554333Y-118953333D02*
X148621000Y-118986666D01*
X148621000Y-118986666D02*
X148754333Y-118986666D01*
X148754333Y-118986666D02*
X148821000Y-118953333D01*
X148821000Y-118953333D02*
X148854333Y-118920000D01*
X148854333Y-118920000D02*
X148887666Y-118853333D01*
X148887666Y-118853333D02*
X148887666Y-118720000D01*
X148887666Y-118720000D02*
X148854333Y-118653333D01*
X148854333Y-118653333D02*
X148821000Y-118620000D01*
X148821000Y-118620000D02*
X148754333Y-118586666D01*
X148754333Y-118586666D02*
X148621000Y-118586666D01*
X148621000Y-118586666D02*
X148554333Y-118620000D01*
X148554333Y-118620000D02*
X148521000Y-118653333D01*
X148521000Y-118653333D02*
X148487666Y-118720000D01*
D10*
X144885166Y-113335556D02*
X144885166Y-112579906D01*
X144885166Y-112579906D02*
X145173033Y-112579906D01*
X145173033Y-112579906D02*
X145245000Y-112615890D01*
X145245000Y-112615890D02*
X145280983Y-112651873D01*
X145280983Y-112651873D02*
X145316966Y-112723840D01*
X145316966Y-112723840D02*
X145316966Y-112831790D01*
X145316966Y-112831790D02*
X145280983Y-112903756D01*
X145280983Y-112903756D02*
X145245000Y-112939740D01*
X145245000Y-112939740D02*
X145173033Y-112975723D01*
X145173033Y-112975723D02*
X144885166Y-112975723D01*
X145568850Y-112579906D02*
X145748766Y-113335556D01*
X145748766Y-113335556D02*
X145892700Y-112795806D01*
X145892700Y-112795806D02*
X146036633Y-113335556D01*
X146036633Y-113335556D02*
X146216550Y-112579906D01*
X146936216Y-113335556D02*
X146684333Y-112975723D01*
X146504416Y-113335556D02*
X146504416Y-112579906D01*
X146504416Y-112579906D02*
X146792283Y-112579906D01*
X146792283Y-112579906D02*
X146864250Y-112615890D01*
X146864250Y-112615890D02*
X146900233Y-112651873D01*
X146900233Y-112651873D02*
X146936216Y-112723840D01*
X146936216Y-112723840D02*
X146936216Y-112831790D01*
X146936216Y-112831790D02*
X146900233Y-112903756D01*
X146900233Y-112903756D02*
X146864250Y-112939740D01*
X146864250Y-112939740D02*
X146792283Y-112975723D01*
X146792283Y-112975723D02*
X146504416Y-112975723D01*
D11*
X153735616Y-88650561D02*
X153807582Y-88650561D01*
X153807582Y-88650561D02*
X153879549Y-88686545D01*
X153879549Y-88686545D02*
X153915532Y-88722528D01*
X153915532Y-88722528D02*
X153951516Y-88794495D01*
X153951516Y-88794495D02*
X153987499Y-88938428D01*
X153987499Y-88938428D02*
X153987499Y-89118345D01*
X153987499Y-89118345D02*
X153951516Y-89262278D01*
X153951516Y-89262278D02*
X153915532Y-89334245D01*
X153915532Y-89334245D02*
X153879549Y-89370228D01*
X153879549Y-89370228D02*
X153807582Y-89406211D01*
X153807582Y-89406211D02*
X153735616Y-89406211D01*
X153735616Y-89406211D02*
X153663649Y-89370228D01*
X153663649Y-89370228D02*
X153627666Y-89334245D01*
X153627666Y-89334245D02*
X153591682Y-89262278D01*
X153591682Y-89262278D02*
X153555699Y-89118345D01*
X153555699Y-89118345D02*
X153555699Y-88938428D01*
X153555699Y-88938428D02*
X153591682Y-88794495D01*
X153591682Y-88794495D02*
X153627666Y-88722528D01*
X153627666Y-88722528D02*
X153663649Y-88686545D01*
X153663649Y-88686545D02*
X153735616Y-88650561D01*
X154347333Y-89406211D02*
X154491266Y-89406211D01*
X154491266Y-89406211D02*
X154563233Y-89370228D01*
X154563233Y-89370228D02*
X154599216Y-89334245D01*
X154599216Y-89334245D02*
X154671183Y-89226295D01*
X154671183Y-89226295D02*
X154707166Y-89082361D01*
X154707166Y-89082361D02*
X154707166Y-88794495D01*
X154707166Y-88794495D02*
X154671183Y-88722528D01*
X154671183Y-88722528D02*
X154635199Y-88686545D01*
X154635199Y-88686545D02*
X154563233Y-88650561D01*
X154563233Y-88650561D02*
X154419299Y-88650561D01*
X154419299Y-88650561D02*
X154347333Y-88686545D01*
X154347333Y-88686545D02*
X154311349Y-88722528D01*
X154311349Y-88722528D02*
X154275366Y-88794495D01*
X154275366Y-88794495D02*
X154275366Y-88974411D01*
X154275366Y-88974411D02*
X154311349Y-89046378D01*
X154311349Y-89046378D02*
X154347333Y-89082361D01*
X154347333Y-89082361D02*
X154419299Y-89118345D01*
X154419299Y-89118345D02*
X154563233Y-89118345D01*
X154563233Y-89118345D02*
X154635199Y-89082361D01*
X154635199Y-89082361D02*
X154671183Y-89046378D01*
X154671183Y-89046378D02*
X154707166Y-88974411D01*
D10*
X142356745Y-127287866D02*
X142320761Y-127359833D01*
X142320761Y-127359833D02*
X142320761Y-127467783D01*
X142320761Y-127467783D02*
X142356745Y-127575733D01*
X142356745Y-127575733D02*
X142428711Y-127647700D01*
X142428711Y-127647700D02*
X142500678Y-127683683D01*
X142500678Y-127683683D02*
X142644611Y-127719666D01*
X142644611Y-127719666D02*
X142752561Y-127719666D01*
X142752561Y-127719666D02*
X142896495Y-127683683D01*
X142896495Y-127683683D02*
X142968461Y-127647700D01*
X142968461Y-127647700D02*
X143040428Y-127575733D01*
X143040428Y-127575733D02*
X143076411Y-127467783D01*
X143076411Y-127467783D02*
X143076411Y-127395816D01*
X143076411Y-127395816D02*
X143040428Y-127287866D01*
X143040428Y-127287866D02*
X143004445Y-127251883D01*
X143004445Y-127251883D02*
X142752561Y-127251883D01*
X142752561Y-127251883D02*
X142752561Y-127395816D01*
X143076411Y-126928033D02*
X142320761Y-126928033D01*
X142320761Y-126928033D02*
X143076411Y-126496233D01*
X143076411Y-126496233D02*
X142320761Y-126496233D01*
X143076411Y-126136400D02*
X142320761Y-126136400D01*
X142320761Y-126136400D02*
X142320761Y-125956483D01*
X142320761Y-125956483D02*
X142356745Y-125848533D01*
X142356745Y-125848533D02*
X142428711Y-125776567D01*
X142428711Y-125776567D02*
X142500678Y-125740583D01*
X142500678Y-125740583D02*
X142644611Y-125704600D01*
X142644611Y-125704600D02*
X142752561Y-125704600D01*
X142752561Y-125704600D02*
X142896495Y-125740583D01*
X142896495Y-125740583D02*
X142968461Y-125776567D01*
X142968461Y-125776567D02*
X143040428Y-125848533D01*
X143040428Y-125848533D02*
X143076411Y-125956483D01*
X143076411Y-125956483D02*
X143076411Y-126136400D01*
X153514599Y-95803928D02*
X153550582Y-95767945D01*
X153550582Y-95767945D02*
X153622549Y-95731961D01*
X153622549Y-95731961D02*
X153802466Y-95731961D01*
X153802466Y-95731961D02*
X153874432Y-95767945D01*
X153874432Y-95767945D02*
X153910416Y-95803928D01*
X153910416Y-95803928D02*
X153946399Y-95875895D01*
X153946399Y-95875895D02*
X153946399Y-95947861D01*
X153946399Y-95947861D02*
X153910416Y-96055811D01*
X153910416Y-96055811D02*
X153478616Y-96487611D01*
X153478616Y-96487611D02*
X153946399Y-96487611D01*
X154234266Y-95803928D02*
X154270249Y-95767945D01*
X154270249Y-95767945D02*
X154342216Y-95731961D01*
X154342216Y-95731961D02*
X154522133Y-95731961D01*
X154522133Y-95731961D02*
X154594099Y-95767945D01*
X154594099Y-95767945D02*
X154630083Y-95803928D01*
X154630083Y-95803928D02*
X154666066Y-95875895D01*
X154666066Y-95875895D02*
X154666066Y-95947861D01*
X154666066Y-95947861D02*
X154630083Y-96055811D01*
X154630083Y-96055811D02*
X154198283Y-96487611D01*
X154198283Y-96487611D02*
X154666066Y-96487611D01*
X142652750Y-111510561D02*
X142724716Y-111510561D01*
X142724716Y-111510561D02*
X142796683Y-111546545D01*
X142796683Y-111546545D02*
X142832666Y-111582528D01*
X142832666Y-111582528D02*
X142868650Y-111654495D01*
X142868650Y-111654495D02*
X142904633Y-111798428D01*
X142904633Y-111798428D02*
X142904633Y-111978345D01*
X142904633Y-111978345D02*
X142868650Y-112122278D01*
X142868650Y-112122278D02*
X142832666Y-112194245D01*
X142832666Y-112194245D02*
X142796683Y-112230228D01*
X142796683Y-112230228D02*
X142724716Y-112266211D01*
X142724716Y-112266211D02*
X142652750Y-112266211D01*
X142652750Y-112266211D02*
X142580783Y-112230228D01*
X142580783Y-112230228D02*
X142544800Y-112194245D01*
X142544800Y-112194245D02*
X142508816Y-112122278D01*
X142508816Y-112122278D02*
X142472833Y-111978345D01*
X142472833Y-111978345D02*
X142472833Y-111798428D01*
X142472833Y-111798428D02*
X142508816Y-111654495D01*
X142508816Y-111654495D02*
X142544800Y-111582528D01*
X142544800Y-111582528D02*
X142580783Y-111546545D01*
X142580783Y-111546545D02*
X142652750Y-111510561D01*
X143588317Y-111510561D02*
X143228483Y-111510561D01*
X143228483Y-111510561D02*
X143192500Y-111870395D01*
X143192500Y-111870395D02*
X143228483Y-111834411D01*
X143228483Y-111834411D02*
X143300450Y-111798428D01*
X143300450Y-111798428D02*
X143480367Y-111798428D01*
X143480367Y-111798428D02*
X143552333Y-111834411D01*
X143552333Y-111834411D02*
X143588317Y-111870395D01*
X143588317Y-111870395D02*
X143624300Y-111942361D01*
X143624300Y-111942361D02*
X143624300Y-112122278D01*
X143624300Y-112122278D02*
X143588317Y-112194245D01*
X143588317Y-112194245D02*
X143552333Y-112230228D01*
X143552333Y-112230228D02*
X143480367Y-112266211D01*
X143480367Y-112266211D02*
X143300450Y-112266211D01*
X143300450Y-112266211D02*
X143228483Y-112230228D01*
X143228483Y-112230228D02*
X143192500Y-112194245D01*
D11*
X142354016Y-89525817D02*
X142354016Y-89453850D01*
X142354016Y-89453850D02*
X142390000Y-89381883D01*
X142390000Y-89381883D02*
X142425983Y-89345900D01*
X142425983Y-89345900D02*
X142497950Y-89309917D01*
X142497950Y-89309917D02*
X142641883Y-89273933D01*
X142641883Y-89273933D02*
X142821800Y-89273933D01*
X142821800Y-89273933D02*
X142965733Y-89309917D01*
X142965733Y-89309917D02*
X143037700Y-89345900D01*
X143037700Y-89345900D02*
X143073683Y-89381883D01*
X143073683Y-89381883D02*
X143109666Y-89453850D01*
X143109666Y-89453850D02*
X143109666Y-89525817D01*
X143109666Y-89525817D02*
X143073683Y-89597783D01*
X143073683Y-89597783D02*
X143037700Y-89633767D01*
X143037700Y-89633767D02*
X142965733Y-89669750D01*
X142965733Y-89669750D02*
X142821800Y-89705733D01*
X142821800Y-89705733D02*
X142641883Y-89705733D01*
X142641883Y-89705733D02*
X142497950Y-89669750D01*
X142497950Y-89669750D02*
X142425983Y-89633767D01*
X142425983Y-89633767D02*
X142390000Y-89597783D01*
X142390000Y-89597783D02*
X142354016Y-89525817D01*
X142354016Y-89022050D02*
X142354016Y-88554266D01*
X142354016Y-88554266D02*
X142641883Y-88806150D01*
X142641883Y-88806150D02*
X142641883Y-88698200D01*
X142641883Y-88698200D02*
X142677866Y-88626233D01*
X142677866Y-88626233D02*
X142713850Y-88590250D01*
X142713850Y-88590250D02*
X142785816Y-88554266D01*
X142785816Y-88554266D02*
X142965733Y-88554266D01*
X142965733Y-88554266D02*
X143037700Y-88590250D01*
X143037700Y-88590250D02*
X143073683Y-88626233D01*
X143073683Y-88626233D02*
X143109666Y-88698200D01*
X143109666Y-88698200D02*
X143109666Y-88914100D01*
X143109666Y-88914100D02*
X143073683Y-88986066D01*
X143073683Y-88986066D02*
X143037700Y-89022050D01*
D10*
X153123900Y-124210561D02*
X153375784Y-124966211D01*
X153375784Y-124966211D02*
X153627667Y-124210561D01*
X153879550Y-124966211D02*
X153879550Y-124210561D01*
X154239383Y-124966211D02*
X154239383Y-124210561D01*
X154239383Y-124210561D02*
X154671183Y-124966211D01*
X154671183Y-124966211D02*
X154671183Y-124210561D01*
X153267832Y-119886211D02*
X152836032Y-119886211D01*
X153051932Y-119886211D02*
X153051932Y-119130561D01*
X153051932Y-119130561D02*
X152979965Y-119238511D01*
X152979965Y-119238511D02*
X152907999Y-119310478D01*
X152907999Y-119310478D02*
X152836032Y-119346461D01*
X153735616Y-119130561D02*
X153807582Y-119130561D01*
X153807582Y-119130561D02*
X153879549Y-119166545D01*
X153879549Y-119166545D02*
X153915532Y-119202528D01*
X153915532Y-119202528D02*
X153951516Y-119274495D01*
X153951516Y-119274495D02*
X153987499Y-119418428D01*
X153987499Y-119418428D02*
X153987499Y-119598345D01*
X153987499Y-119598345D02*
X153951516Y-119742278D01*
X153951516Y-119742278D02*
X153915532Y-119814245D01*
X153915532Y-119814245D02*
X153879549Y-119850228D01*
X153879549Y-119850228D02*
X153807582Y-119886211D01*
X153807582Y-119886211D02*
X153735616Y-119886211D01*
X153735616Y-119886211D02*
X153663649Y-119850228D01*
X153663649Y-119850228D02*
X153627666Y-119814245D01*
X153627666Y-119814245D02*
X153591682Y-119742278D01*
X153591682Y-119742278D02*
X153555699Y-119598345D01*
X153555699Y-119598345D02*
X153555699Y-119418428D01*
X153555699Y-119418428D02*
X153591682Y-119274495D01*
X153591682Y-119274495D02*
X153627666Y-119202528D01*
X153627666Y-119202528D02*
X153663649Y-119166545D01*
X153663649Y-119166545D02*
X153735616Y-119130561D01*
X154347333Y-119886211D02*
X154491266Y-119886211D01*
X154491266Y-119886211D02*
X154563233Y-119850228D01*
X154563233Y-119850228D02*
X154599216Y-119814245D01*
X154599216Y-119814245D02*
X154671183Y-119706295D01*
X154671183Y-119706295D02*
X154707166Y-119562361D01*
X154707166Y-119562361D02*
X154707166Y-119274495D01*
X154707166Y-119274495D02*
X154671183Y-119202528D01*
X154671183Y-119202528D02*
X154635199Y-119166545D01*
X154635199Y-119166545D02*
X154563233Y-119130561D01*
X154563233Y-119130561D02*
X154419299Y-119130561D01*
X154419299Y-119130561D02*
X154347333Y-119166545D01*
X154347333Y-119166545D02*
X154311349Y-119202528D01*
X154311349Y-119202528D02*
X154275366Y-119274495D01*
X154275366Y-119274495D02*
X154275366Y-119454411D01*
X154275366Y-119454411D02*
X154311349Y-119526378D01*
X154311349Y-119526378D02*
X154347333Y-119562361D01*
X154347333Y-119562361D02*
X154419299Y-119598345D01*
X154419299Y-119598345D02*
X154563233Y-119598345D01*
X154563233Y-119598345D02*
X154635199Y-119562361D01*
X154635199Y-119562361D02*
X154671183Y-119526378D01*
X154671183Y-119526378D02*
X154707166Y-119454411D01*
X153987499Y-104646211D02*
X153555699Y-104646211D01*
X153771599Y-104646211D02*
X153771599Y-103890561D01*
X153771599Y-103890561D02*
X153699632Y-103998511D01*
X153699632Y-103998511D02*
X153627666Y-104070478D01*
X153627666Y-104070478D02*
X153555699Y-104106461D01*
X154347333Y-104646211D02*
X154491266Y-104646211D01*
X154491266Y-104646211D02*
X154563233Y-104610228D01*
X154563233Y-104610228D02*
X154599216Y-104574245D01*
X154599216Y-104574245D02*
X154671183Y-104466295D01*
X154671183Y-104466295D02*
X154707166Y-104322361D01*
X154707166Y-104322361D02*
X154707166Y-104034495D01*
X154707166Y-104034495D02*
X154671183Y-103962528D01*
X154671183Y-103962528D02*
X154635199Y-103926545D01*
X154635199Y-103926545D02*
X154563233Y-103890561D01*
X154563233Y-103890561D02*
X154419299Y-103890561D01*
X154419299Y-103890561D02*
X154347333Y-103926545D01*
X154347333Y-103926545D02*
X154311349Y-103962528D01*
X154311349Y-103962528D02*
X154275366Y-104034495D01*
X154275366Y-104034495D02*
X154275366Y-104214411D01*
X154275366Y-104214411D02*
X154311349Y-104286378D01*
X154311349Y-104286378D02*
X154347333Y-104322361D01*
X154347333Y-104322361D02*
X154419299Y-104358345D01*
X154419299Y-104358345D02*
X154563233Y-104358345D01*
X154563233Y-104358345D02*
X154635199Y-104322361D01*
X154635199Y-104322361D02*
X154671183Y-104286378D01*
X154671183Y-104286378D02*
X154707166Y-104214411D01*
X142472833Y-96342528D02*
X142508816Y-96306545D01*
X142508816Y-96306545D02*
X142580783Y-96270561D01*
X142580783Y-96270561D02*
X142760700Y-96270561D01*
X142760700Y-96270561D02*
X142832666Y-96306545D01*
X142832666Y-96306545D02*
X142868650Y-96342528D01*
X142868650Y-96342528D02*
X142904633Y-96414495D01*
X142904633Y-96414495D02*
X142904633Y-96486461D01*
X142904633Y-96486461D02*
X142868650Y-96594411D01*
X142868650Y-96594411D02*
X142436850Y-97026211D01*
X142436850Y-97026211D02*
X142904633Y-97026211D01*
X143264467Y-97026211D02*
X143408400Y-97026211D01*
X143408400Y-97026211D02*
X143480367Y-96990228D01*
X143480367Y-96990228D02*
X143516350Y-96954245D01*
X143516350Y-96954245D02*
X143588317Y-96846295D01*
X143588317Y-96846295D02*
X143624300Y-96702361D01*
X143624300Y-96702361D02*
X143624300Y-96414495D01*
X143624300Y-96414495D02*
X143588317Y-96342528D01*
X143588317Y-96342528D02*
X143552333Y-96306545D01*
X143552333Y-96306545D02*
X143480367Y-96270561D01*
X143480367Y-96270561D02*
X143336433Y-96270561D01*
X143336433Y-96270561D02*
X143264467Y-96306545D01*
X143264467Y-96306545D02*
X143228483Y-96342528D01*
X143228483Y-96342528D02*
X143192500Y-96414495D01*
X143192500Y-96414495D02*
X143192500Y-96594411D01*
X143192500Y-96594411D02*
X143228483Y-96666378D01*
X143228483Y-96666378D02*
X143264467Y-96702361D01*
X143264467Y-96702361D02*
X143336433Y-96738345D01*
X143336433Y-96738345D02*
X143480367Y-96738345D01*
X143480367Y-96738345D02*
X143552333Y-96702361D01*
X143552333Y-96702361D02*
X143588317Y-96666378D01*
X143588317Y-96666378D02*
X143624300Y-96594411D01*
D11*
X141951966Y-119539745D02*
X141987950Y-119503761D01*
X141987950Y-119503761D02*
X142059916Y-119467778D01*
X142059916Y-119467778D02*
X142203850Y-119539745D01*
X142203850Y-119539745D02*
X142275816Y-119503761D01*
X142275816Y-119503761D02*
X142311800Y-119467778D01*
X143031466Y-119827611D02*
X142779583Y-119467778D01*
X142599666Y-119827611D02*
X142599666Y-119071961D01*
X142599666Y-119071961D02*
X142887533Y-119071961D01*
X142887533Y-119071961D02*
X142959500Y-119107945D01*
X142959500Y-119107945D02*
X142995483Y-119143928D01*
X142995483Y-119143928D02*
X143031466Y-119215895D01*
X143031466Y-119215895D02*
X143031466Y-119323845D01*
X143031466Y-119323845D02*
X142995483Y-119395811D01*
X142995483Y-119395811D02*
X142959500Y-119431795D01*
X142959500Y-119431795D02*
X142887533Y-119467778D01*
X142887533Y-119467778D02*
X142599666Y-119467778D01*
X143319333Y-119791628D02*
X143427283Y-119827611D01*
X143427283Y-119827611D02*
X143607200Y-119827611D01*
X143607200Y-119827611D02*
X143679166Y-119791628D01*
X143679166Y-119791628D02*
X143715150Y-119755645D01*
X143715150Y-119755645D02*
X143751133Y-119683678D01*
X143751133Y-119683678D02*
X143751133Y-119611711D01*
X143751133Y-119611711D02*
X143715150Y-119539745D01*
X143715150Y-119539745D02*
X143679166Y-119503761D01*
X143679166Y-119503761D02*
X143607200Y-119467778D01*
X143607200Y-119467778D02*
X143463266Y-119431795D01*
X143463266Y-119431795D02*
X143391300Y-119395811D01*
X143391300Y-119395811D02*
X143355316Y-119359828D01*
X143355316Y-119359828D02*
X143319333Y-119287861D01*
X143319333Y-119287861D02*
X143319333Y-119215895D01*
X143319333Y-119215895D02*
X143355316Y-119143928D01*
X143355316Y-119143928D02*
X143391300Y-119107945D01*
X143391300Y-119107945D02*
X143463266Y-119071961D01*
X143463266Y-119071961D02*
X143643183Y-119071961D01*
X143643183Y-119071961D02*
X143751133Y-119107945D01*
X143967033Y-119071961D02*
X144398833Y-119071961D01*
X144182933Y-119827611D02*
X144182933Y-119071961D01*
X144542766Y-119539745D02*
X144578750Y-119503761D01*
X144578750Y-119503761D02*
X144650716Y-119467778D01*
X144650716Y-119467778D02*
X144794650Y-119539745D01*
X144794650Y-119539745D02*
X144866616Y-119503761D01*
X144866616Y-119503761D02*
X144902600Y-119467778D01*
D10*
X153541599Y-93043928D02*
X153577582Y-93007945D01*
X153577582Y-93007945D02*
X153649549Y-92971961D01*
X153649549Y-92971961D02*
X153829466Y-92971961D01*
X153829466Y-92971961D02*
X153901432Y-93007945D01*
X153901432Y-93007945D02*
X153937416Y-93043928D01*
X153937416Y-93043928D02*
X153973399Y-93115895D01*
X153973399Y-93115895D02*
X153973399Y-93187861D01*
X153973399Y-93187861D02*
X153937416Y-93295811D01*
X153937416Y-93295811D02*
X153505616Y-93727611D01*
X153505616Y-93727611D02*
X153973399Y-93727611D01*
X154225283Y-92971961D02*
X154693066Y-92971961D01*
X154693066Y-92971961D02*
X154441183Y-93259828D01*
X154441183Y-93259828D02*
X154549133Y-93259828D01*
X154549133Y-93259828D02*
X154621099Y-93295811D01*
X154621099Y-93295811D02*
X154657083Y-93331795D01*
X154657083Y-93331795D02*
X154693066Y-93403761D01*
X154693066Y-93403761D02*
X154693066Y-93583678D01*
X154693066Y-93583678D02*
X154657083Y-93655645D01*
X154657083Y-93655645D02*
X154621099Y-93691628D01*
X154621099Y-93691628D02*
X154549133Y-93727611D01*
X154549133Y-93727611D02*
X154333233Y-93727611D01*
X154333233Y-93727611D02*
X154261266Y-93691628D01*
X154261266Y-93691628D02*
X154225283Y-93655645D01*
X142652750Y-108970561D02*
X142724716Y-108970561D01*
X142724716Y-108970561D02*
X142796683Y-109006545D01*
X142796683Y-109006545D02*
X142832666Y-109042528D01*
X142832666Y-109042528D02*
X142868650Y-109114495D01*
X142868650Y-109114495D02*
X142904633Y-109258428D01*
X142904633Y-109258428D02*
X142904633Y-109438345D01*
X142904633Y-109438345D02*
X142868650Y-109582278D01*
X142868650Y-109582278D02*
X142832666Y-109654245D01*
X142832666Y-109654245D02*
X142796683Y-109690228D01*
X142796683Y-109690228D02*
X142724716Y-109726211D01*
X142724716Y-109726211D02*
X142652750Y-109726211D01*
X142652750Y-109726211D02*
X142580783Y-109690228D01*
X142580783Y-109690228D02*
X142544800Y-109654245D01*
X142544800Y-109654245D02*
X142508816Y-109582278D01*
X142508816Y-109582278D02*
X142472833Y-109438345D01*
X142472833Y-109438345D02*
X142472833Y-109258428D01*
X142472833Y-109258428D02*
X142508816Y-109114495D01*
X142508816Y-109114495D02*
X142544800Y-109042528D01*
X142544800Y-109042528D02*
X142580783Y-109006545D01*
X142580783Y-109006545D02*
X142652750Y-108970561D01*
X143552333Y-109222445D02*
X143552333Y-109726211D01*
X143372417Y-108934578D02*
X143192500Y-109474328D01*
X143192500Y-109474328D02*
X143660283Y-109474328D01*
D11*
X153987499Y-86866211D02*
X153555699Y-86866211D01*
X153771599Y-86866211D02*
X153771599Y-86110561D01*
X153771599Y-86110561D02*
X153699632Y-86218511D01*
X153699632Y-86218511D02*
X153627666Y-86290478D01*
X153627666Y-86290478D02*
X153555699Y-86326461D01*
X154455283Y-86110561D02*
X154527249Y-86110561D01*
X154527249Y-86110561D02*
X154599216Y-86146545D01*
X154599216Y-86146545D02*
X154635199Y-86182528D01*
X154635199Y-86182528D02*
X154671183Y-86254495D01*
X154671183Y-86254495D02*
X154707166Y-86398428D01*
X154707166Y-86398428D02*
X154707166Y-86578345D01*
X154707166Y-86578345D02*
X154671183Y-86722278D01*
X154671183Y-86722278D02*
X154635199Y-86794245D01*
X154635199Y-86794245D02*
X154599216Y-86830228D01*
X154599216Y-86830228D02*
X154527249Y-86866211D01*
X154527249Y-86866211D02*
X154455283Y-86866211D01*
X154455283Y-86866211D02*
X154383316Y-86830228D01*
X154383316Y-86830228D02*
X154347333Y-86794245D01*
X154347333Y-86794245D02*
X154311349Y-86722278D01*
X154311349Y-86722278D02*
X154275366Y-86578345D01*
X154275366Y-86578345D02*
X154275366Y-86398428D01*
X154275366Y-86398428D02*
X154311349Y-86254495D01*
X154311349Y-86254495D02*
X154347333Y-86182528D01*
X154347333Y-86182528D02*
X154383316Y-86146545D01*
X154383316Y-86146545D02*
X154455283Y-86110561D01*
D10*
X151847945Y-127904266D02*
X151811961Y-127976233D01*
X151811961Y-127976233D02*
X151811961Y-128084183D01*
X151811961Y-128084183D02*
X151847945Y-128192133D01*
X151847945Y-128192133D02*
X151919911Y-128264100D01*
X151919911Y-128264100D02*
X151991878Y-128300083D01*
X151991878Y-128300083D02*
X152135811Y-128336066D01*
X152135811Y-128336066D02*
X152243761Y-128336066D01*
X152243761Y-128336066D02*
X152387695Y-128300083D01*
X152387695Y-128300083D02*
X152459661Y-128264100D01*
X152459661Y-128264100D02*
X152531628Y-128192133D01*
X152531628Y-128192133D02*
X152567611Y-128084183D01*
X152567611Y-128084183D02*
X152567611Y-128012216D01*
X152567611Y-128012216D02*
X152531628Y-127904266D01*
X152531628Y-127904266D02*
X152495645Y-127868283D01*
X152495645Y-127868283D02*
X152243761Y-127868283D01*
X152243761Y-127868283D02*
X152243761Y-128012216D01*
X152567611Y-127544433D02*
X151811961Y-127544433D01*
X151811961Y-127544433D02*
X152567611Y-127112633D01*
X152567611Y-127112633D02*
X151811961Y-127112633D01*
X152567611Y-126752800D02*
X151811961Y-126752800D01*
X151811961Y-126752800D02*
X151811961Y-126572883D01*
X151811961Y-126572883D02*
X151847945Y-126464933D01*
X151847945Y-126464933D02*
X151919911Y-126392967D01*
X151919911Y-126392967D02*
X151991878Y-126356983D01*
X151991878Y-126356983D02*
X152135811Y-126321000D01*
X152135811Y-126321000D02*
X152243761Y-126321000D01*
X152243761Y-126321000D02*
X152387695Y-126356983D01*
X152387695Y-126356983D02*
X152459661Y-126392967D01*
X152459661Y-126392967D02*
X152531628Y-126464933D01*
X152531628Y-126464933D02*
X152567611Y-126572883D01*
X152567611Y-126572883D02*
X152567611Y-126752800D01*
D11*
X142324016Y-92064417D02*
X142324016Y-91992450D01*
X142324016Y-91992450D02*
X142360000Y-91920483D01*
X142360000Y-91920483D02*
X142395983Y-91884500D01*
X142395983Y-91884500D02*
X142467950Y-91848517D01*
X142467950Y-91848517D02*
X142611883Y-91812533D01*
X142611883Y-91812533D02*
X142791800Y-91812533D01*
X142791800Y-91812533D02*
X142935733Y-91848517D01*
X142935733Y-91848517D02*
X143007700Y-91884500D01*
X143007700Y-91884500D02*
X143043683Y-91920483D01*
X143043683Y-91920483D02*
X143079666Y-91992450D01*
X143079666Y-91992450D02*
X143079666Y-92064417D01*
X143079666Y-92064417D02*
X143043683Y-92136383D01*
X143043683Y-92136383D02*
X143007700Y-92172367D01*
X143007700Y-92172367D02*
X142935733Y-92208350D01*
X142935733Y-92208350D02*
X142791800Y-92244333D01*
X142791800Y-92244333D02*
X142611883Y-92244333D01*
X142611883Y-92244333D02*
X142467950Y-92208350D01*
X142467950Y-92208350D02*
X142395983Y-92172367D01*
X142395983Y-92172367D02*
X142360000Y-92136383D01*
X142360000Y-92136383D02*
X142324016Y-92064417D01*
X142395983Y-91524666D02*
X142360000Y-91488683D01*
X142360000Y-91488683D02*
X142324016Y-91416716D01*
X142324016Y-91416716D02*
X142324016Y-91236800D01*
X142324016Y-91236800D02*
X142360000Y-91164833D01*
X142360000Y-91164833D02*
X142395983Y-91128850D01*
X142395983Y-91128850D02*
X142467950Y-91092866D01*
X142467950Y-91092866D02*
X142539916Y-91092866D01*
X142539916Y-91092866D02*
X142647866Y-91128850D01*
X142647866Y-91128850D02*
X143079666Y-91560650D01*
X143079666Y-91560650D02*
X143079666Y-91092866D01*
D10*
X153987499Y-114806211D02*
X153555699Y-114806211D01*
X153771599Y-114806211D02*
X153771599Y-114050561D01*
X153771599Y-114050561D02*
X153699632Y-114158511D01*
X153699632Y-114158511D02*
X153627666Y-114230478D01*
X153627666Y-114230478D02*
X153555699Y-114266461D01*
X154275366Y-114122528D02*
X154311349Y-114086545D01*
X154311349Y-114086545D02*
X154383316Y-114050561D01*
X154383316Y-114050561D02*
X154563233Y-114050561D01*
X154563233Y-114050561D02*
X154635199Y-114086545D01*
X154635199Y-114086545D02*
X154671183Y-114122528D01*
X154671183Y-114122528D02*
X154707166Y-114194495D01*
X154707166Y-114194495D02*
X154707166Y-114266461D01*
X154707166Y-114266461D02*
X154671183Y-114374411D01*
X154671183Y-114374411D02*
X154239383Y-114806211D01*
X154239383Y-114806211D02*
X154707166Y-114806211D01*
X153555699Y-91262528D02*
X153591682Y-91226545D01*
X153591682Y-91226545D02*
X153663649Y-91190561D01*
X153663649Y-91190561D02*
X153843566Y-91190561D01*
X153843566Y-91190561D02*
X153915532Y-91226545D01*
X153915532Y-91226545D02*
X153951516Y-91262528D01*
X153951516Y-91262528D02*
X153987499Y-91334495D01*
X153987499Y-91334495D02*
X153987499Y-91406461D01*
X153987499Y-91406461D02*
X153951516Y-91514411D01*
X153951516Y-91514411D02*
X153519716Y-91946211D01*
X153519716Y-91946211D02*
X153987499Y-91946211D01*
X154635199Y-91442445D02*
X154635199Y-91946211D01*
X154455283Y-91154578D02*
X154275366Y-91694328D01*
X154275366Y-91694328D02*
X154743149Y-91694328D01*
X142436850Y-121670561D02*
X142904633Y-121670561D01*
X142904633Y-121670561D02*
X142652750Y-121958428D01*
X142652750Y-121958428D02*
X142760700Y-121958428D01*
X142760700Y-121958428D02*
X142832666Y-121994411D01*
X142832666Y-121994411D02*
X142868650Y-122030395D01*
X142868650Y-122030395D02*
X142904633Y-122102361D01*
X142904633Y-122102361D02*
X142904633Y-122282278D01*
X142904633Y-122282278D02*
X142868650Y-122354245D01*
X142868650Y-122354245D02*
X142832666Y-122390228D01*
X142832666Y-122390228D02*
X142760700Y-122426211D01*
X142760700Y-122426211D02*
X142544800Y-122426211D01*
X142544800Y-122426211D02*
X142472833Y-122390228D01*
X142472833Y-122390228D02*
X142436850Y-122354245D01*
X143120533Y-121670561D02*
X143372417Y-122426211D01*
X143372417Y-122426211D02*
X143624300Y-121670561D01*
X143804217Y-121670561D02*
X144272000Y-121670561D01*
X144272000Y-121670561D02*
X144020117Y-121958428D01*
X144020117Y-121958428D02*
X144128067Y-121958428D01*
X144128067Y-121958428D02*
X144200033Y-121994411D01*
X144200033Y-121994411D02*
X144236017Y-122030395D01*
X144236017Y-122030395D02*
X144272000Y-122102361D01*
X144272000Y-122102361D02*
X144272000Y-122282278D01*
X144272000Y-122282278D02*
X144236017Y-122354245D01*
X144236017Y-122354245D02*
X144200033Y-122390228D01*
X144200033Y-122390228D02*
X144128067Y-122426211D01*
X144128067Y-122426211D02*
X143912167Y-122426211D01*
X143912167Y-122426211D02*
X143840200Y-122390228D01*
X143840200Y-122390228D02*
X143804217Y-122354245D01*
D11*
X148222466Y-106144016D02*
X148474350Y-106899666D01*
X148474350Y-106899666D02*
X148726233Y-106144016D01*
X148978116Y-106899666D02*
X148978116Y-106144016D01*
X148978116Y-106144016D02*
X149158033Y-106144016D01*
X149158033Y-106144016D02*
X149265983Y-106180000D01*
X149265983Y-106180000D02*
X149337950Y-106251966D01*
X149337950Y-106251966D02*
X149373933Y-106323933D01*
X149373933Y-106323933D02*
X149409916Y-106467866D01*
X149409916Y-106467866D02*
X149409916Y-106575816D01*
X149409916Y-106575816D02*
X149373933Y-106719750D01*
X149373933Y-106719750D02*
X149337950Y-106791716D01*
X149337950Y-106791716D02*
X149265983Y-106863683D01*
X149265983Y-106863683D02*
X149158033Y-106899666D01*
X149158033Y-106899666D02*
X148978116Y-106899666D01*
X149733766Y-106899666D02*
X149733766Y-106144016D01*
X149733766Y-106144016D02*
X149913683Y-106144016D01*
X149913683Y-106144016D02*
X150021633Y-106180000D01*
X150021633Y-106180000D02*
X150093600Y-106251966D01*
X150093600Y-106251966D02*
X150129583Y-106323933D01*
X150129583Y-106323933D02*
X150165566Y-106467866D01*
X150165566Y-106467866D02*
X150165566Y-106575816D01*
X150165566Y-106575816D02*
X150129583Y-106719750D01*
X150129583Y-106719750D02*
X150093600Y-106791716D01*
X150093600Y-106791716D02*
X150021633Y-106863683D01*
X150021633Y-106863683D02*
X149913683Y-106899666D01*
X149913683Y-106899666D02*
X149733766Y-106899666D01*
D10*
X153555699Y-101422528D02*
X153591682Y-101386545D01*
X153591682Y-101386545D02*
X153663649Y-101350561D01*
X153663649Y-101350561D02*
X153843566Y-101350561D01*
X153843566Y-101350561D02*
X153915532Y-101386545D01*
X153915532Y-101386545D02*
X153951516Y-101422528D01*
X153951516Y-101422528D02*
X153987499Y-101494495D01*
X153987499Y-101494495D02*
X153987499Y-101566461D01*
X153987499Y-101566461D02*
X153951516Y-101674411D01*
X153951516Y-101674411D02*
X153519716Y-102106211D01*
X153519716Y-102106211D02*
X153987499Y-102106211D01*
X154455283Y-101350561D02*
X154527249Y-101350561D01*
X154527249Y-101350561D02*
X154599216Y-101386545D01*
X154599216Y-101386545D02*
X154635199Y-101422528D01*
X154635199Y-101422528D02*
X154671183Y-101494495D01*
X154671183Y-101494495D02*
X154707166Y-101638428D01*
X154707166Y-101638428D02*
X154707166Y-101818345D01*
X154707166Y-101818345D02*
X154671183Y-101962278D01*
X154671183Y-101962278D02*
X154635199Y-102034245D01*
X154635199Y-102034245D02*
X154599216Y-102070228D01*
X154599216Y-102070228D02*
X154527249Y-102106211D01*
X154527249Y-102106211D02*
X154455283Y-102106211D01*
X154455283Y-102106211D02*
X154383316Y-102070228D01*
X154383316Y-102070228D02*
X154347333Y-102034245D01*
X154347333Y-102034245D02*
X154311349Y-101962278D01*
X154311349Y-101962278D02*
X154275366Y-101818345D01*
X154275366Y-101818345D02*
X154275366Y-101638428D01*
X154275366Y-101638428D02*
X154311349Y-101494495D01*
X154311349Y-101494495D02*
X154347333Y-101422528D01*
X154347333Y-101422528D02*
X154383316Y-101386545D01*
X154383316Y-101386545D02*
X154455283Y-101350561D01*
X142472833Y-93802528D02*
X142508816Y-93766545D01*
X142508816Y-93766545D02*
X142580783Y-93730561D01*
X142580783Y-93730561D02*
X142760700Y-93730561D01*
X142760700Y-93730561D02*
X142832666Y-93766545D01*
X142832666Y-93766545D02*
X142868650Y-93802528D01*
X142868650Y-93802528D02*
X142904633Y-93874495D01*
X142904633Y-93874495D02*
X142904633Y-93946461D01*
X142904633Y-93946461D02*
X142868650Y-94054411D01*
X142868650Y-94054411D02*
X142436850Y-94486211D01*
X142436850Y-94486211D02*
X142904633Y-94486211D01*
X143336433Y-94054411D02*
X143264467Y-94018428D01*
X143264467Y-94018428D02*
X143228483Y-93982445D01*
X143228483Y-93982445D02*
X143192500Y-93910478D01*
X143192500Y-93910478D02*
X143192500Y-93874495D01*
X143192500Y-93874495D02*
X143228483Y-93802528D01*
X143228483Y-93802528D02*
X143264467Y-93766545D01*
X143264467Y-93766545D02*
X143336433Y-93730561D01*
X143336433Y-93730561D02*
X143480367Y-93730561D01*
X143480367Y-93730561D02*
X143552333Y-93766545D01*
X143552333Y-93766545D02*
X143588317Y-93802528D01*
X143588317Y-93802528D02*
X143624300Y-93874495D01*
X143624300Y-93874495D02*
X143624300Y-93910478D01*
X143624300Y-93910478D02*
X143588317Y-93982445D01*
X143588317Y-93982445D02*
X143552333Y-94018428D01*
X143552333Y-94018428D02*
X143480367Y-94054411D01*
X143480367Y-94054411D02*
X143336433Y-94054411D01*
X143336433Y-94054411D02*
X143264467Y-94090395D01*
X143264467Y-94090395D02*
X143228483Y-94126378D01*
X143228483Y-94126378D02*
X143192500Y-94198345D01*
X143192500Y-94198345D02*
X143192500Y-94342278D01*
X143192500Y-94342278D02*
X143228483Y-94414245D01*
X143228483Y-94414245D02*
X143264467Y-94450228D01*
X143264467Y-94450228D02*
X143336433Y-94486211D01*
X143336433Y-94486211D02*
X143480367Y-94486211D01*
X143480367Y-94486211D02*
X143552333Y-94450228D01*
X143552333Y-94450228D02*
X143588317Y-94414245D01*
X143588317Y-94414245D02*
X143624300Y-94342278D01*
X143624300Y-94342278D02*
X143624300Y-94198345D01*
X143624300Y-94198345D02*
X143588317Y-94126378D01*
X143588317Y-94126378D02*
X143552333Y-94090395D01*
X143552333Y-94090395D02*
X143480367Y-94054411D01*
X142652750Y-114050561D02*
X142724716Y-114050561D01*
X142724716Y-114050561D02*
X142796683Y-114086545D01*
X142796683Y-114086545D02*
X142832666Y-114122528D01*
X142832666Y-114122528D02*
X142868650Y-114194495D01*
X142868650Y-114194495D02*
X142904633Y-114338428D01*
X142904633Y-114338428D02*
X142904633Y-114518345D01*
X142904633Y-114518345D02*
X142868650Y-114662278D01*
X142868650Y-114662278D02*
X142832666Y-114734245D01*
X142832666Y-114734245D02*
X142796683Y-114770228D01*
X142796683Y-114770228D02*
X142724716Y-114806211D01*
X142724716Y-114806211D02*
X142652750Y-114806211D01*
X142652750Y-114806211D02*
X142580783Y-114770228D01*
X142580783Y-114770228D02*
X142544800Y-114734245D01*
X142544800Y-114734245D02*
X142508816Y-114662278D01*
X142508816Y-114662278D02*
X142472833Y-114518345D01*
X142472833Y-114518345D02*
X142472833Y-114338428D01*
X142472833Y-114338428D02*
X142508816Y-114194495D01*
X142508816Y-114194495D02*
X142544800Y-114122528D01*
X142544800Y-114122528D02*
X142580783Y-114086545D01*
X142580783Y-114086545D02*
X142652750Y-114050561D01*
X143156517Y-114050561D02*
X143660283Y-114050561D01*
X143660283Y-114050561D02*
X143336433Y-114806211D01*
X153987499Y-117346211D02*
X153555699Y-117346211D01*
X153771599Y-117346211D02*
X153771599Y-116590561D01*
X153771599Y-116590561D02*
X153699632Y-116698511D01*
X153699632Y-116698511D02*
X153627666Y-116770478D01*
X153627666Y-116770478D02*
X153555699Y-116806461D01*
X154707166Y-117346211D02*
X154275366Y-117346211D01*
X154491266Y-117346211D02*
X154491266Y-116590561D01*
X154491266Y-116590561D02*
X154419299Y-116698511D01*
X154419299Y-116698511D02*
X154347333Y-116770478D01*
X154347333Y-116770478D02*
X154275366Y-116806461D01*
X153584599Y-98873928D02*
X153620582Y-98837945D01*
X153620582Y-98837945D02*
X153692549Y-98801961D01*
X153692549Y-98801961D02*
X153872466Y-98801961D01*
X153872466Y-98801961D02*
X153944432Y-98837945D01*
X153944432Y-98837945D02*
X153980416Y-98873928D01*
X153980416Y-98873928D02*
X154016399Y-98945895D01*
X154016399Y-98945895D02*
X154016399Y-99017861D01*
X154016399Y-99017861D02*
X153980416Y-99125811D01*
X153980416Y-99125811D02*
X153548616Y-99557611D01*
X153548616Y-99557611D02*
X154016399Y-99557611D01*
X154736066Y-99557611D02*
X154304266Y-99557611D01*
X154520166Y-99557611D02*
X154520166Y-98801961D01*
X154520166Y-98801961D02*
X154448199Y-98909911D01*
X154448199Y-98909911D02*
X154376233Y-98981878D01*
X154376233Y-98981878D02*
X154304266Y-99017861D01*
X153987499Y-112266211D02*
X153555699Y-112266211D01*
X153771599Y-112266211D02*
X153771599Y-111510561D01*
X153771599Y-111510561D02*
X153699632Y-111618511D01*
X153699632Y-111618511D02*
X153627666Y-111690478D01*
X153627666Y-111690478D02*
X153555699Y-111726461D01*
X154239383Y-111510561D02*
X154707166Y-111510561D01*
X154707166Y-111510561D02*
X154455283Y-111798428D01*
X154455283Y-111798428D02*
X154563233Y-111798428D01*
X154563233Y-111798428D02*
X154635199Y-111834411D01*
X154635199Y-111834411D02*
X154671183Y-111870395D01*
X154671183Y-111870395D02*
X154707166Y-111942361D01*
X154707166Y-111942361D02*
X154707166Y-112122278D01*
X154707166Y-112122278D02*
X154671183Y-112194245D01*
X154671183Y-112194245D02*
X154635199Y-112230228D01*
X154635199Y-112230228D02*
X154563233Y-112266211D01*
X154563233Y-112266211D02*
X154347333Y-112266211D01*
X154347333Y-112266211D02*
X154275366Y-112230228D01*
X154275366Y-112230228D02*
X154239383Y-112194245D01*
D12*
G04 #@! TO.C,J5*
X145080000Y-112370000D02*
X145080000Y-111040000D01*
X146410000Y-112370000D02*
X145080000Y-112370000D01*
X147680000Y-112370000D02*
X152820000Y-112370000D01*
X147680000Y-112370000D02*
X147680000Y-109710000D01*
X152820000Y-112370000D02*
X152820000Y-109710000D01*
X147680000Y-109710000D02*
X152820000Y-109710000D01*
G04 #@! TO.C,C2*
X152210000Y-124509420D02*
X152210000Y-124790580D01*
X151190000Y-124509420D02*
X151190000Y-124790580D01*
D13*
G04 #@! TO.C,J4*
X155515000Y-128490000D02*
X156785000Y-128490000D01*
X156785000Y-128490000D02*
X157420000Y-127855000D01*
X154880000Y-127855000D02*
X155515000Y-128490000D01*
X154880000Y-127855000D02*
X154880000Y-126585000D01*
X154880000Y-126585000D02*
X155515000Y-125950000D01*
X157420000Y-126585000D02*
X157420000Y-127855000D01*
X155515000Y-125950000D02*
X154880000Y-125315000D01*
X156785000Y-125950000D02*
X157420000Y-126585000D01*
X154880000Y-125315000D02*
X154880000Y-124045000D01*
X157420000Y-125315000D02*
X156785000Y-125950000D01*
X154880000Y-124045000D02*
X155515000Y-123410000D01*
X157420000Y-124045000D02*
X157420000Y-125315000D01*
X155515000Y-123410000D02*
X154880000Y-122775000D01*
X156785000Y-123410000D02*
X157420000Y-124045000D01*
X154880000Y-122775000D02*
X154880000Y-121505000D01*
X157420000Y-122775000D02*
X156785000Y-123410000D01*
X154880000Y-121505000D02*
X155515000Y-120870000D01*
X157420000Y-121505000D02*
X157420000Y-122775000D01*
X156785000Y-120870000D02*
X157420000Y-121505000D01*
X156785000Y-120870000D02*
X157420000Y-120235000D01*
X154880000Y-120235000D02*
X155515000Y-120870000D01*
X154880000Y-120235000D02*
X154880000Y-118965000D01*
X154880000Y-118965000D02*
X155515000Y-118330000D01*
X157420000Y-118965000D02*
X157420000Y-120235000D01*
X155515000Y-118330000D02*
X154880000Y-117695000D01*
X156785000Y-118330000D02*
X157420000Y-118965000D01*
X154880000Y-117695000D02*
X154880000Y-116425000D01*
X157420000Y-117695000D02*
X156785000Y-118330000D01*
X154880000Y-116425000D02*
X155515000Y-115790000D01*
X157420000Y-116425000D02*
X157420000Y-117695000D01*
X155515000Y-115790000D02*
X154880000Y-115155000D01*
X156785000Y-115790000D02*
X157420000Y-116425000D01*
X154880000Y-115155000D02*
X154880000Y-113885000D01*
X157420000Y-115155000D02*
X156785000Y-115790000D01*
X154880000Y-113885000D02*
X155515000Y-113250000D01*
X157420000Y-113885000D02*
X157420000Y-115155000D01*
X156785000Y-113250000D02*
X157420000Y-113885000D01*
X156785000Y-113250000D02*
X157420000Y-112615000D01*
X154880000Y-112615000D02*
X155515000Y-113250000D01*
X154880000Y-112615000D02*
X154880000Y-111345000D01*
X154880000Y-111345000D02*
X155515000Y-110710000D01*
X157420000Y-111345000D02*
X157420000Y-112615000D01*
X156785000Y-110710000D02*
X157420000Y-111345000D01*
X156785000Y-110710000D02*
X157420000Y-110075000D01*
X154880000Y-110075000D02*
X155515000Y-110710000D01*
X154880000Y-110075000D02*
X154880000Y-108805000D01*
X154880000Y-108805000D02*
X155515000Y-108170000D01*
X157420000Y-108805000D02*
X157420000Y-110075000D01*
X155515000Y-108170000D02*
X154880000Y-107535000D01*
X156785000Y-108170000D02*
X157420000Y-108805000D01*
X154880000Y-107535000D02*
X154880000Y-106265000D01*
X157420000Y-107535000D02*
X156785000Y-108170000D01*
X154880000Y-106265000D02*
X155515000Y-105630000D01*
X157420000Y-106265000D02*
X157420000Y-107535000D01*
X155515000Y-105630000D02*
X154880000Y-104995000D01*
X156785000Y-105630000D02*
X157420000Y-106265000D01*
X154880000Y-104995000D02*
X154880000Y-103725000D01*
X157420000Y-104995000D02*
X156785000Y-105630000D01*
X154880000Y-103725000D02*
X155515000Y-103090000D01*
X157420000Y-103725000D02*
X157420000Y-104995000D01*
X156785000Y-103090000D02*
X157420000Y-103725000D01*
X156785000Y-103090000D02*
X157420000Y-102455000D01*
X154880000Y-102455000D02*
X155515000Y-103090000D01*
X154880000Y-102455000D02*
X154880000Y-101185000D01*
X154880000Y-101185000D02*
X155515000Y-100550000D01*
X157420000Y-101185000D02*
X157420000Y-102455000D01*
X155515000Y-100550000D02*
X154880000Y-99915000D01*
X156785000Y-100550000D02*
X157420000Y-101185000D01*
X154880000Y-99915000D02*
X154880000Y-98645000D01*
X157420000Y-99915000D02*
X156785000Y-100550000D01*
X154880000Y-98645000D02*
X155515000Y-98010000D01*
X157420000Y-98645000D02*
X157420000Y-99915000D01*
X155515000Y-98010000D02*
X154880000Y-97375000D01*
X156785000Y-98010000D02*
X157420000Y-98645000D01*
X154880000Y-97375000D02*
X154880000Y-96105000D01*
X157420000Y-97375000D02*
X156785000Y-98010000D01*
X154880000Y-96105000D02*
X155515000Y-95470000D01*
X157420000Y-96105000D02*
X157420000Y-97375000D01*
X156785000Y-95470000D02*
X157420000Y-96105000D01*
X156785000Y-95470000D02*
X157420000Y-94835000D01*
X154880000Y-94835000D02*
X155515000Y-95470000D01*
X154880000Y-94835000D02*
X154880000Y-93565000D01*
X154880000Y-93565000D02*
X155515000Y-92930000D01*
X157420000Y-93565000D02*
X157420000Y-94835000D01*
X156785000Y-92930000D02*
X157420000Y-93565000D01*
X156785000Y-92930000D02*
X157420000Y-92295000D01*
X154880000Y-92295000D02*
X155515000Y-92930000D01*
X154880000Y-92295000D02*
X154880000Y-91025000D01*
X154880000Y-91025000D02*
X155515000Y-90390000D01*
X157420000Y-91025000D02*
X157420000Y-92295000D01*
X156785000Y-90390000D02*
X157420000Y-91025000D01*
X156785000Y-90390000D02*
X157420000Y-89755000D01*
X154880000Y-89755000D02*
X155515000Y-90390000D01*
X154880000Y-89755000D02*
X154880000Y-88485000D01*
X154880000Y-88485000D02*
X155515000Y-87850000D01*
X157420000Y-88485000D02*
X157420000Y-89755000D01*
X156785000Y-87850000D02*
X157420000Y-88485000D01*
X156785000Y-87850000D02*
X157420000Y-87215000D01*
X154880000Y-87215000D02*
X155515000Y-87850000D01*
X154880000Y-87215000D02*
X154880000Y-85945000D01*
X154880000Y-85945000D02*
X155515000Y-85310000D01*
X157420000Y-85945000D02*
X157420000Y-87215000D01*
X155515000Y-85310000D02*
X156785000Y-85310000D01*
X156785000Y-85310000D02*
X157420000Y-85945000D01*
G04 #@! TO.C,J1*
X140860000Y-129115000D02*
X140860000Y-130385000D01*
X140860000Y-130385000D02*
X141495000Y-131020000D01*
X141495000Y-128480000D02*
X140860000Y-129115000D01*
X141495000Y-128480000D02*
X142765000Y-128480000D01*
X142765000Y-128480000D02*
X143400000Y-129115000D01*
X142765000Y-131020000D02*
X141495000Y-131020000D01*
X143400000Y-129115000D02*
X144035000Y-128480000D01*
X143400000Y-130385000D02*
X142765000Y-131020000D01*
X144035000Y-128480000D02*
X145305000Y-128480000D01*
X144035000Y-131020000D02*
X143400000Y-130385000D01*
X145305000Y-128480000D02*
X145940000Y-129115000D01*
X145305000Y-131020000D02*
X144035000Y-131020000D01*
X145940000Y-129115000D02*
X146575000Y-128480000D01*
X145940000Y-130385000D02*
X145305000Y-131020000D01*
X146575000Y-128480000D02*
X147845000Y-128480000D01*
X146575000Y-131020000D02*
X145940000Y-130385000D01*
X147845000Y-128480000D02*
X148480000Y-129115000D01*
X147845000Y-131020000D02*
X146575000Y-131020000D01*
X148480000Y-130385000D02*
X147845000Y-131020000D01*
X148480000Y-130385000D02*
X149115000Y-131020000D01*
X149115000Y-128480000D02*
X148480000Y-129115000D01*
X149115000Y-128480000D02*
X150385000Y-128480000D01*
X150385000Y-128480000D02*
X151020000Y-129115000D01*
X150385000Y-131020000D02*
X149115000Y-131020000D01*
X151020000Y-129115000D02*
X151655000Y-128480000D01*
X151020000Y-130385000D02*
X150385000Y-131020000D01*
X151655000Y-128480000D02*
X152925000Y-128480000D01*
X151655000Y-131020000D02*
X151020000Y-130385000D01*
X152925000Y-128480000D02*
X153560000Y-129115000D01*
X152925000Y-131020000D02*
X151655000Y-131020000D01*
X153560000Y-129115000D02*
X154195000Y-128480000D01*
X153560000Y-130385000D02*
X152925000Y-131020000D01*
X154195000Y-128480000D02*
X155465000Y-128480000D01*
X154195000Y-131020000D02*
X153560000Y-130385000D01*
X155465000Y-128480000D02*
X156100000Y-129115000D01*
X155465000Y-131020000D02*
X154195000Y-131020000D01*
X156100000Y-129115000D02*
X156100000Y-130385000D01*
X156100000Y-130385000D02*
X155465000Y-131020000D01*
D12*
G04 #@! TO.C,C10*
X144387836Y-91880000D02*
X144172164Y-91880000D01*
X144387836Y-91160000D02*
X144172164Y-91160000D01*
D13*
G04 #@! TO.C,SW1*
X145820000Y-121725000D02*
X146080000Y-121725000D01*
X144550000Y-120963000D02*
X144550000Y-118287000D01*
X147350000Y-118287000D02*
X147350000Y-120963000D01*
X146080000Y-117525000D02*
X145820000Y-117525000D01*
D14*
X146755000Y-119625000D02*
G75*
G03*
X146755000Y-119625000I-805000J0D01*
G01*
G04 #@! TO.C,LOGO1*
G36*
X148687328Y-115926674D02*
G01*
X148703970Y-115934995D01*
X148713971Y-115934995D01*
X148733970Y-115944995D01*
X148743971Y-115944995D01*
X148763970Y-115954995D01*
X148790740Y-115954995D01*
X148807510Y-115971765D01*
X148813970Y-115974995D01*
X148823971Y-115974995D01*
X148857510Y-115991765D01*
X148867510Y-116001765D01*
X148873970Y-116004995D01*
X148883971Y-116004995D01*
X148906113Y-116016067D01*
X149198903Y-115814143D01*
X149475214Y-116078441D01*
X149262252Y-116372531D01*
X149266230Y-116380485D01*
X149283000Y-116397255D01*
X149283000Y-116417255D01*
X149286230Y-116420485D01*
X149296230Y-116440485D01*
X149313000Y-116457255D01*
X149313000Y-116477255D01*
X149323000Y-116487255D01*
X149323000Y-116514025D01*
X149326230Y-116520485D01*
X149343000Y-116537255D01*
X149343000Y-116557255D01*
X149353000Y-116567255D01*
X149353000Y-116590804D01*
X149713000Y-116650804D01*
X149713000Y-117035034D01*
X149353000Y-117096749D01*
X149353000Y-117101965D01*
X149343000Y-117121964D01*
X149343000Y-117131965D01*
X149333000Y-117151964D01*
X149333000Y-117161965D01*
X149313000Y-117201964D01*
X149313000Y-117211965D01*
X149296230Y-117245504D01*
X149286230Y-117255504D01*
X149283000Y-117261964D01*
X149283000Y-117271965D01*
X149266230Y-117305504D01*
X149260888Y-117310845D01*
X149475174Y-117596560D01*
X149199486Y-117872248D01*
X148903567Y-117668166D01*
X148890740Y-117680994D01*
X148880740Y-117680994D01*
X148870740Y-117690994D01*
X148850740Y-117690994D01*
X148840740Y-117700994D01*
X148830740Y-117700994D01*
X148820740Y-117710994D01*
X148810740Y-117710994D01*
X148803000Y-117718734D01*
X148803000Y-117905005D01*
X148517532Y-117134242D01*
X148602490Y-117091763D01*
X148622490Y-117071764D01*
X148642490Y-117061764D01*
X148673770Y-117030484D01*
X148683770Y-117010484D01*
X148703770Y-116990484D01*
X148709803Y-116978417D01*
X148719804Y-116948415D01*
X148727000Y-116934024D01*
X148727000Y-116916827D01*
X148737000Y-116886827D01*
X148737000Y-116809162D01*
X148727000Y-116779162D01*
X148727000Y-116754501D01*
X148710559Y-116729839D01*
X148700559Y-116699841D01*
X148665467Y-116647203D01*
X148630791Y-116612526D01*
X148578155Y-116577436D01*
X148548156Y-116567436D01*
X148523494Y-116550995D01*
X148498833Y-116550995D01*
X148468833Y-116540995D01*
X148409676Y-116540995D01*
X148369678Y-116550995D01*
X148346506Y-116550995D01*
X148321844Y-116567436D01*
X148291845Y-116577436D01*
X148269208Y-116592527D01*
X148249209Y-116612526D01*
X148219209Y-116632527D01*
X148204533Y-116647203D01*
X148169441Y-116699841D01*
X148133000Y-116809162D01*
X148133000Y-116856827D01*
X148143000Y-116886827D01*
X148143000Y-116914024D01*
X148160196Y-116948415D01*
X148170197Y-116978417D01*
X148186230Y-117010484D01*
X148206230Y-117030484D01*
X148216230Y-117050484D01*
X148227510Y-117061764D01*
X148247510Y-117071764D01*
X148267510Y-117091764D01*
X148299576Y-117107796D01*
X148364275Y-117129363D01*
X148130046Y-117761780D01*
X148089260Y-117720994D01*
X148069260Y-117720994D01*
X148059260Y-117710994D01*
X148049260Y-117710994D01*
X148039260Y-117700994D01*
X148029260Y-117700994D01*
X148019260Y-117690994D01*
X148009260Y-117690994D01*
X147999260Y-117680994D01*
X147989260Y-117680994D01*
X147979260Y-117670994D01*
X147969260Y-117670994D01*
X147966433Y-117668166D01*
X147669920Y-117872658D01*
X147405785Y-117596517D01*
X147610780Y-117309524D01*
X147607000Y-117301965D01*
X147607000Y-117291964D01*
X147603770Y-117285504D01*
X147593770Y-117275504D01*
X147583770Y-117255504D01*
X147567000Y-117238734D01*
X147567000Y-117218734D01*
X147557000Y-117208734D01*
X147557000Y-117181964D01*
X147553770Y-117175504D01*
X147537000Y-117158734D01*
X147537000Y-117138734D01*
X147527000Y-117128734D01*
X147527000Y-117101964D01*
X147524148Y-117096259D01*
X147167000Y-117035034D01*
X147167000Y-116650955D01*
X147518679Y-116590667D01*
X147527000Y-116574025D01*
X147527000Y-116564024D01*
X147537000Y-116544025D01*
X147537000Y-116534024D01*
X147557000Y-116494025D01*
X147557000Y-116484024D01*
X147573770Y-116450485D01*
X147577000Y-116447255D01*
X147577000Y-116427255D01*
X147593770Y-116410485D01*
X147603770Y-116390485D01*
X147607000Y-116387255D01*
X147607000Y-116370328D01*
X147405746Y-116078509D01*
X147670514Y-115813741D01*
X147966433Y-116017823D01*
X147979260Y-116004995D01*
X147999260Y-116004995D01*
X148002490Y-116001765D01*
X148022490Y-115991765D01*
X148039260Y-115974995D01*
X148059260Y-115974995D01*
X148062490Y-115971765D01*
X148096029Y-115954995D01*
X148106030Y-115954995D01*
X148126029Y-115944995D01*
X148139260Y-115944995D01*
X148149260Y-115934995D01*
X148176030Y-115934995D01*
X148181735Y-115932143D01*
X148242960Y-115574995D01*
X148627040Y-115574995D01*
X148687328Y-115926674D01*
G37*
D12*
G04 #@! TO.C,C9*
X144397836Y-88300000D02*
X144182164Y-88300000D01*
X144397836Y-87580000D02*
X144182164Y-87580000D01*
G04 #@! TO.C,C17*
X145210000Y-100534420D02*
X145210000Y-100815580D01*
X144190000Y-100534420D02*
X144190000Y-100815580D01*
D13*
G04 #@! TO.C,J3*
X140240000Y-128470000D02*
X141510000Y-128470000D01*
X141510000Y-128470000D02*
X142145000Y-127835000D01*
X139605000Y-127835000D02*
X140240000Y-128470000D01*
X139605000Y-127835000D02*
X139605000Y-126565000D01*
X139605000Y-126565000D02*
X140240000Y-125930000D01*
X142145000Y-126565000D02*
X142145000Y-127835000D01*
X140240000Y-125930000D02*
X139605000Y-125295000D01*
X141510000Y-125930000D02*
X142145000Y-126565000D01*
X139605000Y-125295000D02*
X139605000Y-124025000D01*
X142145000Y-125295000D02*
X141510000Y-125930000D01*
X139605000Y-124025000D02*
X140240000Y-123390000D01*
X142145000Y-124025000D02*
X142145000Y-125295000D01*
X140240000Y-123390000D02*
X139605000Y-122755000D01*
X141510000Y-123390000D02*
X142145000Y-124025000D01*
X139605000Y-122755000D02*
X139605000Y-121485000D01*
X142145000Y-122755000D02*
X141510000Y-123390000D01*
X139605000Y-121485000D02*
X140240000Y-120850000D01*
X142145000Y-121485000D02*
X142145000Y-122755000D01*
X141510000Y-120850000D02*
X142145000Y-121485000D01*
X141510000Y-120850000D02*
X142145000Y-120215000D01*
X139605000Y-120215000D02*
X140240000Y-120850000D01*
X139605000Y-120215000D02*
X139605000Y-118945000D01*
X139605000Y-118945000D02*
X140240000Y-118310000D01*
X142145000Y-118945000D02*
X142145000Y-120215000D01*
X140240000Y-118310000D02*
X139605000Y-117675000D01*
X141510000Y-118310000D02*
X142145000Y-118945000D01*
X139605000Y-117675000D02*
X139605000Y-116405000D01*
X142145000Y-117675000D02*
X141510000Y-118310000D01*
X139605000Y-116405000D02*
X140240000Y-115770000D01*
X142145000Y-116405000D02*
X142145000Y-117675000D01*
X140240000Y-115770000D02*
X139605000Y-115135000D01*
X141510000Y-115770000D02*
X142145000Y-116405000D01*
X139605000Y-115135000D02*
X139605000Y-113865000D01*
X142145000Y-115135000D02*
X141510000Y-115770000D01*
X139605000Y-113865000D02*
X140240000Y-113230000D01*
X142145000Y-113865000D02*
X142145000Y-115135000D01*
X141510000Y-113230000D02*
X142145000Y-113865000D01*
X141510000Y-113230000D02*
X142145000Y-112595000D01*
X139605000Y-112595000D02*
X140240000Y-113230000D01*
X139605000Y-112595000D02*
X139605000Y-111325000D01*
X139605000Y-111325000D02*
X140240000Y-110690000D01*
X142145000Y-111325000D02*
X142145000Y-112595000D01*
X141510000Y-110690000D02*
X142145000Y-111325000D01*
X141510000Y-110690000D02*
X142145000Y-110055000D01*
X139605000Y-110055000D02*
X140240000Y-110690000D01*
X139605000Y-110055000D02*
X139605000Y-108785000D01*
X139605000Y-108785000D02*
X140240000Y-108150000D01*
X142145000Y-108785000D02*
X142145000Y-110055000D01*
X140240000Y-108150000D02*
X139605000Y-107515000D01*
X141510000Y-108150000D02*
X142145000Y-108785000D01*
X139605000Y-107515000D02*
X139605000Y-106245000D01*
X142145000Y-107515000D02*
X141510000Y-108150000D01*
X139605000Y-106245000D02*
X140240000Y-105610000D01*
X142145000Y-106245000D02*
X142145000Y-107515000D01*
X140240000Y-105610000D02*
X139605000Y-104975000D01*
X141510000Y-105610000D02*
X142145000Y-106245000D01*
X139605000Y-104975000D02*
X139605000Y-103705000D01*
X142145000Y-104975000D02*
X141510000Y-105610000D01*
X139605000Y-103705000D02*
X140240000Y-103070000D01*
X142145000Y-103705000D02*
X142145000Y-104975000D01*
X141510000Y-103070000D02*
X142145000Y-103705000D01*
X141510000Y-103070000D02*
X142145000Y-102435000D01*
X139605000Y-102435000D02*
X140240000Y-103070000D01*
X139605000Y-102435000D02*
X139605000Y-101165000D01*
X139605000Y-101165000D02*
X140240000Y-100530000D01*
X142145000Y-101165000D02*
X142145000Y-102435000D01*
X140240000Y-100530000D02*
X139605000Y-99895000D01*
X141510000Y-100530000D02*
X142145000Y-101165000D01*
X139605000Y-99895000D02*
X139605000Y-98625000D01*
X142145000Y-99895000D02*
X141510000Y-100530000D01*
X139605000Y-98625000D02*
X140240000Y-97990000D01*
X142145000Y-98625000D02*
X142145000Y-99895000D01*
X140240000Y-97990000D02*
X139605000Y-97355000D01*
X141510000Y-97990000D02*
X142145000Y-98625000D01*
X139605000Y-97355000D02*
X139605000Y-96085000D01*
X142145000Y-97355000D02*
X141510000Y-97990000D01*
X139605000Y-96085000D02*
X140240000Y-95450000D01*
X142145000Y-96085000D02*
X142145000Y-97355000D01*
X141510000Y-95450000D02*
X142145000Y-96085000D01*
X141510000Y-95450000D02*
X142145000Y-94815000D01*
X139605000Y-94815000D02*
X140240000Y-95450000D01*
X139605000Y-94815000D02*
X139605000Y-93545000D01*
X139605000Y-93545000D02*
X140240000Y-92910000D01*
X142145000Y-93545000D02*
X142145000Y-94815000D01*
X141510000Y-92910000D02*
X142145000Y-93545000D01*
X141510000Y-92910000D02*
X142145000Y-92275000D01*
X139605000Y-92275000D02*
X140240000Y-92910000D01*
X139605000Y-92275000D02*
X139605000Y-91005000D01*
X139605000Y-91005000D02*
X140240000Y-90370000D01*
X142145000Y-91005000D02*
X142145000Y-92275000D01*
X141510000Y-90370000D02*
X142145000Y-91005000D01*
X141510000Y-90370000D02*
X142145000Y-89735000D01*
X139605000Y-89735000D02*
X140240000Y-90370000D01*
X139605000Y-89735000D02*
X139605000Y-88465000D01*
X139605000Y-88465000D02*
X140240000Y-87830000D01*
X142145000Y-88465000D02*
X142145000Y-89735000D01*
X141510000Y-87830000D02*
X142145000Y-88465000D01*
X141510000Y-87830000D02*
X142145000Y-87195000D01*
X139605000Y-87195000D02*
X140240000Y-87830000D01*
X139605000Y-87195000D02*
X139605000Y-85925000D01*
X139605000Y-85925000D02*
X140240000Y-85290000D01*
X142145000Y-85925000D02*
X142145000Y-87195000D01*
X140240000Y-85290000D02*
X141510000Y-85290000D01*
X141510000Y-85290000D02*
X142145000Y-85925000D01*
D12*
G04 #@! TO.C,C19*
X152670000Y-99812164D02*
X152670000Y-100027836D01*
X151950000Y-99812164D02*
X151950000Y-100027836D01*
G04 #@! TO.C,C6*
X145080000Y-97232164D02*
X145080000Y-97447836D01*
X144360000Y-97232164D02*
X144360000Y-97447836D01*
G04 #@! TO.C,D1*
X152472500Y-115065000D02*
X152472500Y-113595000D01*
X152472500Y-113595000D02*
X150187500Y-113595000D01*
X150187500Y-115065000D02*
X152472500Y-115065000D01*
G04 #@! TO.C,U1*
X148525000Y-123115000D02*
X146725000Y-123115000D01*
X148525000Y-123115000D02*
X149325000Y-123115000D01*
X148525000Y-126235000D02*
X147725000Y-126235000D01*
X148525000Y-126235000D02*
X149325000Y-126235000D01*
G04 #@! TO.C,U2*
X152230000Y-98590000D02*
X151680000Y-98590000D01*
X146010000Y-98040000D02*
X146010000Y-98590000D01*
X152230000Y-98040000D02*
X152230000Y-98590000D01*
X146010000Y-92920000D02*
X146010000Y-92370000D01*
X152230000Y-92920000D02*
X152230000Y-92370000D01*
X146010000Y-92370000D02*
X146560000Y-92370000D01*
X152230000Y-92370000D02*
X151680000Y-92370000D01*
D13*
G04 #@! TO.C,SW2*
X150920000Y-121725000D02*
X151180000Y-121725000D01*
X149650000Y-120963000D02*
X149650000Y-118287000D01*
X152450000Y-118287000D02*
X152450000Y-120963000D01*
X151180000Y-117525000D02*
X150920000Y-117525000D01*
D14*
X151855000Y-119625000D02*
G75*
G03*
X151855000Y-119625000I-805000J0D01*
G01*
D12*
G04 #@! TO.C,C18*
X152520000Y-91577836D02*
X152520000Y-91362164D01*
X153240000Y-91577836D02*
X153240000Y-91362164D01*
G04 #@! TO.C,D3*
X147417500Y-115025000D02*
X147417500Y-113555000D01*
X147417500Y-113555000D02*
X145132500Y-113555000D01*
X145132500Y-115025000D02*
X147417500Y-115025000D01*
G04 #@! TO.C,C11*
X149102164Y-90280000D02*
X149317836Y-90280000D01*
X149102164Y-91000000D02*
X149317836Y-91000000D01*
G04 #@! TO.C,C1*
X145610000Y-124539420D02*
X145610000Y-124820580D01*
X144590000Y-124539420D02*
X144590000Y-124820580D01*
G04 #@! TO.C,C5*
X146400000Y-88992164D02*
X146400000Y-89207836D01*
X145680000Y-88992164D02*
X145680000Y-89207836D01*
G04 #@! TO.C,J2*
X145160000Y-105260000D02*
X146490000Y-105260000D01*
X145160000Y-106590000D02*
X145160000Y-105260000D01*
X145160000Y-107860000D02*
X145160000Y-107920000D01*
X145160000Y-107860000D02*
X147820000Y-107860000D01*
X145160000Y-107920000D02*
X147820000Y-107920000D01*
X147820000Y-107860000D02*
X147820000Y-107920000D01*
G04 #@! TO.C,C16*
X144297836Y-93280000D02*
X144082164Y-93280000D01*
X144297836Y-92560000D02*
X144082164Y-92560000D01*
G04 #@! TO.C,G\u002A\u002A\u002A*
G36*
X151028000Y-84288525D02*
G01*
X151018544Y-84361579D01*
X150989515Y-84401057D01*
X150939915Y-84407764D01*
X150896115Y-84394907D01*
X150880299Y-84369302D01*
X150872290Y-84313514D01*
X150871692Y-84288988D01*
X150871692Y-84192924D01*
X151028000Y-84192924D01*
X151028000Y-84288525D01*
G37*
D15*
X151028000Y-84288525D02*
X151018544Y-84361579D01*
X150989515Y-84401057D01*
X150939915Y-84407764D01*
X150896115Y-84394907D01*
X150880299Y-84369302D01*
X150872290Y-84313514D01*
X150871692Y-84288988D01*
X150871692Y-84192924D01*
X151028000Y-84192924D01*
X151028000Y-84288525D01*
G36*
X151018231Y-85355462D02*
G01*
X150954596Y-85361595D01*
X150902766Y-85358466D01*
X150880909Y-85341529D01*
X150878116Y-85314761D01*
X150876140Y-85255218D01*
X150875051Y-85169196D01*
X150874920Y-85062989D01*
X150875817Y-84942893D01*
X150876158Y-84915319D01*
X150881461Y-84515308D01*
X151028769Y-84503134D01*
X151018231Y-85355462D01*
G37*
X151018231Y-85355462D02*
X150954596Y-85361595D01*
X150902766Y-85358466D01*
X150880909Y-85341529D01*
X150878116Y-85314761D01*
X150876140Y-85255218D01*
X150875051Y-85169196D01*
X150874920Y-85062989D01*
X150875817Y-84942893D01*
X150876158Y-84915319D01*
X150881461Y-84515308D01*
X151028769Y-84503134D01*
X151018231Y-85355462D01*
G36*
X147788733Y-85423682D02*
G01*
X147801063Y-85486075D01*
X147800236Y-85510080D01*
X147793625Y-85561490D01*
X147777850Y-85585753D01*
X147743832Y-85594800D01*
X147735067Y-85595734D01*
X147688737Y-85595702D01*
X147661798Y-85587593D01*
X147653195Y-85560938D01*
X147648285Y-85510745D01*
X147647846Y-85489347D01*
X147650831Y-85435003D01*
X147663967Y-85407204D01*
X147693522Y-85393613D01*
X147696946Y-85392729D01*
X147753707Y-85392202D01*
X147788733Y-85423682D01*
G37*
X147788733Y-85423682D02*
X147801063Y-85486075D01*
X147800236Y-85510080D01*
X147793625Y-85561490D01*
X147777850Y-85585753D01*
X147743832Y-85594800D01*
X147735067Y-85595734D01*
X147688737Y-85595702D01*
X147661798Y-85587593D01*
X147653195Y-85560938D01*
X147648285Y-85510745D01*
X147647846Y-85489347D01*
X147650831Y-85435003D01*
X147663967Y-85407204D01*
X147693522Y-85393613D01*
X147696946Y-85392729D01*
X147753707Y-85392202D01*
X147788733Y-85423682D01*
G36*
X145028008Y-84175675D02*
G01*
X145087809Y-84189309D01*
X145121137Y-84207577D01*
X145160212Y-84248102D01*
X145201701Y-84300302D01*
X145238854Y-84354261D01*
X145264923Y-84400064D01*
X145273158Y-84427798D01*
X145272414Y-84429826D01*
X145247154Y-84442198D01*
X145205306Y-84446924D01*
X145160198Y-84437116D01*
X145115920Y-84403018D01*
X145085058Y-84367649D01*
X145021351Y-84288375D01*
X144948152Y-84367649D01*
X144892914Y-84419473D01*
X144845506Y-84443343D01*
X144815553Y-84446924D01*
X144774070Y-84440688D01*
X144756170Y-84425635D01*
X144756154Y-84425118D01*
X144767097Y-84399197D01*
X144794941Y-84353441D01*
X144832209Y-84298550D01*
X144871423Y-84245230D01*
X144905103Y-84204183D01*
X144921586Y-84188338D01*
X144966377Y-84174751D01*
X145028008Y-84175675D01*
G37*
X145028008Y-84175675D02*
X145087809Y-84189309D01*
X145121137Y-84207577D01*
X145160212Y-84248102D01*
X145201701Y-84300302D01*
X145238854Y-84354261D01*
X145264923Y-84400064D01*
X145273158Y-84427798D01*
X145272414Y-84429826D01*
X145247154Y-84442198D01*
X145205306Y-84446924D01*
X145160198Y-84437116D01*
X145115920Y-84403018D01*
X145085058Y-84367649D01*
X145021351Y-84288375D01*
X144948152Y-84367649D01*
X144892914Y-84419473D01*
X144845506Y-84443343D01*
X144815553Y-84446924D01*
X144774070Y-84440688D01*
X144756170Y-84425635D01*
X144756154Y-84425118D01*
X144767097Y-84399197D01*
X144794941Y-84353441D01*
X144832209Y-84298550D01*
X144871423Y-84245230D01*
X144905103Y-84204183D01*
X144921586Y-84188338D01*
X144966377Y-84174751D01*
X145028008Y-84175675D01*
G36*
X151962117Y-84497372D02*
G01*
X152032059Y-84521093D01*
X152081566Y-84558882D01*
X152102422Y-84608930D01*
X152102615Y-84614634D01*
X152101173Y-84640546D01*
X152091144Y-84654379D01*
X152063970Y-84658458D01*
X152011095Y-84655109D01*
X151968745Y-84651022D01*
X151863045Y-84648780D01*
X151786106Y-84668268D01*
X151734420Y-84712963D01*
X151704484Y-84786344D01*
X151692792Y-84891888D01*
X151692307Y-84925273D01*
X151701226Y-85047400D01*
X151728939Y-85136015D01*
X151776887Y-85192615D01*
X151846506Y-85218699D01*
X151939235Y-85215765D01*
X151966284Y-85210655D01*
X152037378Y-85198356D01*
X152078846Y-85201159D01*
X152098112Y-85221745D01*
X152102615Y-85259920D01*
X152092251Y-85298933D01*
X152055112Y-85327686D01*
X152034858Y-85336920D01*
X151946759Y-85359553D01*
X151846404Y-85364006D01*
X151750983Y-85350677D01*
X151692490Y-85328981D01*
X151624879Y-85278261D01*
X151577659Y-85207034D01*
X151548912Y-85110488D01*
X151536719Y-84983812D01*
X151536000Y-84936452D01*
X151542121Y-84802628D01*
X151562253Y-84700047D01*
X151599045Y-84622562D01*
X151655149Y-84564028D01*
X151711846Y-84528685D01*
X151793794Y-84499361D01*
X151879956Y-84489526D01*
X151962117Y-84497372D01*
G37*
X151962117Y-84497372D02*
X152032059Y-84521093D01*
X152081566Y-84558882D01*
X152102422Y-84608930D01*
X152102615Y-84614634D01*
X152101173Y-84640546D01*
X152091144Y-84654379D01*
X152063970Y-84658458D01*
X152011095Y-84655109D01*
X151968745Y-84651022D01*
X151863045Y-84648780D01*
X151786106Y-84668268D01*
X151734420Y-84712963D01*
X151704484Y-84786344D01*
X151692792Y-84891888D01*
X151692307Y-84925273D01*
X151701226Y-85047400D01*
X151728939Y-85136015D01*
X151776887Y-85192615D01*
X151846506Y-85218699D01*
X151939235Y-85215765D01*
X151966284Y-85210655D01*
X152037378Y-85198356D01*
X152078846Y-85201159D01*
X152098112Y-85221745D01*
X152102615Y-85259920D01*
X152092251Y-85298933D01*
X152055112Y-85327686D01*
X152034858Y-85336920D01*
X151946759Y-85359553D01*
X151846404Y-85364006D01*
X151750983Y-85350677D01*
X151692490Y-85328981D01*
X151624879Y-85278261D01*
X151577659Y-85207034D01*
X151548912Y-85110488D01*
X151536719Y-84983812D01*
X151536000Y-84936452D01*
X151542121Y-84802628D01*
X151562253Y-84700047D01*
X151599045Y-84622562D01*
X151655149Y-84564028D01*
X151711846Y-84528685D01*
X151793794Y-84499361D01*
X151879956Y-84489526D01*
X151962117Y-84497372D01*
G36*
X152373423Y-84222231D02*
G01*
X152649692Y-84222231D01*
X152659461Y-84232000D01*
X152669231Y-84222231D01*
X152659461Y-84212462D01*
X152649692Y-84222231D01*
X152373423Y-84222231D01*
X152381467Y-84212878D01*
X152423565Y-84174612D01*
X152449579Y-84160605D01*
X152502924Y-84155079D01*
X152550463Y-84157789D01*
X152607042Y-84166093D01*
X152559982Y-84104395D01*
X152523513Y-84049788D01*
X152517151Y-84016886D01*
X152542144Y-84001049D01*
X152588701Y-83997539D01*
X152631576Y-84000543D01*
X152664982Y-84014260D01*
X152699351Y-84045747D01*
X152745113Y-84102058D01*
X152747194Y-84104753D01*
X152798318Y-84179822D01*
X152818407Y-84232074D01*
X152807460Y-84261227D01*
X152765481Y-84266998D01*
X152745938Y-84263950D01*
X152686477Y-84252057D01*
X152726700Y-84308545D01*
X152758878Y-84368215D01*
X152761522Y-84408993D01*
X152740205Y-84429150D01*
X152700501Y-84426953D01*
X152647983Y-84400671D01*
X152590405Y-84350882D01*
X152517629Y-84274379D01*
X152442926Y-84350882D01*
X152383201Y-84400635D01*
X152328992Y-84425285D01*
X152287062Y-84422966D01*
X152266569Y-84399592D01*
X152271873Y-84367972D01*
X152297923Y-84319611D01*
X152337020Y-84264563D01*
X152373423Y-84222231D01*
G37*
X152373423Y-84222231D02*
X152649692Y-84222231D01*
X152659461Y-84232000D01*
X152669231Y-84222231D01*
X152659461Y-84212462D01*
X152649692Y-84222231D01*
X152373423Y-84222231D01*
X152381467Y-84212878D01*
X152423565Y-84174612D01*
X152449579Y-84160605D01*
X152502924Y-84155079D01*
X152550463Y-84157789D01*
X152607042Y-84166093D01*
X152559982Y-84104395D01*
X152523513Y-84049788D01*
X152517151Y-84016886D01*
X152542144Y-84001049D01*
X152588701Y-83997539D01*
X152631576Y-84000543D01*
X152664982Y-84014260D01*
X152699351Y-84045747D01*
X152745113Y-84102058D01*
X152747194Y-84104753D01*
X152798318Y-84179822D01*
X152818407Y-84232074D01*
X152807460Y-84261227D01*
X152765481Y-84266998D01*
X152745938Y-84263950D01*
X152686477Y-84252057D01*
X152726700Y-84308545D01*
X152758878Y-84368215D01*
X152761522Y-84408993D01*
X152740205Y-84429150D01*
X152700501Y-84426953D01*
X152647983Y-84400671D01*
X152590405Y-84350882D01*
X152517629Y-84274379D01*
X152442926Y-84350882D01*
X152383201Y-84400635D01*
X152328992Y-84425285D01*
X152287062Y-84422966D01*
X152266569Y-84399592D01*
X152271873Y-84367972D01*
X152297923Y-84319611D01*
X152337020Y-84264563D01*
X152373423Y-84222231D01*
G36*
X145939438Y-84506200D02*
G01*
X146027577Y-84537090D01*
X146088461Y-84591004D01*
X146106779Y-84621114D01*
X146117371Y-84660819D01*
X146126298Y-84729229D01*
X146133372Y-84818229D01*
X146138409Y-84919707D01*
X146141223Y-85025549D01*
X146141627Y-85127642D01*
X146139438Y-85217873D01*
X146134469Y-85288128D01*
X146126534Y-85330293D01*
X146123149Y-85336763D01*
X146088281Y-85358047D01*
X146042801Y-85364856D01*
X146005775Y-85355508D01*
X145998140Y-85347786D01*
X145994113Y-85323109D01*
X145990096Y-85266521D01*
X145986443Y-85185182D01*
X145983506Y-85086257D01*
X145982333Y-85027447D01*
X145979117Y-84895445D01*
X145972997Y-84797490D01*
X145961765Y-84728558D01*
X145943210Y-84683626D01*
X145915123Y-84657668D01*
X145875296Y-84645661D01*
X145821518Y-84642581D01*
X145813087Y-84642575D01*
X145751502Y-84642530D01*
X145706126Y-84645427D01*
X145674397Y-84656441D01*
X145653757Y-84680747D01*
X145641646Y-84723519D01*
X145635504Y-84789934D01*
X145632770Y-84885166D01*
X145630942Y-85010817D01*
X145625615Y-85355462D01*
X145566298Y-85361273D01*
X145519968Y-85361240D01*
X145493028Y-85353132D01*
X145488795Y-85330187D01*
X145485079Y-85274259D01*
X145482087Y-85191438D01*
X145480027Y-85087817D01*
X145479106Y-84969488D01*
X145479077Y-84943847D01*
X145479077Y-84548513D01*
X145581654Y-84523384D01*
X145657682Y-84509775D01*
X145750040Y-84500157D01*
X145821000Y-84497012D01*
X145939438Y-84506200D01*
G37*
X145939438Y-84506200D02*
X146027577Y-84537090D01*
X146088461Y-84591004D01*
X146106779Y-84621114D01*
X146117371Y-84660819D01*
X146126298Y-84729229D01*
X146133372Y-84818229D01*
X146138409Y-84919707D01*
X146141223Y-85025549D01*
X146141627Y-85127642D01*
X146139438Y-85217873D01*
X146134469Y-85288128D01*
X146126534Y-85330293D01*
X146123149Y-85336763D01*
X146088281Y-85358047D01*
X146042801Y-85364856D01*
X146005775Y-85355508D01*
X145998140Y-85347786D01*
X145994113Y-85323109D01*
X145990096Y-85266521D01*
X145986443Y-85185182D01*
X145983506Y-85086257D01*
X145982333Y-85027447D01*
X145979117Y-84895445D01*
X145972997Y-84797490D01*
X145961765Y-84728558D01*
X145943210Y-84683626D01*
X145915123Y-84657668D01*
X145875296Y-84645661D01*
X145821518Y-84642581D01*
X145813087Y-84642575D01*
X145751502Y-84642530D01*
X145706126Y-84645427D01*
X145674397Y-84656441D01*
X145653757Y-84680747D01*
X145641646Y-84723519D01*
X145635504Y-84789934D01*
X145632770Y-84885166D01*
X145630942Y-85010817D01*
X145625615Y-85355462D01*
X145566298Y-85361273D01*
X145519968Y-85361240D01*
X145493028Y-85353132D01*
X145488795Y-85330187D01*
X145485079Y-85274259D01*
X145482087Y-85191438D01*
X145480027Y-85087817D01*
X145479106Y-84969488D01*
X145479077Y-84943847D01*
X145479077Y-84548513D01*
X145581654Y-84523384D01*
X145657682Y-84509775D01*
X145750040Y-84500157D01*
X145821000Y-84497012D01*
X145939438Y-84506200D01*
G36*
X148636296Y-84506298D02*
G01*
X148724677Y-84537746D01*
X148785194Y-84591960D01*
X148802621Y-84621114D01*
X148813228Y-84661176D01*
X148822205Y-84729839D01*
X148829357Y-84818995D01*
X148834490Y-84920533D01*
X148837409Y-85026346D01*
X148837920Y-85128323D01*
X148835829Y-85218355D01*
X148830940Y-85288334D01*
X148823060Y-85330149D01*
X148819779Y-85336375D01*
X148784394Y-85358110D01*
X148738614Y-85364756D01*
X148701420Y-85354720D01*
X148693922Y-85346937D01*
X148689740Y-85321946D01*
X148685652Y-85265080D01*
X148682014Y-85183539D01*
X148679182Y-85084522D01*
X148678115Y-85026567D01*
X148675270Y-84894968D01*
X148669559Y-84797385D01*
X148658501Y-84728761D01*
X148639617Y-84684036D01*
X148610425Y-84658152D01*
X148568447Y-84646051D01*
X148511202Y-84642673D01*
X148489856Y-84642607D01*
X148425067Y-84645354D01*
X148374929Y-84652099D01*
X148356594Y-84658118D01*
X148346735Y-84678370D01*
X148339034Y-84727066D01*
X148333252Y-84807120D01*
X148329149Y-84921444D01*
X148327286Y-85014396D01*
X148321923Y-85355462D01*
X148262605Y-85361273D01*
X148216276Y-85361240D01*
X148189336Y-85353132D01*
X148185103Y-85330187D01*
X148181387Y-85274259D01*
X148178395Y-85191438D01*
X148176334Y-85087817D01*
X148175414Y-84969488D01*
X148175384Y-84943847D01*
X148175384Y-84548513D01*
X148277961Y-84522720D01*
X148353976Y-84508872D01*
X148446317Y-84499309D01*
X148517307Y-84496417D01*
X148636296Y-84506298D01*
G37*
X148636296Y-84506298D02*
X148724677Y-84537746D01*
X148785194Y-84591960D01*
X148802621Y-84621114D01*
X148813228Y-84661176D01*
X148822205Y-84729839D01*
X148829357Y-84818995D01*
X148834490Y-84920533D01*
X148837409Y-85026346D01*
X148837920Y-85128323D01*
X148835829Y-85218355D01*
X148830940Y-85288334D01*
X148823060Y-85330149D01*
X148819779Y-85336375D01*
X148784394Y-85358110D01*
X148738614Y-85364756D01*
X148701420Y-85354720D01*
X148693922Y-85346937D01*
X148689740Y-85321946D01*
X148685652Y-85265080D01*
X148682014Y-85183539D01*
X148679182Y-85084522D01*
X148678115Y-85026567D01*
X148675270Y-84894968D01*
X148669559Y-84797385D01*
X148658501Y-84728761D01*
X148639617Y-84684036D01*
X148610425Y-84658152D01*
X148568447Y-84646051D01*
X148511202Y-84642673D01*
X148489856Y-84642607D01*
X148425067Y-84645354D01*
X148374929Y-84652099D01*
X148356594Y-84658118D01*
X148346735Y-84678370D01*
X148339034Y-84727066D01*
X148333252Y-84807120D01*
X148329149Y-84921444D01*
X148327286Y-85014396D01*
X148321923Y-85355462D01*
X148262605Y-85361273D01*
X148216276Y-85361240D01*
X148189336Y-85353132D01*
X148185103Y-85330187D01*
X148181387Y-85274259D01*
X148178395Y-85191438D01*
X148176334Y-85087817D01*
X148175414Y-84969488D01*
X148175384Y-84943847D01*
X148175384Y-84548513D01*
X148277961Y-84522720D01*
X148353976Y-84508872D01*
X148446317Y-84499309D01*
X148517307Y-84496417D01*
X148636296Y-84506298D01*
G36*
X150176862Y-84206132D02*
G01*
X150194696Y-84223898D01*
X150201582Y-84267169D01*
X150202506Y-84280847D01*
X150208662Y-84355464D01*
X150217137Y-84432940D01*
X150218019Y-84439787D01*
X150228642Y-84520574D01*
X150301052Y-84503754D01*
X150415494Y-84487707D01*
X150511244Y-84499190D01*
X150580132Y-84528277D01*
X150626121Y-84557635D01*
X150660483Y-84590777D01*
X150684740Y-84633508D01*
X150700413Y-84691630D01*
X150709024Y-84770948D01*
X150712096Y-84877265D01*
X150711150Y-85016384D01*
X150710976Y-85027265D01*
X150705615Y-85355462D01*
X150568846Y-85355462D01*
X150559077Y-85026577D01*
X150555110Y-84904941D01*
X150550995Y-84816400D01*
X150545916Y-84754975D01*
X150539059Y-84714688D01*
X150529607Y-84689562D01*
X150516748Y-84673619D01*
X150510231Y-84668296D01*
X150468567Y-84653041D01*
X150406226Y-84647061D01*
X150336819Y-84649578D01*
X150273958Y-84659815D01*
X150231255Y-84676995D01*
X150223481Y-84684665D01*
X150217733Y-84712435D01*
X150213426Y-84771843D01*
X150210842Y-84855466D01*
X150210267Y-84955883D01*
X150210877Y-85013539D01*
X150211633Y-85119703D01*
X150210491Y-85212863D01*
X150207681Y-85285646D01*
X150203434Y-85330677D01*
X150200657Y-85340808D01*
X150170922Y-85360164D01*
X150140239Y-85365231D01*
X150097469Y-85355571D01*
X150077892Y-85340808D01*
X150073827Y-85315613D01*
X150070788Y-85256540D01*
X150068838Y-85168779D01*
X150068045Y-85057517D01*
X150068471Y-84927942D01*
X150070183Y-84785243D01*
X150070615Y-84759539D01*
X150080384Y-84202693D01*
X150139000Y-84202693D01*
X150176862Y-84206132D01*
G37*
X150176862Y-84206132D02*
X150194696Y-84223898D01*
X150201582Y-84267169D01*
X150202506Y-84280847D01*
X150208662Y-84355464D01*
X150217137Y-84432940D01*
X150218019Y-84439787D01*
X150228642Y-84520574D01*
X150301052Y-84503754D01*
X150415494Y-84487707D01*
X150511244Y-84499190D01*
X150580132Y-84528277D01*
X150626121Y-84557635D01*
X150660483Y-84590777D01*
X150684740Y-84633508D01*
X150700413Y-84691630D01*
X150709024Y-84770948D01*
X150712096Y-84877265D01*
X150711150Y-85016384D01*
X150710976Y-85027265D01*
X150705615Y-85355462D01*
X150568846Y-85355462D01*
X150559077Y-85026577D01*
X150555110Y-84904941D01*
X150550995Y-84816400D01*
X150545916Y-84754975D01*
X150539059Y-84714688D01*
X150529607Y-84689562D01*
X150516748Y-84673619D01*
X150510231Y-84668296D01*
X150468567Y-84653041D01*
X150406226Y-84647061D01*
X150336819Y-84649578D01*
X150273958Y-84659815D01*
X150231255Y-84676995D01*
X150223481Y-84684665D01*
X150217733Y-84712435D01*
X150213426Y-84771843D01*
X150210842Y-84855466D01*
X150210267Y-84955883D01*
X150210877Y-85013539D01*
X150211633Y-85119703D01*
X150210491Y-85212863D01*
X150207681Y-85285646D01*
X150203434Y-85330677D01*
X150200657Y-85340808D01*
X150170922Y-85360164D01*
X150140239Y-85365231D01*
X150097469Y-85355571D01*
X150077892Y-85340808D01*
X150073827Y-85315613D01*
X150070788Y-85256540D01*
X150068838Y-85168779D01*
X150068045Y-85057517D01*
X150068471Y-84927942D01*
X150070183Y-84785243D01*
X150070615Y-84759539D01*
X150080384Y-84202693D01*
X150139000Y-84202693D01*
X150176862Y-84206132D01*
G36*
X153382346Y-84498071D02*
G01*
X153439626Y-84506114D01*
X153481364Y-84522455D01*
X153502997Y-84536604D01*
X153545871Y-84574044D01*
X153576782Y-84617835D01*
X153597854Y-84675109D01*
X153611212Y-84752998D01*
X153618979Y-84858633D01*
X153621758Y-84935385D01*
X153623817Y-85082654D01*
X153620271Y-85194729D01*
X153610539Y-85275169D01*
X153594034Y-85327534D01*
X153570174Y-85355383D01*
X153551802Y-85361846D01*
X153515949Y-85363956D01*
X153489683Y-85355202D01*
X153471536Y-85330634D01*
X153460043Y-85285305D01*
X153453737Y-85214265D01*
X153451151Y-85112565D01*
X153450769Y-85020916D01*
X153450373Y-84905142D01*
X153448686Y-84821908D01*
X153444953Y-84764680D01*
X153438425Y-84726926D01*
X153428348Y-84702111D01*
X153413972Y-84683704D01*
X153411692Y-84681385D01*
X153361506Y-84654276D01*
X153287927Y-84642008D01*
X153204265Y-84646010D01*
X153162577Y-84654623D01*
X153146440Y-84660142D01*
X153134832Y-84670522D01*
X153127005Y-84691489D01*
X153122215Y-84728768D01*
X153119717Y-84788085D01*
X153118766Y-84875166D01*
X153118615Y-84992372D01*
X153117455Y-85130873D01*
X153113865Y-85232779D01*
X153107684Y-85300508D01*
X153098750Y-85336474D01*
X153095169Y-85341785D01*
X153057723Y-85360402D01*
X153010487Y-85364578D01*
X152975524Y-85352394D01*
X152975333Y-85352206D01*
X152971379Y-85329550D01*
X152967908Y-85273897D01*
X152965114Y-85191325D01*
X152963192Y-85087911D01*
X152962334Y-84969734D01*
X152962307Y-84944437D01*
X152962307Y-84549694D01*
X153055115Y-84522978D01*
X153122666Y-84509449D01*
X153210195Y-84499755D01*
X153297843Y-84496016D01*
X153382346Y-84498071D01*
G37*
X153382346Y-84498071D02*
X153439626Y-84506114D01*
X153481364Y-84522455D01*
X153502997Y-84536604D01*
X153545871Y-84574044D01*
X153576782Y-84617835D01*
X153597854Y-84675109D01*
X153611212Y-84752998D01*
X153618979Y-84858633D01*
X153621758Y-84935385D01*
X153623817Y-85082654D01*
X153620271Y-85194729D01*
X153610539Y-85275169D01*
X153594034Y-85327534D01*
X153570174Y-85355383D01*
X153551802Y-85361846D01*
X153515949Y-85363956D01*
X153489683Y-85355202D01*
X153471536Y-85330634D01*
X153460043Y-85285305D01*
X153453737Y-85214265D01*
X153451151Y-85112565D01*
X153450769Y-85020916D01*
X153450373Y-84905142D01*
X153448686Y-84821908D01*
X153444953Y-84764680D01*
X153438425Y-84726926D01*
X153428348Y-84702111D01*
X153413972Y-84683704D01*
X153411692Y-84681385D01*
X153361506Y-84654276D01*
X153287927Y-84642008D01*
X153204265Y-84646010D01*
X153162577Y-84654623D01*
X153146440Y-84660142D01*
X153134832Y-84670522D01*
X153127005Y-84691489D01*
X153122215Y-84728768D01*
X153119717Y-84788085D01*
X153118766Y-84875166D01*
X153118615Y-84992372D01*
X153117455Y-85130873D01*
X153113865Y-85232779D01*
X153107684Y-85300508D01*
X153098750Y-85336474D01*
X153095169Y-85341785D01*
X153057723Y-85360402D01*
X153010487Y-85364578D01*
X152975524Y-85352394D01*
X152975333Y-85352206D01*
X152971379Y-85329550D01*
X152967908Y-85273897D01*
X152965114Y-85191325D01*
X152963192Y-85087911D01*
X152962334Y-84969734D01*
X152962307Y-84944437D01*
X152962307Y-84549694D01*
X153055115Y-84522978D01*
X153122666Y-84509449D01*
X153210195Y-84499755D01*
X153297843Y-84496016D01*
X153382346Y-84498071D01*
G36*
X149431037Y-84195004D02*
G01*
X149455197Y-84200958D01*
X149504000Y-84213206D01*
X149504617Y-84520565D01*
X149505235Y-84827924D01*
X149555958Y-84769308D01*
X149639618Y-84673680D01*
X149703410Y-84604182D01*
X149752258Y-84556740D01*
X149791087Y-84527278D01*
X149824822Y-84511722D01*
X149858385Y-84505995D01*
X149874678Y-84505539D01*
X149928237Y-84509882D01*
X149951089Y-84524910D01*
X149953384Y-84536538D01*
X149940221Y-84563622D01*
X149903855Y-84612521D01*
X149848974Y-84677679D01*
X149780265Y-84753541D01*
X149702416Y-84834549D01*
X149699384Y-84837610D01*
X149672614Y-84866316D01*
X149658551Y-84891415D01*
X149659487Y-84919282D01*
X149677713Y-84956296D01*
X149715519Y-85008834D01*
X149775197Y-85083273D01*
X149797389Y-85110440D01*
X149870811Y-85203031D01*
X149918182Y-85270897D01*
X149940471Y-85317544D01*
X149938646Y-85346478D01*
X149913675Y-85361205D01*
X149867787Y-85365231D01*
X149836621Y-85362655D01*
X149808275Y-85351455D01*
X149776565Y-85326430D01*
X149735305Y-85282373D01*
X149678310Y-85214080D01*
X149657135Y-85187986D01*
X149513769Y-85010740D01*
X149508025Y-85172710D01*
X149502123Y-85260220D01*
X149492101Y-85321208D01*
X149478984Y-85349480D01*
X149478718Y-85349656D01*
X149438410Y-85362552D01*
X149391447Y-85363316D01*
X149360718Y-85352206D01*
X149357386Y-85330052D01*
X149354368Y-85273842D01*
X149351779Y-85188595D01*
X149349732Y-85079331D01*
X149348339Y-84951070D01*
X149347715Y-84808832D01*
X149347692Y-84775208D01*
X149347751Y-84606265D01*
X149348412Y-84472511D01*
X149350403Y-84370060D01*
X149354452Y-84295023D01*
X149361287Y-84243514D01*
X149371635Y-84211644D01*
X149386224Y-84195528D01*
X149405782Y-84191277D01*
X149431037Y-84195004D01*
G37*
X149431037Y-84195004D02*
X149455197Y-84200958D01*
X149504000Y-84213206D01*
X149504617Y-84520565D01*
X149505235Y-84827924D01*
X149555958Y-84769308D01*
X149639618Y-84673680D01*
X149703410Y-84604182D01*
X149752258Y-84556740D01*
X149791087Y-84527278D01*
X149824822Y-84511722D01*
X149858385Y-84505995D01*
X149874678Y-84505539D01*
X149928237Y-84509882D01*
X149951089Y-84524910D01*
X149953384Y-84536538D01*
X149940221Y-84563622D01*
X149903855Y-84612521D01*
X149848974Y-84677679D01*
X149780265Y-84753541D01*
X149702416Y-84834549D01*
X149699384Y-84837610D01*
X149672614Y-84866316D01*
X149658551Y-84891415D01*
X149659487Y-84919282D01*
X149677713Y-84956296D01*
X149715519Y-85008834D01*
X149775197Y-85083273D01*
X149797389Y-85110440D01*
X149870811Y-85203031D01*
X149918182Y-85270897D01*
X149940471Y-85317544D01*
X149938646Y-85346478D01*
X149913675Y-85361205D01*
X149867787Y-85365231D01*
X149836621Y-85362655D01*
X149808275Y-85351455D01*
X149776565Y-85326430D01*
X149735305Y-85282373D01*
X149678310Y-85214080D01*
X149657135Y-85187986D01*
X149513769Y-85010740D01*
X149508025Y-85172710D01*
X149502123Y-85260220D01*
X149492101Y-85321208D01*
X149478984Y-85349480D01*
X149478718Y-85349656D01*
X149438410Y-85362552D01*
X149391447Y-85363316D01*
X149360718Y-85352206D01*
X149357386Y-85330052D01*
X149354368Y-85273842D01*
X149351779Y-85188595D01*
X149349732Y-85079331D01*
X149348339Y-84951070D01*
X149347715Y-84808832D01*
X149347692Y-84775208D01*
X149347751Y-84606265D01*
X149348412Y-84472511D01*
X149350403Y-84370060D01*
X149354452Y-84295023D01*
X149361287Y-84243514D01*
X149371635Y-84211644D01*
X149386224Y-84195528D01*
X149405782Y-84191277D01*
X149431037Y-84195004D01*
G36*
X144023505Y-84200958D02*
G01*
X144048691Y-84209722D01*
X144063285Y-84226304D01*
X144070162Y-84259807D01*
X144072202Y-84319340D01*
X144072307Y-84355414D01*
X144072307Y-84497622D01*
X144194423Y-84490289D01*
X144317730Y-84497794D01*
X144419932Y-84535280D01*
X144497966Y-84601266D01*
X144531461Y-84653030D01*
X144554276Y-84722590D01*
X144568404Y-84816097D01*
X144573849Y-84921752D01*
X144570613Y-85027759D01*
X144558698Y-85122318D01*
X144538106Y-85193633D01*
X144531349Y-85206881D01*
X144486545Y-85272035D01*
X144436898Y-85315712D01*
X144373371Y-85342104D01*
X144286929Y-85355402D01*
X144202806Y-85359280D01*
X144117196Y-85359464D01*
X144041663Y-85356693D01*
X143988201Y-85351520D01*
X143975328Y-85348799D01*
X143931306Y-85318490D01*
X143913775Y-85286365D01*
X143909194Y-85250201D01*
X143905399Y-85182049D01*
X143902425Y-85088987D01*
X143900303Y-84978097D01*
X143899066Y-84856459D01*
X143898746Y-84731153D01*
X143899204Y-84642308D01*
X144072307Y-84642308D01*
X144072307Y-84924183D01*
X144072745Y-85035367D01*
X144074529Y-85113492D01*
X144078366Y-85164570D01*
X144084964Y-85194613D01*
X144095029Y-85209634D01*
X144106500Y-85214994D01*
X144214046Y-85224910D01*
X144302008Y-85207655D01*
X144360076Y-85167467D01*
X144397608Y-85095903D01*
X144413961Y-84995219D01*
X144408495Y-84867671D01*
X144405385Y-84843728D01*
X144387174Y-84751689D01*
X144359024Y-84692104D01*
X144313881Y-84658457D01*
X144244693Y-84644232D01*
X144187374Y-84642308D01*
X144072307Y-84642308D01*
X143899204Y-84642308D01*
X143899375Y-84609259D01*
X143900986Y-84497858D01*
X143903611Y-84404030D01*
X143907283Y-84334856D01*
X143909328Y-84313302D01*
X143922777Y-84242316D01*
X143945488Y-84204558D01*
X143983247Y-84194337D01*
X144023505Y-84200958D01*
G37*
X144023505Y-84200958D02*
X144048691Y-84209722D01*
X144063285Y-84226304D01*
X144070162Y-84259807D01*
X144072202Y-84319340D01*
X144072307Y-84355414D01*
X144072307Y-84497622D01*
X144194423Y-84490289D01*
X144317730Y-84497794D01*
X144419932Y-84535280D01*
X144497966Y-84601266D01*
X144531461Y-84653030D01*
X144554276Y-84722590D01*
X144568404Y-84816097D01*
X144573849Y-84921752D01*
X144570613Y-85027759D01*
X144558698Y-85122318D01*
X144538106Y-85193633D01*
X144531349Y-85206881D01*
X144486545Y-85272035D01*
X144436898Y-85315712D01*
X144373371Y-85342104D01*
X144286929Y-85355402D01*
X144202806Y-85359280D01*
X144117196Y-85359464D01*
X144041663Y-85356693D01*
X143988201Y-85351520D01*
X143975328Y-85348799D01*
X143931306Y-85318490D01*
X143913775Y-85286365D01*
X143909194Y-85250201D01*
X143905399Y-85182049D01*
X143902425Y-85088987D01*
X143900303Y-84978097D01*
X143899066Y-84856459D01*
X143898746Y-84731153D01*
X143899204Y-84642308D01*
X144072307Y-84642308D01*
X144072307Y-84924183D01*
X144072745Y-85035367D01*
X144074529Y-85113492D01*
X144078366Y-85164570D01*
X144084964Y-85194613D01*
X144095029Y-85209634D01*
X144106500Y-85214994D01*
X144214046Y-85224910D01*
X144302008Y-85207655D01*
X144360076Y-85167467D01*
X144397608Y-85095903D01*
X144413961Y-84995219D01*
X144408495Y-84867671D01*
X144405385Y-84843728D01*
X144387174Y-84751689D01*
X144359024Y-84692104D01*
X144313881Y-84658457D01*
X144244693Y-84644232D01*
X144187374Y-84642308D01*
X144072307Y-84642308D01*
X143899204Y-84642308D01*
X143899375Y-84609259D01*
X143900986Y-84497858D01*
X143903611Y-84404030D01*
X143907283Y-84334856D01*
X143909328Y-84313302D01*
X143922777Y-84242316D01*
X143945488Y-84204558D01*
X143983247Y-84194337D01*
X144023505Y-84200958D01*
G36*
X146734699Y-84194979D02*
G01*
X146758890Y-84200958D01*
X146784141Y-84209762D01*
X146798739Y-84226431D01*
X146805589Y-84260105D01*
X146807595Y-84319927D01*
X146807692Y-84354488D01*
X146807692Y-84495770D01*
X146949346Y-84495770D01*
X147068609Y-84505837D01*
X147160217Y-84538063D01*
X147230591Y-84595483D01*
X147266846Y-84645843D01*
X147284808Y-84681825D01*
X147296403Y-84724274D01*
X147302908Y-84782341D01*
X147305602Y-84865179D01*
X147305923Y-84925616D01*
X147305086Y-85023313D01*
X147301541Y-85091563D01*
X147293739Y-85139979D01*
X147280129Y-85178174D01*
X147259161Y-85215760D01*
X147259124Y-85215821D01*
X147208933Y-85283385D01*
X147152417Y-85327727D01*
X147080518Y-85352841D01*
X146984180Y-85362723D01*
X146924923Y-85363211D01*
X146841888Y-85360763D01*
X146768697Y-85355926D01*
X146718199Y-85349623D01*
X146710000Y-85347756D01*
X146661154Y-85334177D01*
X146655969Y-84772821D01*
X146654807Y-84642308D01*
X146807692Y-84642308D01*
X146807692Y-84922359D01*
X146808665Y-85023471D01*
X146811340Y-85110512D01*
X146815348Y-85176066D01*
X146820321Y-85212723D01*
X146822346Y-85217492D01*
X146848294Y-85223950D01*
X146900553Y-85225253D01*
X146952999Y-85222270D01*
X147026488Y-85212148D01*
X147072613Y-85195112D01*
X147102677Y-85167318D01*
X147133898Y-85101601D01*
X147151090Y-85014089D01*
X147154589Y-84916716D01*
X147144733Y-84821420D01*
X147121858Y-84740134D01*
X147089121Y-84687500D01*
X147055024Y-84660869D01*
X147012387Y-84647095D01*
X146947811Y-84642470D01*
X146925811Y-84642308D01*
X146807692Y-84642308D01*
X146654807Y-84642308D01*
X146654467Y-84604206D01*
X146653893Y-84470774D01*
X146654948Y-84368635D01*
X146658332Y-84293896D01*
X146664745Y-84242665D01*
X146674887Y-84211049D01*
X146689460Y-84195158D01*
X146709164Y-84191099D01*
X146734699Y-84194979D01*
G37*
X146734699Y-84194979D02*
X146758890Y-84200958D01*
X146784141Y-84209762D01*
X146798739Y-84226431D01*
X146805589Y-84260105D01*
X146807595Y-84319927D01*
X146807692Y-84354488D01*
X146807692Y-84495770D01*
X146949346Y-84495770D01*
X147068609Y-84505837D01*
X147160217Y-84538063D01*
X147230591Y-84595483D01*
X147266846Y-84645843D01*
X147284808Y-84681825D01*
X147296403Y-84724274D01*
X147302908Y-84782341D01*
X147305602Y-84865179D01*
X147305923Y-84925616D01*
X147305086Y-85023313D01*
X147301541Y-85091563D01*
X147293739Y-85139979D01*
X147280129Y-85178174D01*
X147259161Y-85215760D01*
X147259124Y-85215821D01*
X147208933Y-85283385D01*
X147152417Y-85327727D01*
X147080518Y-85352841D01*
X146984180Y-85362723D01*
X146924923Y-85363211D01*
X146841888Y-85360763D01*
X146768697Y-85355926D01*
X146718199Y-85349623D01*
X146710000Y-85347756D01*
X146661154Y-85334177D01*
X146655969Y-84772821D01*
X146654807Y-84642308D01*
X146807692Y-84642308D01*
X146807692Y-84922359D01*
X146808665Y-85023471D01*
X146811340Y-85110512D01*
X146815348Y-85176066D01*
X146820321Y-85212723D01*
X146822346Y-85217492D01*
X146848294Y-85223950D01*
X146900553Y-85225253D01*
X146952999Y-85222270D01*
X147026488Y-85212148D01*
X147072613Y-85195112D01*
X147102677Y-85167318D01*
X147133898Y-85101601D01*
X147151090Y-85014089D01*
X147154589Y-84916716D01*
X147144733Y-84821420D01*
X147121858Y-84740134D01*
X147089121Y-84687500D01*
X147055024Y-84660869D01*
X147012387Y-84647095D01*
X146947811Y-84642470D01*
X146925811Y-84642308D01*
X146807692Y-84642308D01*
X146654807Y-84642308D01*
X146654467Y-84604206D01*
X146653893Y-84470774D01*
X146654948Y-84368635D01*
X146658332Y-84293896D01*
X146664745Y-84242665D01*
X146674887Y-84211049D01*
X146689460Y-84195158D01*
X146709164Y-84191099D01*
X146734699Y-84194979D01*
G36*
X147402462Y-85089300D02*
G01*
X147569692Y-85089300D01*
X147577168Y-85157357D01*
X147603462Y-85199825D01*
X147654370Y-85220986D01*
X147735689Y-85225120D01*
X147752692Y-85224451D01*
X147872538Y-85218693D01*
X147878708Y-85132337D01*
X147881263Y-85047530D01*
X147871859Y-84994226D01*
X147846925Y-84965760D01*
X147802888Y-84955467D01*
X147783615Y-84954924D01*
X147712028Y-84962538D01*
X147642817Y-84981086D01*
X147637449Y-84983234D01*
X147593119Y-85006140D01*
X147573947Y-85035130D01*
X147569696Y-85086228D01*
X147569692Y-85089300D01*
X147402462Y-85089300D01*
X147403042Y-85047212D01*
X147434295Y-84961278D01*
X147492331Y-84897722D01*
X147514422Y-84884140D01*
X147568009Y-84865052D01*
X147644776Y-84848763D01*
X147726000Y-84838881D01*
X147872538Y-84827924D01*
X147866279Y-84759539D01*
X147854580Y-84702435D01*
X147827767Y-84666865D01*
X147779320Y-84649466D01*
X147702717Y-84646875D01*
X147653732Y-84649929D01*
X147580724Y-84656189D01*
X147521591Y-84662025D01*
X147488523Y-84666228D01*
X147487655Y-84666397D01*
X147467030Y-84653226D01*
X147456426Y-84612374D01*
X147457441Y-84570843D01*
X147477914Y-84546335D01*
X147518510Y-84528582D01*
X147649659Y-84495870D01*
X147774947Y-84492541D01*
X147874429Y-84514992D01*
X147929258Y-84540722D01*
X147970551Y-84574035D01*
X148000132Y-84620385D01*
X148019825Y-84685228D01*
X148031453Y-84774018D01*
X148036842Y-84892209D01*
X148037887Y-85003770D01*
X148036814Y-85108537D01*
X148033775Y-85200561D01*
X148029180Y-85272218D01*
X148023442Y-85315881D01*
X148020577Y-85324396D01*
X147992334Y-85339177D01*
X147934935Y-85350458D01*
X147858169Y-85357941D01*
X147771825Y-85361325D01*
X147685692Y-85360311D01*
X147609559Y-85354599D01*
X147553215Y-85343890D01*
X147540384Y-85339093D01*
X147464786Y-85289616D01*
X147419773Y-85221573D01*
X147401651Y-85148309D01*
X147402462Y-85089300D01*
G37*
X147402462Y-85089300D02*
X147569692Y-85089300D01*
X147577168Y-85157357D01*
X147603462Y-85199825D01*
X147654370Y-85220986D01*
X147735689Y-85225120D01*
X147752692Y-85224451D01*
X147872538Y-85218693D01*
X147878708Y-85132337D01*
X147881263Y-85047530D01*
X147871859Y-84994226D01*
X147846925Y-84965760D01*
X147802888Y-84955467D01*
X147783615Y-84954924D01*
X147712028Y-84962538D01*
X147642817Y-84981086D01*
X147637449Y-84983234D01*
X147593119Y-85006140D01*
X147573947Y-85035130D01*
X147569696Y-85086228D01*
X147569692Y-85089300D01*
X147402462Y-85089300D01*
X147403042Y-85047212D01*
X147434295Y-84961278D01*
X147492331Y-84897722D01*
X147514422Y-84884140D01*
X147568009Y-84865052D01*
X147644776Y-84848763D01*
X147726000Y-84838881D01*
X147872538Y-84827924D01*
X147866279Y-84759539D01*
X147854580Y-84702435D01*
X147827767Y-84666865D01*
X147779320Y-84649466D01*
X147702717Y-84646875D01*
X147653732Y-84649929D01*
X147580724Y-84656189D01*
X147521591Y-84662025D01*
X147488523Y-84666228D01*
X147487655Y-84666397D01*
X147467030Y-84653226D01*
X147456426Y-84612374D01*
X147457441Y-84570843D01*
X147477914Y-84546335D01*
X147518510Y-84528582D01*
X147649659Y-84495870D01*
X147774947Y-84492541D01*
X147874429Y-84514992D01*
X147929258Y-84540722D01*
X147970551Y-84574035D01*
X148000132Y-84620385D01*
X148019825Y-84685228D01*
X148031453Y-84774018D01*
X148036842Y-84892209D01*
X148037887Y-85003770D01*
X148036814Y-85108537D01*
X148033775Y-85200561D01*
X148029180Y-85272218D01*
X148023442Y-85315881D01*
X148020577Y-85324396D01*
X147992334Y-85339177D01*
X147934935Y-85350458D01*
X147858169Y-85357941D01*
X147771825Y-85361325D01*
X147685692Y-85360311D01*
X147609559Y-85354599D01*
X147553215Y-85343890D01*
X147540384Y-85339093D01*
X147464786Y-85289616D01*
X147419773Y-85221573D01*
X147401651Y-85148309D01*
X147402462Y-85089300D01*
G36*
X144679464Y-84817184D02*
G01*
X144834307Y-84817184D01*
X144837036Y-84836195D01*
X144850191Y-84848007D01*
X144881230Y-84854317D01*
X144937609Y-84856823D01*
X145010154Y-84857231D01*
X145186000Y-84857231D01*
X145186000Y-84797728D01*
X145169230Y-84727157D01*
X145123223Y-84676186D01*
X145054434Y-84648507D01*
X144969319Y-84647810D01*
X144936102Y-84654828D01*
X144892707Y-84683503D01*
X144856131Y-84736091D01*
X144835826Y-84797515D01*
X144834307Y-84817184D01*
X144679464Y-84817184D01*
X144681863Y-84763259D01*
X144688683Y-84714587D01*
X144700530Y-84678545D01*
X144718732Y-84646322D01*
X144722028Y-84641369D01*
X144792028Y-84567896D01*
X144880651Y-84519419D01*
X144979701Y-84495844D01*
X145080986Y-84497078D01*
X145176310Y-84523027D01*
X145257479Y-84573595D01*
X145316045Y-84648196D01*
X145336799Y-84704767D01*
X145351415Y-84775845D01*
X145359055Y-84850063D01*
X145358879Y-84916053D01*
X145350047Y-84962448D01*
X145340257Y-84976143D01*
X145310961Y-84982844D01*
X145251242Y-84988384D01*
X145169751Y-84992192D01*
X145075136Y-84993699D01*
X145073654Y-84993701D01*
X144834307Y-84994000D01*
X144834307Y-85051526D01*
X144847887Y-85108376D01*
X144881320Y-85163708D01*
X144912797Y-85195066D01*
X144946805Y-85211142D01*
X144997262Y-85216487D01*
X145042513Y-85216414D01*
X145121662Y-85209420D01*
X145198433Y-85193689D01*
X145233417Y-85181940D01*
X145285291Y-85163159D01*
X145313830Y-85163078D01*
X145325925Y-85174284D01*
X145341153Y-85230787D01*
X145320887Y-85285030D01*
X145312340Y-85294715D01*
X145257846Y-85327554D01*
X145177061Y-85350596D01*
X145081751Y-85362908D01*
X144983685Y-85363557D01*
X144894630Y-85351610D01*
X144837770Y-85332350D01*
X144783880Y-85294490D01*
X144733576Y-85241792D01*
X144725424Y-85230567D01*
X144704822Y-85197100D01*
X144691211Y-85163067D01*
X144683164Y-85119532D01*
X144679251Y-85057559D01*
X144678047Y-84968210D01*
X144678000Y-84933739D01*
X144678744Y-84833373D01*
X144679464Y-84817184D01*
G37*
X144679464Y-84817184D02*
X144834307Y-84817184D01*
X144837036Y-84836195D01*
X144850191Y-84848007D01*
X144881230Y-84854317D01*
X144937609Y-84856823D01*
X145010154Y-84857231D01*
X145186000Y-84857231D01*
X145186000Y-84797728D01*
X145169230Y-84727157D01*
X145123223Y-84676186D01*
X145054434Y-84648507D01*
X144969319Y-84647810D01*
X144936102Y-84654828D01*
X144892707Y-84683503D01*
X144856131Y-84736091D01*
X144835826Y-84797515D01*
X144834307Y-84817184D01*
X144679464Y-84817184D01*
X144681863Y-84763259D01*
X144688683Y-84714587D01*
X144700530Y-84678545D01*
X144718732Y-84646322D01*
X144722028Y-84641369D01*
X144792028Y-84567896D01*
X144880651Y-84519419D01*
X144979701Y-84495844D01*
X145080986Y-84497078D01*
X145176310Y-84523027D01*
X145257479Y-84573595D01*
X145316045Y-84648196D01*
X145336799Y-84704767D01*
X145351415Y-84775845D01*
X145359055Y-84850063D01*
X145358879Y-84916053D01*
X145350047Y-84962448D01*
X145340257Y-84976143D01*
X145310961Y-84982844D01*
X145251242Y-84988384D01*
X145169751Y-84992192D01*
X145075136Y-84993699D01*
X145073654Y-84993701D01*
X144834307Y-84994000D01*
X144834307Y-85051526D01*
X144847887Y-85108376D01*
X144881320Y-85163708D01*
X144912797Y-85195066D01*
X144946805Y-85211142D01*
X144997262Y-85216487D01*
X145042513Y-85216414D01*
X145121662Y-85209420D01*
X145198433Y-85193689D01*
X145233417Y-85181940D01*
X145285291Y-85163159D01*
X145313830Y-85163078D01*
X145325925Y-85174284D01*
X145341153Y-85230787D01*
X145320887Y-85285030D01*
X145312340Y-85294715D01*
X145257846Y-85327554D01*
X145177061Y-85350596D01*
X145081751Y-85362908D01*
X144983685Y-85363557D01*
X144894630Y-85351610D01*
X144837770Y-85332350D01*
X144783880Y-85294490D01*
X144733576Y-85241792D01*
X144725424Y-85230567D01*
X144704822Y-85197100D01*
X144691211Y-85163067D01*
X144683164Y-85119532D01*
X144679251Y-85057559D01*
X144678047Y-84968210D01*
X144678000Y-84933739D01*
X144678744Y-84833373D01*
X144679464Y-84817184D01*
G36*
X152185426Y-85066523D02*
G01*
X152351042Y-85066523D01*
X152352741Y-85135042D01*
X152381294Y-85189991D01*
X152430808Y-85220306D01*
X152433234Y-85220870D01*
X152477370Y-85230592D01*
X152500405Y-85235768D01*
X152529968Y-85236359D01*
X152578634Y-85232477D01*
X152581511Y-85232146D01*
X152622491Y-85223748D01*
X152643854Y-85203315D01*
X152655523Y-85159045D01*
X152658418Y-85140684D01*
X152663369Y-85074384D01*
X152659915Y-85014831D01*
X152657674Y-85003606D01*
X152648629Y-84974642D01*
X152633426Y-84960028D01*
X152602000Y-84956756D01*
X152544287Y-84961817D01*
X152525095Y-84963973D01*
X152444700Y-84975799D01*
X152394824Y-84992349D01*
X152366909Y-85018666D01*
X152352397Y-85059791D01*
X152351042Y-85066523D01*
X152185426Y-85066523D01*
X152189814Y-85030454D01*
X152225038Y-84953194D01*
X152284548Y-84892263D01*
X152337077Y-84865194D01*
X152394784Y-84851486D01*
X152471639Y-84841943D01*
X152527577Y-84839179D01*
X152649692Y-84837693D01*
X152649692Y-84760226D01*
X152642261Y-84702576D01*
X152616346Y-84666024D01*
X152566508Y-84647717D01*
X152487313Y-84644801D01*
X152436186Y-84648121D01*
X152364369Y-84655740D01*
X152304838Y-84664763D01*
X152273577Y-84672293D01*
X152250719Y-84675026D01*
X152241025Y-84653550D01*
X152239384Y-84615637D01*
X152241369Y-84576035D01*
X152253300Y-84551679D01*
X152284145Y-84534300D01*
X152342869Y-84515627D01*
X152350109Y-84513519D01*
X152456808Y-84493682D01*
X152562438Y-84493543D01*
X152654268Y-84512340D01*
X152700737Y-84534491D01*
X152740923Y-84564163D01*
X152770679Y-84597133D01*
X152791692Y-84639684D01*
X152805650Y-84698098D01*
X152814240Y-84778656D01*
X152819148Y-84887641D01*
X152821281Y-84983306D01*
X152822068Y-85092500D01*
X152820622Y-85188477D01*
X152817214Y-85264036D01*
X152812115Y-85311981D01*
X152808427Y-85324396D01*
X152785131Y-85338825D01*
X152734393Y-85349375D01*
X152651713Y-85356769D01*
X152587991Y-85359871D01*
X152492202Y-85362601D01*
X152424908Y-85361055D01*
X152375647Y-85353987D01*
X152333956Y-85340152D01*
X152304334Y-85326113D01*
X152236137Y-85271871D01*
X152194736Y-85198625D01*
X152179504Y-85115208D01*
X152185426Y-85066523D01*
G37*
X152185426Y-85066523D02*
X152351042Y-85066523D01*
X152352741Y-85135042D01*
X152381294Y-85189991D01*
X152430808Y-85220306D01*
X152433234Y-85220870D01*
X152477370Y-85230592D01*
X152500405Y-85235768D01*
X152529968Y-85236359D01*
X152578634Y-85232477D01*
X152581511Y-85232146D01*
X152622491Y-85223748D01*
X152643854Y-85203315D01*
X152655523Y-85159045D01*
X152658418Y-85140684D01*
X152663369Y-85074384D01*
X152659915Y-85014831D01*
X152657674Y-85003606D01*
X152648629Y-84974642D01*
X152633426Y-84960028D01*
X152602000Y-84956756D01*
X152544287Y-84961817D01*
X152525095Y-84963973D01*
X152444700Y-84975799D01*
X152394824Y-84992349D01*
X152366909Y-85018666D01*
X152352397Y-85059791D01*
X152351042Y-85066523D01*
X152185426Y-85066523D01*
X152189814Y-85030454D01*
X152225038Y-84953194D01*
X152284548Y-84892263D01*
X152337077Y-84865194D01*
X152394784Y-84851486D01*
X152471639Y-84841943D01*
X152527577Y-84839179D01*
X152649692Y-84837693D01*
X152649692Y-84760226D01*
X152642261Y-84702576D01*
X152616346Y-84666024D01*
X152566508Y-84647717D01*
X152487313Y-84644801D01*
X152436186Y-84648121D01*
X152364369Y-84655740D01*
X152304838Y-84664763D01*
X152273577Y-84672293D01*
X152250719Y-84675026D01*
X152241025Y-84653550D01*
X152239384Y-84615637D01*
X152241369Y-84576035D01*
X152253300Y-84551679D01*
X152284145Y-84534300D01*
X152342869Y-84515627D01*
X152350109Y-84513519D01*
X152456808Y-84493682D01*
X152562438Y-84493543D01*
X152654268Y-84512340D01*
X152700737Y-84534491D01*
X152740923Y-84564163D01*
X152770679Y-84597133D01*
X152791692Y-84639684D01*
X152805650Y-84698098D01*
X152814240Y-84778656D01*
X152819148Y-84887641D01*
X152821281Y-84983306D01*
X152822068Y-85092500D01*
X152820622Y-85188477D01*
X152817214Y-85264036D01*
X152812115Y-85311981D01*
X152808427Y-85324396D01*
X152785131Y-85338825D01*
X152734393Y-85349375D01*
X152651713Y-85356769D01*
X152587991Y-85359871D01*
X152492202Y-85362601D01*
X152424908Y-85361055D01*
X152375647Y-85353987D01*
X152333956Y-85340152D01*
X152304334Y-85326113D01*
X152236137Y-85271871D01*
X152194736Y-85198625D01*
X152179504Y-85115208D01*
X152185426Y-85066523D01*
G36*
X154223574Y-83306419D02*
G01*
X154359991Y-83306419D01*
X154384167Y-83312330D01*
X154418460Y-83313394D01*
X154481011Y-83321145D01*
X154533726Y-83339850D01*
X154540575Y-83344108D01*
X154574541Y-83386449D01*
X154583019Y-83438213D01*
X154563363Y-83482815D01*
X154562799Y-83483386D01*
X154553809Y-83511626D01*
X154570022Y-83559278D01*
X154574886Y-83568959D01*
X154608174Y-83633332D01*
X154634471Y-83585858D01*
X154655211Y-83528399D01*
X154661461Y-83483684D01*
X154647114Y-83405796D01*
X154607477Y-83338513D01*
X154555238Y-83297958D01*
X154484360Y-83278137D01*
X154414137Y-83278414D01*
X154369077Y-83294154D01*
X154359991Y-83306419D01*
X154223574Y-83306419D01*
X154264733Y-83257611D01*
X154266542Y-83256108D01*
X154314186Y-83221382D01*
X154359425Y-83203416D01*
X154418946Y-83196986D01*
X154457000Y-83196462D01*
X154529450Y-83199310D01*
X154579521Y-83211229D01*
X154623707Y-83237279D01*
X154645149Y-83254206D01*
X154710684Y-83330197D01*
X154745043Y-83418308D01*
X154749944Y-83510765D01*
X154727106Y-83599797D01*
X154678245Y-83677628D01*
X154605081Y-83736486D01*
X154532450Y-83764177D01*
X154474172Y-83776471D01*
X154433738Y-83778847D01*
X154391114Y-83770976D01*
X154356408Y-83761271D01*
X154289863Y-83725435D01*
X154227451Y-83664174D01*
X154222955Y-83657130D01*
X154359117Y-83657130D01*
X154360573Y-83667432D01*
X154387046Y-83679682D01*
X154435718Y-83684112D01*
X154490537Y-83680901D01*
X154535451Y-83670226D01*
X154544923Y-83665385D01*
X154564374Y-83650141D01*
X154549802Y-83646375D01*
X154544923Y-83646322D01*
X154514927Y-83632234D01*
X154475420Y-83597156D01*
X154462410Y-83582523D01*
X154409205Y-83518847D01*
X154408679Y-83573191D01*
X154398856Y-83616731D01*
X154378958Y-83638738D01*
X154359117Y-83657130D01*
X154222955Y-83657130D01*
X154180414Y-83590487D01*
X154162358Y-83536918D01*
X154162168Y-83494721D01*
X154253348Y-83494721D01*
X154259812Y-83552808D01*
X154275292Y-83583324D01*
X154298519Y-83603616D01*
X154304600Y-83606770D01*
X154307357Y-83588852D01*
X154309209Y-83541575D01*
X154309802Y-83474652D01*
X154309769Y-83465116D01*
X154309284Y-83426039D01*
X154413038Y-83426039D01*
X154422106Y-83445649D01*
X154447231Y-83450462D01*
X154478220Y-83441459D01*
X154481423Y-83426039D01*
X154457425Y-83403350D01*
X154447231Y-83401616D01*
X154417893Y-83417023D01*
X154413038Y-83426039D01*
X154309284Y-83426039D01*
X154308880Y-83393568D01*
X154306015Y-83355845D01*
X154299555Y-83346696D01*
X154287882Y-83360870D01*
X154281154Y-83372308D01*
X154260610Y-83429224D01*
X154253348Y-83494721D01*
X154162168Y-83494721D01*
X154161893Y-83433872D01*
X154197127Y-83337781D01*
X154223574Y-83306419D01*
G37*
X154223574Y-83306419D02*
X154359991Y-83306419D01*
X154384167Y-83312330D01*
X154418460Y-83313394D01*
X154481011Y-83321145D01*
X154533726Y-83339850D01*
X154540575Y-83344108D01*
X154574541Y-83386449D01*
X154583019Y-83438213D01*
X154563363Y-83482815D01*
X154562799Y-83483386D01*
X154553809Y-83511626D01*
X154570022Y-83559278D01*
X154574886Y-83568959D01*
X154608174Y-83633332D01*
X154634471Y-83585858D01*
X154655211Y-83528399D01*
X154661461Y-83483684D01*
X154647114Y-83405796D01*
X154607477Y-83338513D01*
X154555238Y-83297958D01*
X154484360Y-83278137D01*
X154414137Y-83278414D01*
X154369077Y-83294154D01*
X154359991Y-83306419D01*
X154223574Y-83306419D01*
X154264733Y-83257611D01*
X154266542Y-83256108D01*
X154314186Y-83221382D01*
X154359425Y-83203416D01*
X154418946Y-83196986D01*
X154457000Y-83196462D01*
X154529450Y-83199310D01*
X154579521Y-83211229D01*
X154623707Y-83237279D01*
X154645149Y-83254206D01*
X154710684Y-83330197D01*
X154745043Y-83418308D01*
X154749944Y-83510765D01*
X154727106Y-83599797D01*
X154678245Y-83677628D01*
X154605081Y-83736486D01*
X154532450Y-83764177D01*
X154474172Y-83776471D01*
X154433738Y-83778847D01*
X154391114Y-83770976D01*
X154356408Y-83761271D01*
X154289863Y-83725435D01*
X154227451Y-83664174D01*
X154222955Y-83657130D01*
X154359117Y-83657130D01*
X154360573Y-83667432D01*
X154387046Y-83679682D01*
X154435718Y-83684112D01*
X154490537Y-83680901D01*
X154535451Y-83670226D01*
X154544923Y-83665385D01*
X154564374Y-83650141D01*
X154549802Y-83646375D01*
X154544923Y-83646322D01*
X154514927Y-83632234D01*
X154475420Y-83597156D01*
X154462410Y-83582523D01*
X154409205Y-83518847D01*
X154408679Y-83573191D01*
X154398856Y-83616731D01*
X154378958Y-83638738D01*
X154359117Y-83657130D01*
X154222955Y-83657130D01*
X154180414Y-83590487D01*
X154162358Y-83536918D01*
X154162168Y-83494721D01*
X154253348Y-83494721D01*
X154259812Y-83552808D01*
X154275292Y-83583324D01*
X154298519Y-83603616D01*
X154304600Y-83606770D01*
X154307357Y-83588852D01*
X154309209Y-83541575D01*
X154309802Y-83474652D01*
X154309769Y-83465116D01*
X154309284Y-83426039D01*
X154413038Y-83426039D01*
X154422106Y-83445649D01*
X154447231Y-83450462D01*
X154478220Y-83441459D01*
X154481423Y-83426039D01*
X154457425Y-83403350D01*
X154447231Y-83401616D01*
X154417893Y-83417023D01*
X154413038Y-83426039D01*
X154309284Y-83426039D01*
X154308880Y-83393568D01*
X154306015Y-83355845D01*
X154299555Y-83346696D01*
X154287882Y-83360870D01*
X154281154Y-83372308D01*
X154260610Y-83429224D01*
X154253348Y-83494721D01*
X154162168Y-83494721D01*
X154161893Y-83433872D01*
X154197127Y-83337781D01*
X154223574Y-83306419D01*
G36*
X144538866Y-80545400D02*
G01*
X145791765Y-80545400D01*
X145808790Y-80625118D01*
X145855279Y-80688182D01*
X145924008Y-80731387D01*
X146007750Y-80751528D01*
X146099281Y-80745402D01*
X146178355Y-80716867D01*
X146267279Y-80656942D01*
X146328991Y-80586406D01*
X146362928Y-80511192D01*
X146368530Y-80437233D01*
X146345232Y-80370460D01*
X146292474Y-80316807D01*
X146219318Y-80284633D01*
X146118436Y-80273397D01*
X146019567Y-80290235D01*
X145930089Y-80330648D01*
X145857381Y-80390136D01*
X145808820Y-80464200D01*
X145791765Y-80545400D01*
X144538866Y-80545400D01*
X144557483Y-80473281D01*
X144590020Y-80362434D01*
X144624531Y-80259427D01*
X144647375Y-80197308D01*
X144748428Y-79979575D01*
X144875763Y-79790657D01*
X145029621Y-79630349D01*
X145210240Y-79498443D01*
X145417859Y-79394733D01*
X145652717Y-79319012D01*
X145667126Y-79315488D01*
X145702786Y-79308078D01*
X145745661Y-79301745D01*
X145799193Y-79296368D01*
X145866826Y-79291825D01*
X145952001Y-79287996D01*
X146058162Y-79284760D01*
X146188750Y-79281996D01*
X146347208Y-79279583D01*
X146536978Y-79277400D01*
X146761503Y-79275325D01*
X146824854Y-79274798D01*
X147022626Y-79273499D01*
X147208203Y-79272895D01*
X147377938Y-79272956D01*
X147528183Y-79273652D01*
X147655290Y-79274952D01*
X147755614Y-79276828D01*
X147825507Y-79279247D01*
X147861322Y-79282181D01*
X147865206Y-79283391D01*
X147865710Y-79307521D01*
X147856633Y-79368607D01*
X147838163Y-79465769D01*
X147810489Y-79598127D01*
X147773800Y-79764802D01*
X147728284Y-79964915D01*
X147674130Y-80197584D01*
X147618717Y-80431770D01*
X147604581Y-80492124D01*
X147584138Y-80580731D01*
X147559650Y-80687715D01*
X147533382Y-80803204D01*
X147520161Y-80861616D01*
X147491474Y-80987732D01*
X147461062Y-81119998D01*
X147431986Y-81245188D01*
X147407309Y-81350073D01*
X147400315Y-81379385D01*
X147374892Y-81486441D01*
X147343952Y-81618433D01*
X147309282Y-81767570D01*
X147272672Y-81926060D01*
X147235911Y-82086113D01*
X147200788Y-82239937D01*
X147169092Y-82379742D01*
X147142612Y-82497736D01*
X147123137Y-82586128D01*
X147121891Y-82591895D01*
X147060121Y-82816493D01*
X146976584Y-83012790D01*
X146868111Y-83186852D01*
X146731538Y-83344742D01*
X146725925Y-83350333D01*
X146588836Y-83472173D01*
X146448500Y-83565624D01*
X146290392Y-83639712D01*
X146216873Y-83666651D01*
X146153259Y-83687287D01*
X146089823Y-83704796D01*
X146022832Y-83719429D01*
X145948551Y-83731437D01*
X145863247Y-83741070D01*
X145763187Y-83748577D01*
X145644635Y-83754211D01*
X145503859Y-83758220D01*
X145337124Y-83760855D01*
X145140697Y-83762368D01*
X144910843Y-83763007D01*
X144778871Y-83763077D01*
X143833409Y-83763077D01*
X143846648Y-83670270D01*
X143858836Y-83600072D01*
X143873462Y-83535717D01*
X143878288Y-83518847D01*
X143887814Y-83482577D01*
X143903922Y-83414703D01*
X143925109Y-83321850D01*
X143949869Y-83210643D01*
X143976695Y-83087710D01*
X143984837Y-83049924D01*
X144033683Y-82823002D01*
X145362015Y-82823002D01*
X145378617Y-82838051D01*
X145422153Y-82841030D01*
X145482810Y-82833166D01*
X145550779Y-82815691D01*
X145612570Y-82791599D01*
X145697020Y-82737072D01*
X145781209Y-82658206D01*
X145852694Y-82567790D01*
X145885266Y-82511354D01*
X145904913Y-82467044D01*
X145924254Y-82414583D01*
X145944324Y-82349830D01*
X145966161Y-82268641D01*
X145990800Y-82166874D01*
X146019278Y-82040387D01*
X146052631Y-81885037D01*
X146091896Y-81696681D01*
X146105047Y-81632805D01*
X146133087Y-81496383D01*
X146158920Y-81370823D01*
X146181387Y-81261759D01*
X146199325Y-81174825D01*
X146211573Y-81115655D01*
X146216687Y-81091193D01*
X146219414Y-81073271D01*
X146214537Y-81061033D01*
X146196030Y-81053394D01*
X146157867Y-81049270D01*
X146094021Y-81047578D01*
X145998467Y-81047234D01*
X145972258Y-81047231D01*
X145718423Y-81047231D01*
X145707000Y-81100962D01*
X145679534Y-81231243D01*
X145648930Y-81378303D01*
X145616087Y-81537652D01*
X145581903Y-81704804D01*
X145547278Y-81875268D01*
X145513112Y-82044558D01*
X145480302Y-82208184D01*
X145449749Y-82361658D01*
X145422352Y-82500492D01*
X145399009Y-82620197D01*
X145380620Y-82716284D01*
X145368085Y-82784267D01*
X145362302Y-82819655D01*
X145362015Y-82823002D01*
X144033683Y-82823002D01*
X144035885Y-82812776D01*
X144085834Y-82581625D01*
X144133918Y-82359965D01*
X144179370Y-82151289D01*
X144221422Y-81959093D01*
X144259308Y-81786869D01*
X144292261Y-81638113D01*
X144319514Y-81516317D01*
X144340301Y-81424976D01*
X144353853Y-81367584D01*
X144355791Y-81359847D01*
X144369268Y-81303651D01*
X144388590Y-81218520D01*
X144411687Y-81113785D01*
X144436493Y-80998776D01*
X144451130Y-80929699D01*
X144490097Y-80749231D01*
X144524861Y-80599653D01*
X144538866Y-80545400D01*
G37*
X144538866Y-80545400D02*
X145791765Y-80545400D01*
X145808790Y-80625118D01*
X145855279Y-80688182D01*
X145924008Y-80731387D01*
X146007750Y-80751528D01*
X146099281Y-80745402D01*
X146178355Y-80716867D01*
X146267279Y-80656942D01*
X146328991Y-80586406D01*
X146362928Y-80511192D01*
X146368530Y-80437233D01*
X146345232Y-80370460D01*
X146292474Y-80316807D01*
X146219318Y-80284633D01*
X146118436Y-80273397D01*
X146019567Y-80290235D01*
X145930089Y-80330648D01*
X145857381Y-80390136D01*
X145808820Y-80464200D01*
X145791765Y-80545400D01*
X144538866Y-80545400D01*
X144557483Y-80473281D01*
X144590020Y-80362434D01*
X144624531Y-80259427D01*
X144647375Y-80197308D01*
X144748428Y-79979575D01*
X144875763Y-79790657D01*
X145029621Y-79630349D01*
X145210240Y-79498443D01*
X145417859Y-79394733D01*
X145652717Y-79319012D01*
X145667126Y-79315488D01*
X145702786Y-79308078D01*
X145745661Y-79301745D01*
X145799193Y-79296368D01*
X145866826Y-79291825D01*
X145952001Y-79287996D01*
X146058162Y-79284760D01*
X146188750Y-79281996D01*
X146347208Y-79279583D01*
X146536978Y-79277400D01*
X146761503Y-79275325D01*
X146824854Y-79274798D01*
X147022626Y-79273499D01*
X147208203Y-79272895D01*
X147377938Y-79272956D01*
X147528183Y-79273652D01*
X147655290Y-79274952D01*
X147755614Y-79276828D01*
X147825507Y-79279247D01*
X147861322Y-79282181D01*
X147865206Y-79283391D01*
X147865710Y-79307521D01*
X147856633Y-79368607D01*
X147838163Y-79465769D01*
X147810489Y-79598127D01*
X147773800Y-79764802D01*
X147728284Y-79964915D01*
X147674130Y-80197584D01*
X147618717Y-80431770D01*
X147604581Y-80492124D01*
X147584138Y-80580731D01*
X147559650Y-80687715D01*
X147533382Y-80803204D01*
X147520161Y-80861616D01*
X147491474Y-80987732D01*
X147461062Y-81119998D01*
X147431986Y-81245188D01*
X147407309Y-81350073D01*
X147400315Y-81379385D01*
X147374892Y-81486441D01*
X147343952Y-81618433D01*
X147309282Y-81767570D01*
X147272672Y-81926060D01*
X147235911Y-82086113D01*
X147200788Y-82239937D01*
X147169092Y-82379742D01*
X147142612Y-82497736D01*
X147123137Y-82586128D01*
X147121891Y-82591895D01*
X147060121Y-82816493D01*
X146976584Y-83012790D01*
X146868111Y-83186852D01*
X146731538Y-83344742D01*
X146725925Y-83350333D01*
X146588836Y-83472173D01*
X146448500Y-83565624D01*
X146290392Y-83639712D01*
X146216873Y-83666651D01*
X146153259Y-83687287D01*
X146089823Y-83704796D01*
X146022832Y-83719429D01*
X145948551Y-83731437D01*
X145863247Y-83741070D01*
X145763187Y-83748577D01*
X145644635Y-83754211D01*
X145503859Y-83758220D01*
X145337124Y-83760855D01*
X145140697Y-83762368D01*
X144910843Y-83763007D01*
X144778871Y-83763077D01*
X143833409Y-83763077D01*
X143846648Y-83670270D01*
X143858836Y-83600072D01*
X143873462Y-83535717D01*
X143878288Y-83518847D01*
X143887814Y-83482577D01*
X143903922Y-83414703D01*
X143925109Y-83321850D01*
X143949869Y-83210643D01*
X143976695Y-83087710D01*
X143984837Y-83049924D01*
X144033683Y-82823002D01*
X145362015Y-82823002D01*
X145378617Y-82838051D01*
X145422153Y-82841030D01*
X145482810Y-82833166D01*
X145550779Y-82815691D01*
X145612570Y-82791599D01*
X145697020Y-82737072D01*
X145781209Y-82658206D01*
X145852694Y-82567790D01*
X145885266Y-82511354D01*
X145904913Y-82467044D01*
X145924254Y-82414583D01*
X145944324Y-82349830D01*
X145966161Y-82268641D01*
X145990800Y-82166874D01*
X146019278Y-82040387D01*
X146052631Y-81885037D01*
X146091896Y-81696681D01*
X146105047Y-81632805D01*
X146133087Y-81496383D01*
X146158920Y-81370823D01*
X146181387Y-81261759D01*
X146199325Y-81174825D01*
X146211573Y-81115655D01*
X146216687Y-81091193D01*
X146219414Y-81073271D01*
X146214537Y-81061033D01*
X146196030Y-81053394D01*
X146157867Y-81049270D01*
X146094021Y-81047578D01*
X145998467Y-81047234D01*
X145972258Y-81047231D01*
X145718423Y-81047231D01*
X145707000Y-81100962D01*
X145679534Y-81231243D01*
X145648930Y-81378303D01*
X145616087Y-81537652D01*
X145581903Y-81704804D01*
X145547278Y-81875268D01*
X145513112Y-82044558D01*
X145480302Y-82208184D01*
X145449749Y-82361658D01*
X145422352Y-82500492D01*
X145399009Y-82620197D01*
X145380620Y-82716284D01*
X145368085Y-82784267D01*
X145362302Y-82819655D01*
X145362015Y-82823002D01*
X144033683Y-82823002D01*
X144035885Y-82812776D01*
X144085834Y-82581625D01*
X144133918Y-82359965D01*
X144179370Y-82151289D01*
X144221422Y-81959093D01*
X144259308Y-81786869D01*
X144292261Y-81638113D01*
X144319514Y-81516317D01*
X144340301Y-81424976D01*
X144353853Y-81367584D01*
X144355791Y-81359847D01*
X144369268Y-81303651D01*
X144388590Y-81218520D01*
X144411687Y-81113785D01*
X144436493Y-80998776D01*
X144451130Y-80929699D01*
X144490097Y-80749231D01*
X144524861Y-80599653D01*
X144538866Y-80545400D01*
G36*
X151464278Y-80407892D02*
G01*
X151907380Y-80407892D01*
X151913777Y-80431460D01*
X151931565Y-80487503D01*
X151959239Y-80571610D01*
X151995300Y-80679368D01*
X152038243Y-80806364D01*
X152086566Y-80948184D01*
X152138767Y-81100417D01*
X152193344Y-81258649D01*
X152248794Y-81418468D01*
X152303615Y-81575461D01*
X152344579Y-81692000D01*
X152358376Y-81733009D01*
X152367634Y-81769866D01*
X152371858Y-81808601D01*
X152370554Y-81855242D01*
X152363229Y-81915821D01*
X152349387Y-81996365D01*
X152328537Y-82102905D01*
X152300182Y-82241469D01*
X152299149Y-82246483D01*
X152274365Y-82367201D01*
X152251557Y-82479188D01*
X152232204Y-82575111D01*
X152217786Y-82647634D01*
X152209782Y-82689423D01*
X152209671Y-82690043D01*
X152197198Y-82760009D01*
X152291560Y-82747419D01*
X152370558Y-82730606D01*
X152453120Y-82703921D01*
X152475592Y-82694594D01*
X152579311Y-82631499D01*
X152669723Y-82545561D01*
X152734060Y-82448953D01*
X152734790Y-82447425D01*
X152755758Y-82391086D01*
X152780630Y-82305149D01*
X152807218Y-82198614D01*
X152833337Y-82080484D01*
X152856800Y-81959759D01*
X152865620Y-81908742D01*
X152882256Y-81840860D01*
X152905520Y-81783696D01*
X152919680Y-81762203D01*
X152940410Y-81736608D01*
X152981625Y-81683671D01*
X153040351Y-81607309D01*
X153113620Y-81511438D01*
X153198460Y-81399971D01*
X153291901Y-81276825D01*
X153390972Y-81145915D01*
X153492703Y-81011155D01*
X153594122Y-80876461D01*
X153692259Y-80745749D01*
X153784144Y-80622933D01*
X153787400Y-80618572D01*
X153844767Y-80538833D01*
X153888902Y-80471742D01*
X153916267Y-80423079D01*
X153923322Y-80398624D01*
X153922685Y-80397639D01*
X153894935Y-80386248D01*
X153841966Y-80375265D01*
X153800360Y-80369811D01*
X153667484Y-80373618D01*
X153534991Y-80408784D01*
X153413451Y-80470858D01*
X153313433Y-80555388D01*
X153288477Y-80585420D01*
X153264979Y-80616944D01*
X153236679Y-80655866D01*
X153200590Y-80706413D01*
X153153728Y-80772810D01*
X153093108Y-80859284D01*
X153015746Y-80970062D01*
X152934720Y-81086308D01*
X152865833Y-81184424D01*
X152815234Y-81254042D01*
X152779437Y-81299115D01*
X152754954Y-81323591D01*
X152738299Y-81331422D01*
X152725984Y-81326558D01*
X152724159Y-81324841D01*
X152714529Y-81302386D01*
X152696332Y-81248641D01*
X152671568Y-81169936D01*
X152642234Y-81072601D01*
X152614886Y-80978847D01*
X152571994Y-80832866D01*
X152536137Y-80719407D01*
X152505055Y-80633035D01*
X152476489Y-80568316D01*
X152448179Y-80519816D01*
X152417865Y-80482100D01*
X152401606Y-80465919D01*
X152299113Y-80392303D01*
X152189273Y-80356935D01*
X152070313Y-80359385D01*
X152015017Y-80372219D01*
X151957043Y-80389766D01*
X151917975Y-80402918D01*
X151907380Y-80407892D01*
X151464278Y-80407892D01*
X151477712Y-80360800D01*
X151490664Y-80319491D01*
X151497792Y-80298324D01*
X151591490Y-80067945D01*
X151703624Y-79870810D01*
X151836845Y-79704411D01*
X151993807Y-79566246D01*
X152177161Y-79453808D01*
X152389558Y-79364593D01*
X152532461Y-79321056D01*
X152566794Y-79312387D01*
X152602323Y-79305038D01*
X152642582Y-79298870D01*
X152691106Y-79293747D01*
X152751426Y-79289528D01*
X152827078Y-79286077D01*
X152921594Y-79283254D01*
X153038509Y-79280923D01*
X153181355Y-79278944D01*
X153353667Y-79277179D01*
X153558979Y-79275490D01*
X153729192Y-79274244D01*
X153979272Y-79272818D01*
X154197476Y-79272306D01*
X154382715Y-79272698D01*
X154533901Y-79273980D01*
X154649946Y-79276141D01*
X154729759Y-79279168D01*
X154772254Y-79283050D01*
X154779384Y-79285813D01*
X154775156Y-79311178D01*
X154763623Y-79366840D01*
X154746520Y-79445079D01*
X154725575Y-79538174D01*
X154702522Y-79638405D01*
X154679091Y-79738051D01*
X154662608Y-79806539D01*
X154648454Y-79865555D01*
X154627946Y-79952240D01*
X154603191Y-80057561D01*
X154576299Y-80172480D01*
X154549379Y-80287963D01*
X154524541Y-80394975D01*
X154503893Y-80484479D01*
X154489545Y-80547440D01*
X154487013Y-80558770D01*
X154475609Y-80609158D01*
X154457439Y-80688237D01*
X154434664Y-80786651D01*
X154409445Y-80895047D01*
X154399001Y-80939770D01*
X154372118Y-81055085D01*
X154345560Y-81169562D01*
X154321923Y-81271987D01*
X154303797Y-81351146D01*
X154299611Y-81369616D01*
X154278887Y-81460210D01*
X154254335Y-81565803D01*
X154231469Y-81662693D01*
X154203648Y-81780596D01*
X154169967Y-81925227D01*
X154133048Y-82085167D01*
X154095511Y-82248999D01*
X154059977Y-82405305D01*
X154029067Y-82542666D01*
X154016195Y-82600539D01*
X153945727Y-82842837D01*
X153847712Y-83058365D01*
X153722702Y-83246440D01*
X153571248Y-83406377D01*
X153393903Y-83537494D01*
X153191219Y-83639107D01*
X153171341Y-83646941D01*
X153105828Y-83671461D01*
X153044062Y-83692276D01*
X152982264Y-83709688D01*
X152916654Y-83723998D01*
X152843450Y-83735508D01*
X152758873Y-83744520D01*
X152659142Y-83751336D01*
X152540475Y-83756257D01*
X152399094Y-83759585D01*
X152231217Y-83761623D01*
X152033063Y-83762671D01*
X151800853Y-83763031D01*
X151716731Y-83763051D01*
X150734923Y-83763077D01*
X150734923Y-83716748D01*
X150739034Y-83686448D01*
X150750665Y-83623188D01*
X150768760Y-83532132D01*
X150792263Y-83418445D01*
X150820119Y-83287291D01*
X150851272Y-83143834D01*
X150861714Y-83096402D01*
X150895833Y-82941866D01*
X150929188Y-82790647D01*
X150960292Y-82649508D01*
X150987655Y-82525208D01*
X151009788Y-82424509D01*
X151025202Y-82354173D01*
X151026868Y-82346539D01*
X151047938Y-82250373D01*
X151073629Y-82133727D01*
X151100046Y-82014258D01*
X151115196Y-81946000D01*
X151134767Y-81857933D01*
X151160656Y-81741347D01*
X151190725Y-81605875D01*
X151222837Y-81461149D01*
X151254854Y-81316802D01*
X151262639Y-81281693D01*
X151308939Y-81073300D01*
X151347853Y-80899247D01*
X151380300Y-80755690D01*
X151407200Y-80638785D01*
X151429472Y-80544688D01*
X151448035Y-80469554D01*
X151463809Y-80409539D01*
X151464278Y-80407892D01*
G37*
X151464278Y-80407892D02*
X151907380Y-80407892D01*
X151913777Y-80431460D01*
X151931565Y-80487503D01*
X151959239Y-80571610D01*
X151995300Y-80679368D01*
X152038243Y-80806364D01*
X152086566Y-80948184D01*
X152138767Y-81100417D01*
X152193344Y-81258649D01*
X152248794Y-81418468D01*
X152303615Y-81575461D01*
X152344579Y-81692000D01*
X152358376Y-81733009D01*
X152367634Y-81769866D01*
X152371858Y-81808601D01*
X152370554Y-81855242D01*
X152363229Y-81915821D01*
X152349387Y-81996365D01*
X152328537Y-82102905D01*
X152300182Y-82241469D01*
X152299149Y-82246483D01*
X152274365Y-82367201D01*
X152251557Y-82479188D01*
X152232204Y-82575111D01*
X152217786Y-82647634D01*
X152209782Y-82689423D01*
X152209671Y-82690043D01*
X152197198Y-82760009D01*
X152291560Y-82747419D01*
X152370558Y-82730606D01*
X152453120Y-82703921D01*
X152475592Y-82694594D01*
X152579311Y-82631499D01*
X152669723Y-82545561D01*
X152734060Y-82448953D01*
X152734790Y-82447425D01*
X152755758Y-82391086D01*
X152780630Y-82305149D01*
X152807218Y-82198614D01*
X152833337Y-82080484D01*
X152856800Y-81959759D01*
X152865620Y-81908742D01*
X152882256Y-81840860D01*
X152905520Y-81783696D01*
X152919680Y-81762203D01*
X152940410Y-81736608D01*
X152981625Y-81683671D01*
X153040351Y-81607309D01*
X153113620Y-81511438D01*
X153198460Y-81399971D01*
X153291901Y-81276825D01*
X153390972Y-81145915D01*
X153492703Y-81011155D01*
X153594122Y-80876461D01*
X153692259Y-80745749D01*
X153784144Y-80622933D01*
X153787400Y-80618572D01*
X153844767Y-80538833D01*
X153888902Y-80471742D01*
X153916267Y-80423079D01*
X153923322Y-80398624D01*
X153922685Y-80397639D01*
X153894935Y-80386248D01*
X153841966Y-80375265D01*
X153800360Y-80369811D01*
X153667484Y-80373618D01*
X153534991Y-80408784D01*
X153413451Y-80470858D01*
X153313433Y-80555388D01*
X153288477Y-80585420D01*
X153264979Y-80616944D01*
X153236679Y-80655866D01*
X153200590Y-80706413D01*
X153153728Y-80772810D01*
X153093108Y-80859284D01*
X153015746Y-80970062D01*
X152934720Y-81086308D01*
X152865833Y-81184424D01*
X152815234Y-81254042D01*
X152779437Y-81299115D01*
X152754954Y-81323591D01*
X152738299Y-81331422D01*
X152725984Y-81326558D01*
X152724159Y-81324841D01*
X152714529Y-81302386D01*
X152696332Y-81248641D01*
X152671568Y-81169936D01*
X152642234Y-81072601D01*
X152614886Y-80978847D01*
X152571994Y-80832866D01*
X152536137Y-80719407D01*
X152505055Y-80633035D01*
X152476489Y-80568316D01*
X152448179Y-80519816D01*
X152417865Y-80482100D01*
X152401606Y-80465919D01*
X152299113Y-80392303D01*
X152189273Y-80356935D01*
X152070313Y-80359385D01*
X152015017Y-80372219D01*
X151957043Y-80389766D01*
X151917975Y-80402918D01*
X151907380Y-80407892D01*
X151464278Y-80407892D01*
X151477712Y-80360800D01*
X151490664Y-80319491D01*
X151497792Y-80298324D01*
X151591490Y-80067945D01*
X151703624Y-79870810D01*
X151836845Y-79704411D01*
X151993807Y-79566246D01*
X152177161Y-79453808D01*
X152389558Y-79364593D01*
X152532461Y-79321056D01*
X152566794Y-79312387D01*
X152602323Y-79305038D01*
X152642582Y-79298870D01*
X152691106Y-79293747D01*
X152751426Y-79289528D01*
X152827078Y-79286077D01*
X152921594Y-79283254D01*
X153038509Y-79280923D01*
X153181355Y-79278944D01*
X153353667Y-79277179D01*
X153558979Y-79275490D01*
X153729192Y-79274244D01*
X153979272Y-79272818D01*
X154197476Y-79272306D01*
X154382715Y-79272698D01*
X154533901Y-79273980D01*
X154649946Y-79276141D01*
X154729759Y-79279168D01*
X154772254Y-79283050D01*
X154779384Y-79285813D01*
X154775156Y-79311178D01*
X154763623Y-79366840D01*
X154746520Y-79445079D01*
X154725575Y-79538174D01*
X154702522Y-79638405D01*
X154679091Y-79738051D01*
X154662608Y-79806539D01*
X154648454Y-79865555D01*
X154627946Y-79952240D01*
X154603191Y-80057561D01*
X154576299Y-80172480D01*
X154549379Y-80287963D01*
X154524541Y-80394975D01*
X154503893Y-80484479D01*
X154489545Y-80547440D01*
X154487013Y-80558770D01*
X154475609Y-80609158D01*
X154457439Y-80688237D01*
X154434664Y-80786651D01*
X154409445Y-80895047D01*
X154399001Y-80939770D01*
X154372118Y-81055085D01*
X154345560Y-81169562D01*
X154321923Y-81271987D01*
X154303797Y-81351146D01*
X154299611Y-81369616D01*
X154278887Y-81460210D01*
X154254335Y-81565803D01*
X154231469Y-81662693D01*
X154203648Y-81780596D01*
X154169967Y-81925227D01*
X154133048Y-82085167D01*
X154095511Y-82248999D01*
X154059977Y-82405305D01*
X154029067Y-82542666D01*
X154016195Y-82600539D01*
X153945727Y-82842837D01*
X153847712Y-83058365D01*
X153722702Y-83246440D01*
X153571248Y-83406377D01*
X153393903Y-83537494D01*
X153191219Y-83639107D01*
X153171341Y-83646941D01*
X153105828Y-83671461D01*
X153044062Y-83692276D01*
X152982264Y-83709688D01*
X152916654Y-83723998D01*
X152843450Y-83735508D01*
X152758873Y-83744520D01*
X152659142Y-83751336D01*
X152540475Y-83756257D01*
X152399094Y-83759585D01*
X152231217Y-83761623D01*
X152033063Y-83762671D01*
X151800853Y-83763031D01*
X151716731Y-83763051D01*
X150734923Y-83763077D01*
X150734923Y-83716748D01*
X150739034Y-83686448D01*
X150750665Y-83623188D01*
X150768760Y-83532132D01*
X150792263Y-83418445D01*
X150820119Y-83287291D01*
X150851272Y-83143834D01*
X150861714Y-83096402D01*
X150895833Y-82941866D01*
X150929188Y-82790647D01*
X150960292Y-82649508D01*
X150987655Y-82525208D01*
X151009788Y-82424509D01*
X151025202Y-82354173D01*
X151026868Y-82346539D01*
X151047938Y-82250373D01*
X151073629Y-82133727D01*
X151100046Y-82014258D01*
X151115196Y-81946000D01*
X151134767Y-81857933D01*
X151160656Y-81741347D01*
X151190725Y-81605875D01*
X151222837Y-81461149D01*
X151254854Y-81316802D01*
X151262639Y-81281693D01*
X151308939Y-81073300D01*
X151347853Y-80899247D01*
X151380300Y-80755690D01*
X151407200Y-80638785D01*
X151429472Y-80544688D01*
X151448035Y-80469554D01*
X151463809Y-80409539D01*
X151464278Y-80407892D01*
G36*
X147496703Y-82729634D02*
G01*
X148276394Y-82729634D01*
X148289742Y-82743340D01*
X148330121Y-82746977D01*
X148348717Y-82747077D01*
X148419809Y-82739432D01*
X148495819Y-82720480D01*
X148512027Y-82714688D01*
X148606970Y-82665621D01*
X148699135Y-82597127D01*
X148774177Y-82520644D01*
X148799069Y-82485811D01*
X148828583Y-82422396D01*
X148860793Y-82325163D01*
X148894301Y-82199154D01*
X148927713Y-82049412D01*
X148946874Y-81951661D01*
X148974474Y-81808663D01*
X148997228Y-81701774D01*
X149015790Y-81628415D01*
X149030815Y-81586006D01*
X149042956Y-81571969D01*
X149043126Y-81571961D01*
X149051203Y-81577473D01*
X149065166Y-81596051D01*
X149086417Y-81630281D01*
X149116362Y-81682750D01*
X149156404Y-81756044D01*
X149207946Y-81852748D01*
X149272393Y-81975449D01*
X149351148Y-82126732D01*
X149445616Y-82309184D01*
X149490137Y-82395385D01*
X149544776Y-82500906D01*
X149593413Y-82594208D01*
X149633181Y-82669841D01*
X149661214Y-82722361D01*
X149674646Y-82746320D01*
X149675191Y-82747077D01*
X149692199Y-82740452D01*
X149724333Y-82709515D01*
X149764884Y-82662364D01*
X149807144Y-82607096D01*
X149844405Y-82551807D01*
X149861364Y-82522385D01*
X149885100Y-82465085D01*
X149898285Y-82397650D01*
X149903282Y-82306936D01*
X149903489Y-82287924D01*
X149902492Y-82224537D01*
X149897050Y-82168103D01*
X149884796Y-82112383D01*
X149863361Y-82051139D01*
X149830381Y-81978133D01*
X149783486Y-81887128D01*
X149720310Y-81771886D01*
X149681059Y-81701770D01*
X149640413Y-81627362D01*
X149608872Y-81565633D01*
X149590290Y-81524377D01*
X149587086Y-81511771D01*
X149601385Y-81495047D01*
X149640000Y-81453591D01*
X149699885Y-81390573D01*
X149777997Y-81309166D01*
X149871293Y-81212539D01*
X149976731Y-81103863D01*
X150091265Y-80986310D01*
X150099923Y-80977444D01*
X150215190Y-80858902D01*
X150321610Y-80748475D01*
X150416119Y-80649414D01*
X150495654Y-80564975D01*
X150557152Y-80498411D01*
X150597550Y-80452975D01*
X150613785Y-80431920D01*
X150613928Y-80431483D01*
X150599299Y-80410914D01*
X150545696Y-80391214D01*
X150508491Y-80382562D01*
X150381219Y-80372062D01*
X150247157Y-80387890D01*
X150123579Y-80427480D01*
X150088680Y-80444966D01*
X150058588Y-80468076D01*
X150005193Y-80515796D01*
X149932230Y-80584519D01*
X149843430Y-80670637D01*
X149742526Y-80770544D01*
X149633251Y-80880634D01*
X149553484Y-80962124D01*
X149436543Y-81081297D01*
X149331016Y-81186902D01*
X149239668Y-81276297D01*
X149165264Y-81346841D01*
X149110568Y-81395892D01*
X149078347Y-81420809D01*
X149070964Y-81423088D01*
X149067759Y-81397546D01*
X149073065Y-81341174D01*
X149085976Y-81261069D01*
X149101615Y-81182607D01*
X149121617Y-81088274D01*
X149144324Y-80979618D01*
X149168431Y-80863061D01*
X149192634Y-80745028D01*
X149215627Y-80631941D01*
X149236105Y-80530226D01*
X149252764Y-80446304D01*
X149264298Y-80386600D01*
X149269403Y-80357537D01*
X149269538Y-80356031D01*
X149252390Y-80351281D01*
X149207672Y-80355285D01*
X149145468Y-80366361D01*
X149075867Y-80382829D01*
X149030774Y-80395835D01*
X148926122Y-80446148D01*
X148828337Y-80524498D01*
X148748790Y-80620116D01*
X148704909Y-80704484D01*
X148687092Y-80761372D01*
X148664678Y-80846762D01*
X148640085Y-80950715D01*
X148615732Y-81063291D01*
X148606486Y-81109080D01*
X148582228Y-81230856D01*
X148552729Y-81377210D01*
X148520765Y-81534475D01*
X148489110Y-81688983D01*
X148468308Y-81789693D01*
X148439797Y-81927576D01*
X148410107Y-82071914D01*
X148381644Y-82210968D01*
X148356810Y-82332996D01*
X148341036Y-82411158D01*
X148321474Y-82507739D01*
X148303643Y-82594078D01*
X148289484Y-82660886D01*
X148280938Y-82698873D01*
X148280819Y-82699351D01*
X148276394Y-82729634D01*
X147496703Y-82729634D01*
X147501307Y-82708000D01*
X147520924Y-82615309D01*
X147542122Y-82518080D01*
X147558745Y-82444231D01*
X147577265Y-82362524D01*
X147598915Y-82264901D01*
X147617287Y-82180462D01*
X147637624Y-82087839D01*
X147659637Y-81990670D01*
X147676969Y-81916693D01*
X147690635Y-81857523D01*
X147710246Y-81769500D01*
X147733742Y-81662019D01*
X147759064Y-81544475D01*
X147775487Y-81467308D01*
X147801766Y-81344170D01*
X147828399Y-81221087D01*
X147853054Y-81108720D01*
X147873398Y-81017733D01*
X147882330Y-80978847D01*
X147904242Y-80884296D01*
X147929964Y-80772175D01*
X147954783Y-80663051D01*
X147960684Y-80636924D01*
X148031467Y-80370179D01*
X148116408Y-80138133D01*
X148216999Y-79938518D01*
X148334730Y-79769066D01*
X148471093Y-79627508D01*
X148627576Y-79511577D01*
X148742000Y-79448295D01*
X148812262Y-79414098D01*
X148875187Y-79384942D01*
X148934501Y-79360403D01*
X148993934Y-79340055D01*
X149057213Y-79323470D01*
X149128067Y-79310223D01*
X149210223Y-79299888D01*
X149307410Y-79292038D01*
X149423355Y-79286249D01*
X149561788Y-79282092D01*
X149726435Y-79279144D01*
X149921026Y-79276976D01*
X150149288Y-79275164D01*
X150263918Y-79274352D01*
X150462254Y-79273247D01*
X150648755Y-79272766D01*
X150819780Y-79272881D01*
X150971684Y-79273561D01*
X151100826Y-79274779D01*
X151203562Y-79276504D01*
X151276250Y-79278708D01*
X151315246Y-79281362D01*
X151320922Y-79282781D01*
X151319597Y-79304606D01*
X151310082Y-79360370D01*
X151293236Y-79445996D01*
X151269921Y-79557409D01*
X151240999Y-79690533D01*
X151207329Y-79841292D01*
X151169774Y-80005610D01*
X151152492Y-80080077D01*
X151110330Y-80260990D01*
X151068591Y-80440226D01*
X151028643Y-80611890D01*
X150991857Y-80770090D01*
X150959603Y-80908932D01*
X150933252Y-81022524D01*
X150914174Y-81104971D01*
X150911718Y-81115616D01*
X150882195Y-81243135D01*
X150848383Y-81388374D01*
X150815016Y-81531029D01*
X150793249Y-81623616D01*
X150738895Y-81856319D01*
X150691520Y-82064145D01*
X150657020Y-82219539D01*
X150611922Y-82420872D01*
X150572789Y-82586154D01*
X150538994Y-82717851D01*
X150509911Y-82818431D01*
X150489701Y-82877917D01*
X150398146Y-83068869D01*
X150274069Y-83245656D01*
X150123078Y-83402662D01*
X149950780Y-83534277D01*
X149762783Y-83634887D01*
X149713702Y-83654645D01*
X149649919Y-83677675D01*
X149588284Y-83697218D01*
X149525039Y-83713557D01*
X149456424Y-83726976D01*
X149378683Y-83737756D01*
X149288055Y-83746180D01*
X149180784Y-83752531D01*
X149053110Y-83757091D01*
X148901274Y-83760143D01*
X148721520Y-83761970D01*
X148510087Y-83762853D01*
X148271670Y-83763077D01*
X148025157Y-83762681D01*
X147812584Y-83761504D01*
X147634777Y-83759561D01*
X147492564Y-83756870D01*
X147386772Y-83753448D01*
X147318230Y-83749310D01*
X147287764Y-83744473D01*
X147286307Y-83743414D01*
X147286542Y-83718476D01*
X147294950Y-83660541D01*
X147310520Y-83574594D01*
X147332241Y-83465621D01*
X147359101Y-83338606D01*
X147390089Y-83198534D01*
X147424193Y-83050391D01*
X147442837Y-82971770D01*
X147461753Y-82889960D01*
X147483383Y-82792225D01*
X147496703Y-82729634D01*
G37*
X147496703Y-82729634D02*
X148276394Y-82729634D01*
X148289742Y-82743340D01*
X148330121Y-82746977D01*
X148348717Y-82747077D01*
X148419809Y-82739432D01*
X148495819Y-82720480D01*
X148512027Y-82714688D01*
X148606970Y-82665621D01*
X148699135Y-82597127D01*
X148774177Y-82520644D01*
X148799069Y-82485811D01*
X148828583Y-82422396D01*
X148860793Y-82325163D01*
X148894301Y-82199154D01*
X148927713Y-82049412D01*
X148946874Y-81951661D01*
X148974474Y-81808663D01*
X148997228Y-81701774D01*
X149015790Y-81628415D01*
X149030815Y-81586006D01*
X149042956Y-81571969D01*
X149043126Y-81571961D01*
X149051203Y-81577473D01*
X149065166Y-81596051D01*
X149086417Y-81630281D01*
X149116362Y-81682750D01*
X149156404Y-81756044D01*
X149207946Y-81852748D01*
X149272393Y-81975449D01*
X149351148Y-82126732D01*
X149445616Y-82309184D01*
X149490137Y-82395385D01*
X149544776Y-82500906D01*
X149593413Y-82594208D01*
X149633181Y-82669841D01*
X149661214Y-82722361D01*
X149674646Y-82746320D01*
X149675191Y-82747077D01*
X149692199Y-82740452D01*
X149724333Y-82709515D01*
X149764884Y-82662364D01*
X149807144Y-82607096D01*
X149844405Y-82551807D01*
X149861364Y-82522385D01*
X149885100Y-82465085D01*
X149898285Y-82397650D01*
X149903282Y-82306936D01*
X149903489Y-82287924D01*
X149902492Y-82224537D01*
X149897050Y-82168103D01*
X149884796Y-82112383D01*
X149863361Y-82051139D01*
X149830381Y-81978133D01*
X149783486Y-81887128D01*
X149720310Y-81771886D01*
X149681059Y-81701770D01*
X149640413Y-81627362D01*
X149608872Y-81565633D01*
X149590290Y-81524377D01*
X149587086Y-81511771D01*
X149601385Y-81495047D01*
X149640000Y-81453591D01*
X149699885Y-81390573D01*
X149777997Y-81309166D01*
X149871293Y-81212539D01*
X149976731Y-81103863D01*
X150091265Y-80986310D01*
X150099923Y-80977444D01*
X150215190Y-80858902D01*
X150321610Y-80748475D01*
X150416119Y-80649414D01*
X150495654Y-80564975D01*
X150557152Y-80498411D01*
X150597550Y-80452975D01*
X150613785Y-80431920D01*
X150613928Y-80431483D01*
X150599299Y-80410914D01*
X150545696Y-80391214D01*
X150508491Y-80382562D01*
X150381219Y-80372062D01*
X150247157Y-80387890D01*
X150123579Y-80427480D01*
X150088680Y-80444966D01*
X150058588Y-80468076D01*
X150005193Y-80515796D01*
X149932230Y-80584519D01*
X149843430Y-80670637D01*
X149742526Y-80770544D01*
X149633251Y-80880634D01*
X149553484Y-80962124D01*
X149436543Y-81081297D01*
X149331016Y-81186902D01*
X149239668Y-81276297D01*
X149165264Y-81346841D01*
X149110568Y-81395892D01*
X149078347Y-81420809D01*
X149070964Y-81423088D01*
X149067759Y-81397546D01*
X149073065Y-81341174D01*
X149085976Y-81261069D01*
X149101615Y-81182607D01*
X149121617Y-81088274D01*
X149144324Y-80979618D01*
X149168431Y-80863061D01*
X149192634Y-80745028D01*
X149215627Y-80631941D01*
X149236105Y-80530226D01*
X149252764Y-80446304D01*
X149264298Y-80386600D01*
X149269403Y-80357537D01*
X149269538Y-80356031D01*
X149252390Y-80351281D01*
X149207672Y-80355285D01*
X149145468Y-80366361D01*
X149075867Y-80382829D01*
X149030774Y-80395835D01*
X148926122Y-80446148D01*
X148828337Y-80524498D01*
X148748790Y-80620116D01*
X148704909Y-80704484D01*
X148687092Y-80761372D01*
X148664678Y-80846762D01*
X148640085Y-80950715D01*
X148615732Y-81063291D01*
X148606486Y-81109080D01*
X148582228Y-81230856D01*
X148552729Y-81377210D01*
X148520765Y-81534475D01*
X148489110Y-81688983D01*
X148468308Y-81789693D01*
X148439797Y-81927576D01*
X148410107Y-82071914D01*
X148381644Y-82210968D01*
X148356810Y-82332996D01*
X148341036Y-82411158D01*
X148321474Y-82507739D01*
X148303643Y-82594078D01*
X148289484Y-82660886D01*
X148280938Y-82698873D01*
X148280819Y-82699351D01*
X148276394Y-82729634D01*
X147496703Y-82729634D01*
X147501307Y-82708000D01*
X147520924Y-82615309D01*
X147542122Y-82518080D01*
X147558745Y-82444231D01*
X147577265Y-82362524D01*
X147598915Y-82264901D01*
X147617287Y-82180462D01*
X147637624Y-82087839D01*
X147659637Y-81990670D01*
X147676969Y-81916693D01*
X147690635Y-81857523D01*
X147710246Y-81769500D01*
X147733742Y-81662019D01*
X147759064Y-81544475D01*
X147775487Y-81467308D01*
X147801766Y-81344170D01*
X147828399Y-81221087D01*
X147853054Y-81108720D01*
X147873398Y-81017733D01*
X147882330Y-80978847D01*
X147904242Y-80884296D01*
X147929964Y-80772175D01*
X147954783Y-80663051D01*
X147960684Y-80636924D01*
X148031467Y-80370179D01*
X148116408Y-80138133D01*
X148216999Y-79938518D01*
X148334730Y-79769066D01*
X148471093Y-79627508D01*
X148627576Y-79511577D01*
X148742000Y-79448295D01*
X148812262Y-79414098D01*
X148875187Y-79384942D01*
X148934501Y-79360403D01*
X148993934Y-79340055D01*
X149057213Y-79323470D01*
X149128067Y-79310223D01*
X149210223Y-79299888D01*
X149307410Y-79292038D01*
X149423355Y-79286249D01*
X149561788Y-79282092D01*
X149726435Y-79279144D01*
X149921026Y-79276976D01*
X150149288Y-79275164D01*
X150263918Y-79274352D01*
X150462254Y-79273247D01*
X150648755Y-79272766D01*
X150819780Y-79272881D01*
X150971684Y-79273561D01*
X151100826Y-79274779D01*
X151203562Y-79276504D01*
X151276250Y-79278708D01*
X151315246Y-79281362D01*
X151320922Y-79282781D01*
X151319597Y-79304606D01*
X151310082Y-79360370D01*
X151293236Y-79445996D01*
X151269921Y-79557409D01*
X151240999Y-79690533D01*
X151207329Y-79841292D01*
X151169774Y-80005610D01*
X151152492Y-80080077D01*
X151110330Y-80260990D01*
X151068591Y-80440226D01*
X151028643Y-80611890D01*
X150991857Y-80770090D01*
X150959603Y-80908932D01*
X150933252Y-81022524D01*
X150914174Y-81104971D01*
X150911718Y-81115616D01*
X150882195Y-81243135D01*
X150848383Y-81388374D01*
X150815016Y-81531029D01*
X150793249Y-81623616D01*
X150738895Y-81856319D01*
X150691520Y-82064145D01*
X150657020Y-82219539D01*
X150611922Y-82420872D01*
X150572789Y-82586154D01*
X150538994Y-82717851D01*
X150509911Y-82818431D01*
X150489701Y-82877917D01*
X150398146Y-83068869D01*
X150274069Y-83245656D01*
X150123078Y-83402662D01*
X149950780Y-83534277D01*
X149762783Y-83634887D01*
X149713702Y-83654645D01*
X149649919Y-83677675D01*
X149588284Y-83697218D01*
X149525039Y-83713557D01*
X149456424Y-83726976D01*
X149378683Y-83737756D01*
X149288055Y-83746180D01*
X149180784Y-83752531D01*
X149053110Y-83757091D01*
X148901274Y-83760143D01*
X148721520Y-83761970D01*
X148510087Y-83762853D01*
X148271670Y-83763077D01*
X148025157Y-83762681D01*
X147812584Y-83761504D01*
X147634777Y-83759561D01*
X147492564Y-83756870D01*
X147386772Y-83753448D01*
X147318230Y-83749310D01*
X147287764Y-83744473D01*
X147286307Y-83743414D01*
X147286542Y-83718476D01*
X147294950Y-83660541D01*
X147310520Y-83574594D01*
X147332241Y-83465621D01*
X147359101Y-83338606D01*
X147390089Y-83198534D01*
X147424193Y-83050391D01*
X147442837Y-82971770D01*
X147461753Y-82889960D01*
X147483383Y-82792225D01*
X147496703Y-82729634D01*
D12*
G04 #@! TO.C,C12*
X149337836Y-87110000D02*
X149122164Y-87110000D01*
X149337836Y-86390000D02*
X149122164Y-86390000D01*
G04 #@! TO.C,C14*
X149472164Y-101060000D02*
X149687836Y-101060000D01*
X149472164Y-101780000D02*
X149687836Y-101780000D01*
D13*
G04 #@! TO.C,Y2*
X148975000Y-103950000D02*
X147975000Y-103950000D01*
X147975000Y-102250000D02*
X148975000Y-102250000D01*
D12*
G04 #@! TO.C,C4*
X147370000Y-88992164D02*
X147370000Y-89207836D01*
X146650000Y-88992164D02*
X146650000Y-89207836D01*
G04 #@! TO.C,C13*
X147797836Y-101770000D02*
X147582164Y-101770000D01*
X147797836Y-101050000D02*
X147582164Y-101050000D01*
D13*
G04 #@! TO.C,Y1*
X143670000Y-90925000D02*
X143350000Y-90925000D01*
X144970000Y-90925000D02*
X145290000Y-90925000D01*
X143350000Y-90605000D02*
X143350000Y-90925000D01*
X145290000Y-90605000D02*
X145290000Y-90925000D01*
X145290000Y-89945000D02*
X145290000Y-89565000D01*
X143350000Y-89565000D02*
X143350000Y-89945000D01*
X143350000Y-88905000D02*
X143350000Y-88585000D01*
X145290000Y-88905000D02*
X145290000Y-88585000D01*
X143670000Y-88585000D02*
X143350000Y-88585000D01*
X144970000Y-88585000D02*
X145290000Y-88585000D01*
D12*
G04 #@! TO.C,C3*
X145615000Y-100682836D02*
X145615000Y-100467164D01*
X146335000Y-100682836D02*
X146335000Y-100467164D01*
G04 #@! TO.C,C15*
X153752164Y-95770000D02*
X153967836Y-95770000D01*
X153752164Y-96490000D02*
X153967836Y-96490000D01*
G04 #@! TD*
M02*
