G04 #@! TF.GenerationSoftware,KiCad,Pcbnew,(7.0.0)*
G04 #@! TF.CreationDate,2023-04-22T14:23:37+07:00*
G04 #@! TF.ProjectId,nrf52840-qfaa-breakout,6e726635-3238-4343-902d-716661612d62,rev?*
G04 #@! TF.SameCoordinates,Original*
G04 #@! TF.FileFunction,Soldermask,Top*
G04 #@! TF.FilePolarity,Negative*
%FSLAX46Y46*%
G04 Gerber Fmt 4.6, Leading zero omitted, Abs format (unit mm)*
G04 Created by KiCad (PCBNEW (7.0.0)) date 2023-04-22 14:23:37*
%MOMM*%
%LPD*%
G01*
G04 APERTURE LIST*
G04 Aperture macros list*
%AMRoundRect*
0 Rectangle with rounded corners*
0 $1 Rounding radius*
0 $2 $3 $4 $5 $6 $7 $8 $9 X,Y pos of 4 corners*
0 Add a 4 corners polygon primitive as box body*
4,1,4,$2,$3,$4,$5,$6,$7,$8,$9,$2,$3,0*
0 Add four circle primitives for the rounded corners*
1,1,$1+$1,$2,$3*
1,1,$1+$1,$4,$5*
1,1,$1+$1,$6,$7*
1,1,$1+$1,$8,$9*
0 Add four rect primitives between the rounded corners*
20,1,$1+$1,$2,$3,$4,$5,0*
20,1,$1+$1,$4,$5,$6,$7,0*
20,1,$1+$1,$6,$7,$8,$9,0*
20,1,$1+$1,$8,$9,$2,$3,0*%
G04 Aperture macros list end*
%ADD10RoundRect,0.101600X-0.550000X-0.500000X0.550000X-0.500000X0.550000X0.500000X-0.550000X0.500000X0*%
%ADD11R,1.700000X1.700000*%
%ADD12O,1.700000X1.700000*%
%ADD13RoundRect,0.225000X-0.250000X0.225000X-0.250000X-0.225000X0.250000X-0.225000X0.250000X0.225000X0*%
%ADD14C,2.082800*%
%ADD15RoundRect,0.101600X-0.450000X0.425000X-0.450000X-0.425000X0.450000X-0.425000X0.450000X0.425000X0*%
%ADD16RoundRect,0.140000X0.140000X0.170000X-0.140000X0.170000X-0.140000X-0.170000X0.140000X-0.170000X0*%
%ADD17RoundRect,0.101600X0.500000X-0.450000X0.500000X0.450000X-0.500000X0.450000X-0.500000X-0.450000X0*%
%ADD18RoundRect,0.140000X-0.170000X0.140000X-0.170000X-0.140000X0.170000X-0.140000X0.170000X0.140000X0*%
%ADD19RoundRect,0.218750X0.218750X0.256250X-0.218750X0.256250X-0.218750X-0.256250X0.218750X-0.256250X0*%
%ADD20RoundRect,0.150000X-0.512500X-0.150000X0.512500X-0.150000X0.512500X0.150000X-0.512500X0.150000X0*%
%ADD21RoundRect,0.050000X0.050000X-0.350000X0.050000X0.350000X-0.050000X0.350000X-0.050000X-0.350000X0*%
%ADD22RoundRect,0.050000X0.350000X-0.050000X0.350000X0.050000X-0.350000X0.050000X-0.350000X-0.050000X0*%
%ADD23R,4.600000X4.600000*%
%ADD24RoundRect,0.140000X0.170000X-0.140000X0.170000X0.140000X-0.170000X0.140000X-0.170000X-0.140000X0*%
%ADD25RoundRect,0.140000X-0.140000X-0.170000X0.140000X-0.170000X0.140000X0.170000X-0.140000X0.170000X0*%
%ADD26RoundRect,0.101600X0.500000X0.900000X-0.500000X0.900000X-0.500000X-0.900000X0.500000X-0.900000X0*%
%ADD27RoundRect,0.101600X0.350000X-0.375000X0.350000X0.375000X-0.350000X0.375000X-0.350000X-0.375000X0*%
%ADD28RoundRect,0.101600X-0.350000X0.375000X-0.350000X-0.375000X0.350000X-0.375000X0.350000X0.375000X0*%
G04 APERTURE END LIST*
D10*
G04 #@! TO.C,R2*
X145100000Y-115800000D03*
X146800000Y-115800000D03*
G04 #@! TD*
D11*
G04 #@! TO.C,J5*
X146409999Y-111039999D03*
D12*
X148949999Y-111039999D03*
X151489999Y-111039999D03*
G04 #@! TD*
D13*
G04 #@! TO.C,C2*
X151700000Y-123875000D03*
X151700000Y-125425000D03*
G04 #@! TD*
D14*
G04 #@! TO.C,J4*
X156150000Y-127220000D03*
X156150000Y-124680000D03*
X156150000Y-122140000D03*
X156150000Y-119600000D03*
X156150000Y-117060000D03*
X156150000Y-114520000D03*
X156150000Y-111980000D03*
X156150000Y-109440000D03*
X156150000Y-106900000D03*
X156150000Y-104360000D03*
X156150000Y-101820000D03*
X156150000Y-99280000D03*
X156150000Y-96740000D03*
X156150000Y-94200000D03*
X156150000Y-91660000D03*
X156150000Y-89120000D03*
X156150000Y-86580000D03*
G04 #@! TD*
D15*
G04 #@! TO.C,L1*
X149675000Y-87920000D03*
X149675000Y-89080000D03*
G04 #@! TD*
D14*
G04 #@! TO.C,J1*
X142130000Y-129750000D03*
X144670000Y-129750000D03*
X147210000Y-129750000D03*
X149750000Y-129750000D03*
X152290000Y-129750000D03*
X154830000Y-129750000D03*
G04 #@! TD*
D16*
G04 #@! TO.C,C10*
X144760000Y-91520000D03*
X143800000Y-91520000D03*
G04 #@! TD*
D17*
G04 #@! TO.C,SW1*
X146750000Y-121675000D03*
X146750000Y-117575000D03*
X145150000Y-117575000D03*
X145150000Y-121675000D03*
G04 #@! TD*
D16*
G04 #@! TO.C,C9*
X144770000Y-87940000D03*
X143810000Y-87940000D03*
G04 #@! TD*
D13*
G04 #@! TO.C,C17*
X144700000Y-99900000D03*
X144700000Y-101450000D03*
G04 #@! TD*
D14*
G04 #@! TO.C,J3*
X140875000Y-127200000D03*
X140875000Y-124660000D03*
X140875000Y-122120000D03*
X140875000Y-119580000D03*
X140875000Y-117040000D03*
X140875000Y-114500000D03*
X140875000Y-111960000D03*
X140875000Y-109420000D03*
X140875000Y-106880000D03*
X140875000Y-104340000D03*
X140875000Y-101800000D03*
X140875000Y-99260000D03*
X140875000Y-96720000D03*
X140875000Y-94180000D03*
X140875000Y-91640000D03*
X140875000Y-89100000D03*
X140875000Y-86560000D03*
G04 #@! TD*
D18*
G04 #@! TO.C,C19*
X152310000Y-99440000D03*
X152310000Y-100400000D03*
G04 #@! TD*
G04 #@! TO.C,C6*
X144720000Y-96860000D03*
X144720000Y-97820000D03*
G04 #@! TD*
D19*
G04 #@! TO.C,D1*
X151775000Y-114330000D03*
X150200000Y-114330000D03*
G04 #@! TD*
D20*
G04 #@! TO.C,U1*
X147387500Y-123725000D03*
X147387500Y-124675000D03*
X147387500Y-125625000D03*
X149662500Y-125625000D03*
X149662500Y-123725000D03*
G04 #@! TD*
D21*
G04 #@! TO.C,U2*
X146920000Y-98430000D03*
X147320000Y-98430000D03*
X147720000Y-98430000D03*
X148120000Y-98430000D03*
X148520000Y-98430000D03*
X148920000Y-98430000D03*
X149320000Y-98430000D03*
X149720000Y-98430000D03*
X150120000Y-98430000D03*
X150520000Y-98430000D03*
X150920000Y-98430000D03*
X151320000Y-98430000D03*
D22*
X152070000Y-97680000D03*
X152070000Y-97280000D03*
X152070000Y-96880000D03*
X152070000Y-96480000D03*
X152070000Y-96080000D03*
X152070000Y-95680000D03*
X152070000Y-95280000D03*
X152070000Y-94880000D03*
X152070000Y-94480000D03*
X152070000Y-94080000D03*
X152070000Y-93680000D03*
X152070000Y-93280000D03*
D21*
X151320000Y-92530000D03*
X150920000Y-92530000D03*
X150520000Y-92530000D03*
X150120000Y-92530000D03*
X149720000Y-92530000D03*
X149320000Y-92530000D03*
X148920000Y-92530000D03*
X148520000Y-92530000D03*
X148120000Y-92530000D03*
X147720000Y-92530000D03*
X147320000Y-92530000D03*
X146920000Y-92530000D03*
D22*
X146170000Y-93280000D03*
X146170000Y-93680000D03*
X146170000Y-94080000D03*
X146170000Y-94480000D03*
X146170000Y-94880000D03*
X146170000Y-95280000D03*
X146170000Y-95680000D03*
X146170000Y-96080000D03*
X146170000Y-96480000D03*
X146170000Y-96880000D03*
X146170000Y-97280000D03*
X146170000Y-97680000D03*
D23*
X149119999Y-95479999D03*
G04 #@! TD*
D17*
G04 #@! TO.C,SW2*
X151850000Y-121675000D03*
X151850000Y-117575000D03*
X150250000Y-117575000D03*
X150250000Y-121675000D03*
G04 #@! TD*
D24*
G04 #@! TO.C,C18*
X152880000Y-91950000D03*
X152880000Y-90990000D03*
G04 #@! TD*
D10*
G04 #@! TO.C,R1*
X150225000Y-115800000D03*
X151925000Y-115800000D03*
G04 #@! TD*
D19*
G04 #@! TO.C,D3*
X146720000Y-114290000D03*
X145145000Y-114290000D03*
G04 #@! TD*
D25*
G04 #@! TO.C,C11*
X148730000Y-90640000D03*
X149690000Y-90640000D03*
G04 #@! TD*
D13*
G04 #@! TO.C,C1*
X145100000Y-123905000D03*
X145100000Y-125455000D03*
G04 #@! TD*
D18*
G04 #@! TO.C,C5*
X146040000Y-88620000D03*
X146040000Y-89580000D03*
G04 #@! TD*
D11*
G04 #@! TO.C,J2*
X146489999Y-106589999D03*
G04 #@! TD*
D16*
G04 #@! TO.C,C16*
X144670000Y-92920000D03*
X143710000Y-92920000D03*
G04 #@! TD*
G04 #@! TO.C,C12*
X149710000Y-86750000D03*
X148750000Y-86750000D03*
G04 #@! TD*
D25*
G04 #@! TO.C,C14*
X149100000Y-101420000D03*
X150060000Y-101420000D03*
G04 #@! TD*
D26*
G04 #@! TO.C,Y2*
X149725000Y-103100000D03*
X147225000Y-103100000D03*
G04 #@! TD*
D18*
G04 #@! TO.C,C4*
X147010000Y-88620000D03*
X147010000Y-89580000D03*
G04 #@! TD*
D16*
G04 #@! TO.C,C13*
X148170000Y-101410000D03*
X147210000Y-101410000D03*
G04 #@! TD*
D27*
G04 #@! TO.C,Y1*
X144820000Y-90430000D03*
D28*
X144820000Y-89080000D03*
X143820000Y-89080000D03*
D27*
X143820000Y-90430000D03*
G04 #@! TD*
D24*
G04 #@! TO.C,C3*
X145975000Y-101055000D03*
X145975000Y-100095000D03*
G04 #@! TD*
D25*
G04 #@! TO.C,C15*
X153380000Y-96130000D03*
X154340000Y-96130000D03*
G04 #@! TD*
M02*
