M48
; DRILL file {KiCad (7.0.0)} date Sat Apr 22 14:23:35 2023
; FORMAT={-:-/ absolute / inch / decimal}
; #@! TF.CreationDate,2023-04-22T14:23:35+07:00
; #@! TF.GenerationSoftware,Kicad,Pcbnew,(7.0.0)
; #@! TF.FileFunction,MixedPlating,1,2
FMAT,2
INCH
; #@! TA.AperFunction,Plated,PTH,ComponentDrill
T1C0.0079
; #@! TA.AperFunction,Plated,PTH,ViaDrill
T2C0.0100
; #@! TA.AperFunction,Plated,PTH,ComponentDrill
T3C0.0394
; #@! TA.AperFunction,Plated,PTH,ComponentDrill
T4C0.0400
%
G90
G05
T1
X5.8Y-3.6882
X5.8Y-3.7354
X5.8Y-3.7827
X5.8Y-3.8299
X5.8472Y-3.6882
X5.8472Y-3.7354
X5.8472Y-3.7827
X5.8472Y-3.8299
X5.8945Y-3.6882
X5.8945Y-3.7354
X5.8945Y-3.7827
X5.8945Y-3.8299
X5.9417Y-3.6882
X5.9417Y-3.7354
X5.9417Y-3.7827
X5.9417Y-3.8299
T2
X5.589Y-3.324
X5.6055Y-4.0583
X5.613Y-3.3689
X5.6185Y-3.4484
X5.6232Y-4.7669
X5.6335Y-4.9291
X5.635Y-4.3496
X5.6415Y-3.324
X5.6575Y-3.389
X5.6606Y-3.8858
X5.6614Y-3.8157
X5.6736Y-3.6299
X5.683Y-4.5945
X5.6875Y-4.041
X5.7075Y-3.389
X5.7155Y-4.667
X5.7155Y-4.752
X5.7213Y-3.8402
X5.7265Y-3.889
X5.7275Y-3.628
X5.7315Y-3.324
X5.7465Y-4.015
X5.748Y-4.594
X5.7535Y-4.908
X5.7565Y-3.448
X5.7575Y-3.389
X5.7583Y-4.059
X5.7776Y-4.7075
X5.7805Y-3.932
X5.7815Y-3.324
X5.8065Y-3.448
X5.8075Y-3.389
X5.8085Y-3.931
X5.8193Y-3.5984
X5.8305Y-3.946
X5.8315Y-3.324
X5.8441Y-4.6402
X5.8455Y-4.7815
X5.8484Y-3.5933
X5.8499Y-3.9236
X5.8543Y-3.474
X5.8594Y-4.2299
X5.869Y-3.946
X5.8732Y-5.0346
X5.8815Y-3.324
X5.888Y-3.923
X5.8976Y-4.8406
X5.907Y-3.946
X5.9201Y-4.2299
X5.9265Y-3.923
X5.9315Y-3.324
X5.9315Y-3.374
X5.9315Y-3.424
X5.9315Y-3.474
X5.9339Y-4.059
X5.9455Y-3.946
X5.9469Y-4.7096
X5.9645Y-3.924
X5.9795Y-3.8668
X5.9815Y-3.324
X5.9815Y-3.374
X5.9815Y-3.424
X5.9815Y-3.474
X5.9839Y-3.6185
X5.985Y-3.894
X5.9915Y-3.5688
X5.9917Y-3.5392
X6.0075Y-4.4882
X6.0102Y-4.6063
X6.0137Y-3.7827
X6.0225Y-3.6441
X6.026Y-3.95
X6.0295Y-4.9459
X6.0315Y-3.324
X6.0315Y-3.374
X6.0315Y-3.424
X6.0315Y-3.474
X6.0386Y-4.6646
X6.045Y-3.9807
X6.0472Y-4.761
X6.0669Y-3.7327
X6.0681Y-3.8429
X6.0705Y-3.8157
X6.0717Y-3.7039
X6.0815Y-3.324
X6.0815Y-3.374
X6.0827Y-4.4374
X6.0886Y-3.5602
X6.1315Y-3.324
X6.1765Y-3.324
T3
X5.7642Y-4.3717
X5.7673Y-4.1965
X5.8642Y-4.3717
X5.9642Y-4.3717
T4
X5.5463Y-3.4079
X5.5463Y-3.5079
X5.5463Y-3.6079
X5.5463Y-3.7079
X5.5463Y-3.8079
X5.5463Y-3.9079
X5.5463Y-4.0079
X5.5463Y-4.1079
X5.5463Y-4.2079
X5.5463Y-4.3079
X5.5463Y-4.4079
X5.5463Y-4.5079
X5.5463Y-4.6079
X5.5463Y-4.7079
X5.5463Y-4.8079
X5.5463Y-4.9079
X5.5463Y-5.0079
X5.5957Y-5.1083
X5.6957Y-5.1083
X5.7957Y-5.1083
X5.8957Y-5.1083
X5.9957Y-5.1083
X6.0957Y-5.1083
X6.1476Y-3.4087
X6.1476Y-3.5087
X6.1476Y-3.6087
X6.1476Y-3.7087
X6.1476Y-3.8087
X6.1476Y-3.9087
X6.1476Y-4.0087
X6.1476Y-4.1087
X6.1476Y-4.2087
X6.1476Y-4.3087
X6.1476Y-4.4087
X6.1476Y-4.5087
X6.1476Y-4.6087
X6.1476Y-4.7087
X6.1476Y-4.8087
X6.1476Y-4.9087
X6.1476Y-5.0087
T0
M30
