G04 #@! TF.GenerationSoftware,KiCad,Pcbnew,(7.0.0)*
G04 #@! TF.CreationDate,2023-04-22T14:23:37+07:00*
G04 #@! TF.ProjectId,nrf52840-qfaa-breakout,6e726635-3238-4343-902d-716661612d62,rev?*
G04 #@! TF.SameCoordinates,Original*
G04 #@! TF.FileFunction,Copper,L2,Bot*
G04 #@! TF.FilePolarity,Positive*
%FSLAX46Y46*%
G04 Gerber Fmt 4.6, Leading zero omitted, Abs format (unit mm)*
G04 Created by KiCad (PCBNEW (7.0.0)) date 2023-04-22 14:23:37*
%MOMM*%
%LPD*%
G01*
G04 APERTURE LIST*
%ADD10C,0.177800*%
G04 #@! TA.AperFunction,NonConductor*
%ADD11C,0.177800*%
G04 #@! TD*
G04 #@! TA.AperFunction,EtchedComponent*
%ADD12C,0.254000*%
G04 #@! TD*
G04 #@! TA.AperFunction,ComponentPad*
%ADD13R,1.700000X1.700000*%
G04 #@! TD*
G04 #@! TA.AperFunction,ComponentPad*
%ADD14O,1.700000X1.700000*%
G04 #@! TD*
G04 #@! TA.AperFunction,ComponentPad*
%ADD15C,1.879600*%
G04 #@! TD*
G04 #@! TA.AperFunction,ComponentPad*
%ADD16C,0.500000*%
G04 #@! TD*
G04 #@! TA.AperFunction,SMDPad,CuDef*
%ADD17R,4.100000X4.100000*%
G04 #@! TD*
G04 #@! TA.AperFunction,SMDPad,CuDef*
%ADD18R,0.635000X1.270000*%
G04 #@! TD*
G04 #@! TA.AperFunction,ViaPad*
%ADD19C,0.508000*%
G04 #@! TD*
G04 #@! TA.AperFunction,Conductor*
%ADD20C,0.152400*%
G04 #@! TD*
G04 #@! TA.AperFunction,Conductor*
%ADD21C,0.400000*%
G04 #@! TD*
G04 #@! TA.AperFunction,Conductor*
%ADD22C,0.228600*%
G04 #@! TD*
G04 #@! TA.AperFunction,Conductor*
%ADD23C,0.154000*%
G04 #@! TD*
G04 APERTURE END LIST*
D10*
D11*
X140550900Y-130386666D02*
X140076766Y-130217332D01*
X140076766Y-130217332D02*
X140550900Y-130047999D01*
X140076766Y-129404532D02*
X140076766Y-129810932D01*
X140076766Y-129607732D02*
X140787966Y-129607732D01*
X140787966Y-129607732D02*
X140686366Y-129675465D01*
X140686366Y-129675465D02*
X140618633Y-129743199D01*
X140618633Y-129743199D02*
X140584766Y-129810932D01*
X140787966Y-128964266D02*
X140787966Y-128896532D01*
X140787966Y-128896532D02*
X140754100Y-128828799D01*
X140754100Y-128828799D02*
X140720233Y-128794932D01*
X140720233Y-128794932D02*
X140652500Y-128761066D01*
X140652500Y-128761066D02*
X140517033Y-128727199D01*
X140517033Y-128727199D02*
X140347700Y-128727199D01*
X140347700Y-128727199D02*
X140212233Y-128761066D01*
X140212233Y-128761066D02*
X140144500Y-128794932D01*
X140144500Y-128794932D02*
X140110633Y-128828799D01*
X140110633Y-128828799D02*
X140076766Y-128896532D01*
X140076766Y-128896532D02*
X140076766Y-128964266D01*
X140076766Y-128964266D02*
X140110633Y-129031999D01*
X140110633Y-129031999D02*
X140144500Y-129065866D01*
X140144500Y-129065866D02*
X140212233Y-129099732D01*
X140212233Y-129099732D02*
X140347700Y-129133599D01*
X140347700Y-129133599D02*
X140517033Y-129133599D01*
X140517033Y-129133599D02*
X140652500Y-129099732D01*
X140652500Y-129099732D02*
X140720233Y-129065866D01*
X140720233Y-129065866D02*
X140754100Y-129031999D01*
X140754100Y-129031999D02*
X140787966Y-128964266D01*
D12*
G04 #@! TO.C,JP1*
X148119000Y-125350000D02*
X148881000Y-125350000D01*
G04 #@! TO.C,JP4*
X147129000Y-103100000D02*
X147891000Y-103100000D01*
G04 #@! TO.C,JP6*
X148881000Y-115800000D02*
X148119000Y-115800000D01*
G04 #@! TO.C,JP5*
X149941000Y-103140000D02*
X149179000Y-103140000D01*
G04 #@! TD*
D13*
G04 #@! TO.P,J5,1,Pin_1*
G04 #@! TO.N,/SWDCLK*
X146409999Y-111039999D03*
D14*
G04 #@! TO.P,J5,2,Pin_2*
G04 #@! TO.N,/SWDIO*
X148949999Y-111039999D03*
G04 #@! TO.P,J5,3,Pin_3*
G04 #@! TO.N,GND*
X151489999Y-111039999D03*
G04 #@! TD*
D15*
G04 #@! TO.P,J4,1,1*
G04 #@! TO.N,GND*
X156150000Y-127220000D03*
G04 #@! TO.P,J4,2,2*
G04 #@! TO.N,VIN*
X156150000Y-124680000D03*
G04 #@! TO.P,J4,3,3*
G04 #@! TO.N,VDD*
X156150000Y-122140000D03*
G04 #@! TO.P,J4,4,4*
G04 #@! TO.N,/P1.09*
X156150000Y-119600000D03*
G04 #@! TO.P,J4,5,5*
G04 #@! TO.N,/P0.11*
X156150000Y-117060000D03*
G04 #@! TO.P,J4,6,6*
G04 #@! TO.N,/P0.12*
X156150000Y-114520000D03*
G04 #@! TO.P,J4,7,7*
G04 #@! TO.N,/P0.13*
X156150000Y-111980000D03*
G04 #@! TO.P,J4,8,8*
G04 #@! TO.N,/P0.14*
X156150000Y-109440000D03*
G04 #@! TO.P,J4,9,9*
G04 #@! TO.N,/P0.17*
X156150000Y-106900000D03*
G04 #@! TO.P,J4,10,10*
G04 #@! TO.N,/P0.19*
X156150000Y-104360000D03*
G04 #@! TO.P,J4,11,11*
G04 #@! TO.N,/P0.20*
X156150000Y-101820000D03*
G04 #@! TO.P,J4,12,12*
G04 #@! TO.N,/P0.21*
X156150000Y-99280000D03*
G04 #@! TO.P,J4,13,13*
G04 #@! TO.N,/P0.22*
X156150000Y-96740000D03*
G04 #@! TO.P,J4,14,14*
G04 #@! TO.N,/P0.23*
X156150000Y-94200000D03*
G04 #@! TO.P,J4,15,15*
G04 #@! TO.N,/P0.24*
X156150000Y-91660000D03*
G04 #@! TO.P,J4,16,16*
G04 #@! TO.N,/P0.09*
X156150000Y-89120000D03*
G04 #@! TO.P,J4,17,17*
G04 #@! TO.N,/P0.10*
X156150000Y-86580000D03*
G04 #@! TD*
G04 #@! TO.P,J1,1,DTR*
G04 #@! TO.N,Net-(J1-DTR)*
X142130000Y-129750000D03*
G04 #@! TO.P,J1,2,RXI*
X144670000Y-129750000D03*
G04 #@! TO.P,J1,3,TXO*
X147210000Y-129750000D03*
G04 #@! TO.P,J1,4,VCC*
G04 #@! TO.N,GND*
X149750000Y-129750000D03*
G04 #@! TO.P,J1,5,CTS*
X152290000Y-129750000D03*
G04 #@! TO.P,J1,6,GND*
X154830000Y-129750000D03*
G04 #@! TD*
G04 #@! TO.P,J3,1,1*
G04 #@! TO.N,GND*
X140875000Y-127200000D03*
G04 #@! TO.P,J3,2,2*
G04 #@! TO.N,VIN*
X140875000Y-124660000D03*
G04 #@! TO.P,J3,3,3*
G04 #@! TO.N,VDD*
X140875000Y-122120000D03*
G04 #@! TO.P,J3,4,4*
G04 #@! TO.N,/~{RESET}*
X140875000Y-119580000D03*
G04 #@! TO.P,J3,5,5*
G04 #@! TO.N,GND*
X140875000Y-117040000D03*
G04 #@! TO.P,J3,6,6*
G04 #@! TO.N,/P0.07*
X140875000Y-114500000D03*
G04 #@! TO.P,J3,7,7*
G04 #@! TO.N,/P0.05*
X140875000Y-111960000D03*
G04 #@! TO.P,J3,8,8*
G04 #@! TO.N,/P0.04*
X140875000Y-109420000D03*
G04 #@! TO.P,J3,9,9*
G04 #@! TO.N,/P0.01*
X140875000Y-106880000D03*
G04 #@! TO.P,J3,10,10*
G04 #@! TO.N,/P0.00*
X140875000Y-104340000D03*
G04 #@! TO.P,J3,11,11*
G04 #@! TO.N,/P0.31*
X140875000Y-101800000D03*
G04 #@! TO.P,J3,12,12*
G04 #@! TO.N,/P0.30*
X140875000Y-99260000D03*
G04 #@! TO.P,J3,13,13*
G04 #@! TO.N,/P0.29*
X140875000Y-96720000D03*
G04 #@! TO.P,J3,14,14*
G04 #@! TO.N,/P0.28*
X140875000Y-94180000D03*
G04 #@! TO.P,J3,15,15*
G04 #@! TO.N,/P0.02*
X140875000Y-91640000D03*
G04 #@! TO.P,J3,16,16*
G04 #@! TO.N,/P0.03*
X140875000Y-89100000D03*
G04 #@! TO.P,J3,17,17*
G04 #@! TO.N,/P1.15*
X140875000Y-86560000D03*
G04 #@! TD*
D16*
G04 #@! TO.P,U2,49,VSS*
G04 #@! TO.N,GND*
X147320000Y-97280000D03*
X148520000Y-97280000D03*
X149720000Y-97280000D03*
X150920000Y-97280000D03*
X147320000Y-96080000D03*
X148520000Y-96080000D03*
X149720000Y-96080000D03*
X150920000Y-96080000D03*
D17*
X149119999Y-95479999D03*
D16*
X147320000Y-94880000D03*
X148520000Y-94880000D03*
X149720000Y-94880000D03*
X150920000Y-94880000D03*
X147320000Y-93680000D03*
X148520000Y-93680000D03*
X149720000Y-93680000D03*
X150920000Y-93680000D03*
G04 #@! TD*
D13*
G04 #@! TO.P,J2,1,Pin_1*
G04 #@! TO.N,VDD*
X146489999Y-106589999D03*
G04 #@! TD*
D18*
G04 #@! TO.P,JP1,1,1*
G04 #@! TO.N,Net-(J1-DTR)*
X147991999Y-125349999D03*
G04 #@! TO.P,JP1,2,2*
G04 #@! TO.N,VDD*
X149007999Y-125349999D03*
G04 #@! TD*
G04 #@! TO.P,JP4,1,1*
G04 #@! TO.N,Net-(Y2-2)*
X147001999Y-103099999D03*
G04 #@! TO.P,JP4,2,2*
G04 #@! TO.N,/P0.00*
X148017999Y-103099999D03*
G04 #@! TD*
G04 #@! TO.P,JP6,1,1*
G04 #@! TO.N,GND*
X149007999Y-115799999D03*
G04 #@! TO.P,JP6,2,2*
G04 #@! TO.N,Net-(JP6-Pad2)*
X147991999Y-115799999D03*
G04 #@! TD*
G04 #@! TO.P,JP5,1,1*
G04 #@! TO.N,Net-(Y2-1)*
X150067999Y-103139999D03*
G04 #@! TO.P,JP5,2,2*
G04 #@! TO.N,/P0.01*
X149051999Y-103139999D03*
G04 #@! TD*
D19*
G04 #@! TO.N,/~{RESET}*
X146750000Y-119570000D03*
G04 #@! TO.N,GND*
X143130000Y-110480000D03*
X148440000Y-117860000D03*
X154650000Y-90430000D03*
X143780000Y-98700000D03*
X142380000Y-103080000D03*
X148830000Y-107440000D03*
X153380000Y-118480000D03*
X153600000Y-120930000D03*
X149180000Y-127880000D03*
X143090000Y-125200000D03*
X142830000Y-121080000D03*
X154190000Y-96920000D03*
G04 #@! TO.N,/P0.20*
X154100000Y-94810000D03*
G04 #@! TO.N,Net-(Y2-1)*
X150720000Y-103098600D03*
G04 #@! TO.N,/P0.21*
X154220000Y-94080000D03*
G04 #@! TO.N,/~{RESET}*
X154499850Y-112710000D03*
X154130000Y-97610000D03*
G04 #@! TO.N,GND*
X143800000Y-96920000D03*
X151990000Y-91910000D03*
X145173700Y-118541800D03*
X146850100Y-84429600D03*
X148120100Y-84429600D03*
X144970500Y-86080600D03*
X151930100Y-86969600D03*
X145580100Y-84429600D03*
X146240500Y-86080600D03*
X153150000Y-125625000D03*
X156883100Y-84429600D03*
X151930100Y-88239600D03*
X144110000Y-92200000D03*
X151930100Y-84429600D03*
X153200100Y-86969600D03*
X150370000Y-107440000D03*
X154470100Y-84429600D03*
X142710000Y-87590000D03*
X146138900Y-124663200D03*
X151879300Y-98217600D03*
X149390100Y-84429600D03*
X145961100Y-101981000D03*
X144462500Y-102641400D03*
X148475000Y-121450000D03*
X150660100Y-84429600D03*
X144348200Y-116700300D03*
X146215100Y-87579200D03*
X147485100Y-87579200D03*
X155740100Y-84429600D03*
X147510500Y-86080600D03*
X153200100Y-88239600D03*
X148700000Y-88239600D03*
X141960600Y-84429600D03*
X153200100Y-84429600D03*
X153200100Y-85699600D03*
X150660100Y-85699600D03*
X142570000Y-85570000D03*
X143700500Y-86080600D03*
X143294100Y-84429600D03*
X145173700Y-120700800D03*
X150660100Y-86969600D03*
X151930100Y-85699600D03*
X154470100Y-85699600D03*
X148550000Y-91270000D03*
X151050000Y-119625000D03*
X150660100Y-88239600D03*
G04 #@! TO.N,VDD*
X145453100Y-98780600D03*
X145478500Y-92151200D03*
X149800000Y-122950000D03*
X152020000Y-98907600D03*
X152970400Y-92560000D03*
X152748056Y-96080000D03*
G04 #@! TO.N,Net-(Y2-2)*
X146260000Y-103098600D03*
G04 #@! TO.N,/P1.09*
X150533100Y-99644200D03*
G04 #@! TO.N,/P0.00*
X146824700Y-99872800D03*
G04 #@! TO.N,/P0.01*
X147535900Y-99847400D03*
G04 #@! TO.N,/P0.04*
X148094700Y-100228400D03*
G04 #@! TO.N,/P0.08*
X152590000Y-114000000D03*
G04 #@! TO.N,/P0.05*
X148586900Y-99660000D03*
G04 #@! TO.N,/P0.07*
X149072600Y-100228400D03*
G04 #@! TO.N,/P1.08*
X152660000Y-117000000D03*
G04 #@! TO.N,/P0.08*
X149555200Y-99644200D03*
G04 #@! TO.N,/P0.11*
X151015700Y-100228400D03*
G04 #@! TO.N,/P0.12*
X151498300Y-99669600D03*
G04 #@! TO.N,/SWDIO*
X153542100Y-101110000D03*
X152188753Y-89896900D03*
G04 #@! TO.N,/SWDCLK*
X152182900Y-90647043D03*
X153060000Y-100330000D03*
G04 #@! TO.N,Net-(JP6-Pad2)*
X146000100Y-116687600D03*
G04 #@! TO.N,/P1.08*
X150037800Y-100228400D03*
G04 #@! TO.N,Net-(U2-DEC4)*
X145320000Y-97540000D03*
X147810000Y-91400000D03*
G04 #@! TD*
D20*
G04 #@! TO.N,/P0.01*
X148823400Y-102277900D02*
X148823400Y-102480000D01*
X148557750Y-102012250D02*
X148823400Y-102277900D01*
X148823400Y-102336600D02*
X148823400Y-102480000D01*
X148823400Y-102480000D02*
X148823400Y-104216600D01*
X147535900Y-100990400D02*
X148557750Y-102012250D01*
X148823400Y-104216600D02*
X148480000Y-104560000D01*
X148480000Y-104560000D02*
X143195000Y-104560000D01*
X143195000Y-104560000D02*
X140875000Y-106880000D01*
D21*
G04 #@! TO.N,VDD*
X149465000Y-123285000D02*
X149360400Y-123389600D01*
X149360400Y-123389600D02*
X149360400Y-125350000D01*
X149800000Y-122950000D02*
X149465000Y-123285000D01*
G04 #@! TO.N,Net-(J1-DTR)*
X147639600Y-126710400D02*
X147639600Y-125350000D01*
X147535000Y-126815000D02*
X147639600Y-126710400D01*
X147535000Y-126815000D02*
X147210000Y-127140000D01*
D20*
G04 #@! TO.N,/SWDIO*
X153160400Y-95240400D02*
X153160400Y-93710652D01*
X153542100Y-99852100D02*
X153127700Y-99437700D01*
X153542100Y-101110000D02*
X153542100Y-99852100D01*
X153160400Y-93710652D02*
X154370000Y-92501052D01*
X153127700Y-99437700D02*
X153127700Y-97252300D01*
X153127700Y-97252300D02*
X153720000Y-96660000D01*
X153720000Y-96660000D02*
X153720000Y-95800000D01*
X153720000Y-95800000D02*
X153160400Y-95240400D01*
X154370000Y-92501052D02*
X154370000Y-91750000D01*
X154370000Y-91750000D02*
X153272100Y-90652100D01*
X153272100Y-90652100D02*
X153272100Y-90292100D01*
X153272100Y-90292100D02*
X152876900Y-89896900D01*
X152876900Y-89896900D02*
X152188753Y-89896900D01*
D22*
G04 #@! TO.N,VDD*
X152512700Y-93017700D02*
X152970400Y-92560000D01*
X152512700Y-95844644D02*
X152512700Y-93017700D01*
X152748056Y-96080000D02*
X152512700Y-95844644D01*
D20*
G04 #@! TO.N,/~{RESET}*
X154130000Y-99140000D02*
X154130000Y-97610000D01*
X154654400Y-99660000D02*
X154650000Y-99660000D01*
X154499850Y-101470000D02*
X154654400Y-101315450D01*
X154650000Y-99660000D02*
X154130000Y-99140000D01*
X154499850Y-112710000D02*
X154499850Y-101470000D01*
X154654400Y-101315450D02*
X154654400Y-99660000D01*
G04 #@! TO.N,/P0.12*
X154017750Y-113417750D02*
X155120000Y-114520000D01*
X155120000Y-114520000D02*
X156150000Y-114520000D01*
X153600000Y-108382250D02*
X154017750Y-108800000D01*
X154017750Y-108800000D02*
X154017750Y-113417750D01*
X153600000Y-101974500D02*
X153600000Y-108382250D01*
X151498300Y-99872800D02*
X153600000Y-101974500D01*
X151498300Y-99669600D02*
X151498300Y-99872800D01*
D23*
G04 #@! TO.N,/P0.20*
X154676000Y-98996000D02*
X154960000Y-99280000D01*
X154676000Y-97170000D02*
X154676000Y-98996000D01*
X154960000Y-99280000D02*
X154960000Y-100630000D01*
X154675200Y-95385200D02*
X154675200Y-97169200D01*
X154675200Y-97169200D02*
X154676000Y-97170000D01*
X154100000Y-94810000D02*
X154675200Y-95385200D01*
X154960000Y-100630000D02*
X156150000Y-101820000D01*
G04 #@! TO.N,/P0.21*
X154981600Y-94921600D02*
X154981600Y-96256032D01*
X154220000Y-94160000D02*
X154981600Y-94921600D01*
X154220000Y-94080000D02*
X154220000Y-94160000D01*
D20*
G04 #@! TO.N,/SWDCLK*
X152835991Y-90647043D02*
X152182900Y-90647043D01*
X154065200Y-91876252D02*
X152835991Y-90647043D01*
X154065200Y-92374800D02*
X154065200Y-91876252D01*
X152855600Y-93584400D02*
X154065200Y-92374800D01*
X153230000Y-95780000D02*
X152855600Y-95405600D01*
X153230656Y-95780000D02*
X153230000Y-95780000D01*
X152822900Y-96848550D02*
X153230656Y-96440794D01*
X152855600Y-95405600D02*
X152855600Y-93584400D01*
X152822900Y-99602900D02*
X152822900Y-96848550D01*
X153060000Y-99840000D02*
X152822900Y-99602900D01*
X153060000Y-100330000D02*
X153060000Y-99840000D01*
X153230656Y-96440794D02*
X153230656Y-95780000D01*
G04 #@! TO.N,/P0.11*
X153241850Y-102048150D02*
X153241850Y-108512250D01*
X153241850Y-108512250D02*
X153689600Y-108960000D01*
X153689600Y-114599600D02*
X153689600Y-108960000D01*
X153241850Y-102048150D02*
X151599900Y-100406200D01*
G04 #@! TO.N,/P0.07*
X143240000Y-112135000D02*
X140875000Y-114500000D01*
X143240000Y-111140000D02*
X143240000Y-112135000D01*
X146080000Y-108300000D02*
X143240000Y-111140000D01*
X151288250Y-108300000D02*
X146080000Y-108300000D01*
X151879600Y-102413100D02*
X151879600Y-107708650D01*
X151879600Y-107708650D02*
X151288250Y-108300000D01*
X151091900Y-101625400D02*
X151879600Y-102413100D01*
X149466300Y-101625400D02*
X151091900Y-101625400D01*
X149072600Y-101231700D02*
X149466300Y-101625400D01*
X149072600Y-100228400D02*
X149072600Y-101231700D01*
G04 #@! TO.N,/P1.09*
X153384800Y-116834800D02*
X156150000Y-119600000D01*
X152895950Y-108805950D02*
X153384800Y-109294800D01*
X152895950Y-102134050D02*
X152895950Y-108805950D01*
X151472900Y-100711000D02*
X152895950Y-102134050D01*
X150533100Y-100507800D02*
X150736300Y-100711000D01*
X150533100Y-99644200D02*
X150533100Y-100507800D01*
X150736300Y-100711000D02*
X151472900Y-100711000D01*
X153384800Y-109294800D02*
X153384800Y-116834800D01*
G04 #@! TO.N,/P1.08*
X153080000Y-116580000D02*
X152660000Y-117000000D01*
X153080000Y-109870000D02*
X153080000Y-116580000D01*
X152560000Y-109350000D02*
X153080000Y-109870000D01*
X151345900Y-101015800D02*
X152560000Y-102229900D01*
X152560000Y-102229900D02*
X152560000Y-109350000D01*
X150202900Y-101015800D02*
X151345900Y-101015800D01*
X150037800Y-100850700D02*
X150202900Y-101015800D01*
X150037800Y-100228400D02*
X150037800Y-100850700D01*
G04 #@! TO.N,/P0.08*
X152200000Y-113610000D02*
X152590000Y-114000000D01*
X152200000Y-112360000D02*
X152200000Y-113610000D01*
X152568600Y-111991400D02*
X152200000Y-112360000D01*
X152200000Y-109490000D02*
X152568600Y-109858600D01*
X152568600Y-109858600D02*
X152568600Y-111991400D01*
X152200000Y-102301700D02*
X152200000Y-109490000D01*
X151218900Y-101320600D02*
X152200000Y-102301700D01*
X149555200Y-99644200D02*
X149555200Y-101155500D01*
X149555200Y-101155500D02*
X149720300Y-101320600D01*
X149720300Y-101320600D02*
X151218900Y-101320600D01*
G04 #@! TO.N,/P0.05*
X148586900Y-101177800D02*
X148586900Y-99660000D01*
X149339300Y-101930200D02*
X148586900Y-101177800D01*
X151574800Y-102540100D02*
X150964900Y-101930200D01*
X150769800Y-105250000D02*
X151574800Y-104445000D01*
X144150000Y-105250000D02*
X150769800Y-105250000D01*
X143670000Y-105730000D02*
X144150000Y-105250000D01*
X143670000Y-109165000D02*
X143670000Y-105730000D01*
X140875000Y-111960000D02*
X143670000Y-109165000D01*
X151574800Y-104445000D02*
X151574800Y-102540100D01*
X150964900Y-101930200D02*
X149339300Y-101930200D01*
G04 #@! TO.N,/P0.04*
X148094700Y-101117400D02*
X148094700Y-100228400D01*
X149212300Y-102235000D02*
X148094700Y-101117400D01*
X151270000Y-102667100D02*
X150837900Y-102235000D01*
X150837900Y-102235000D02*
X149212300Y-102235000D01*
X150495000Y-104910000D02*
X151270000Y-104135000D01*
X142672500Y-106207500D02*
X143970000Y-104910000D01*
X142672500Y-107622500D02*
X142672500Y-106207500D01*
X151270000Y-104135000D02*
X151270000Y-102667100D01*
X140875000Y-109420000D02*
X142672500Y-107622500D01*
X143970000Y-104910000D02*
X150495000Y-104910000D01*
G04 #@! TO.N,Net-(Y2-1)*
X150279100Y-103098600D02*
X150720000Y-103098600D01*
G04 #@! TO.N,Net-(Y2-2)*
X146723100Y-103098600D02*
X146260000Y-103098600D01*
G04 #@! TO.N,/P0.00*
X148150000Y-102040000D02*
X148246600Y-102136600D01*
X148246600Y-102136600D02*
X148246600Y-103883400D01*
X148246600Y-103883400D02*
X147930000Y-104200000D01*
X148150000Y-102036300D02*
X148150000Y-102040000D01*
X147930000Y-104200000D02*
X141015000Y-104200000D01*
X147739100Y-101625400D02*
X148150000Y-102036300D01*
X141015000Y-104200000D02*
X140875000Y-104340000D01*
G04 #@! TO.N,/P0.11*
X151193500Y-100406200D02*
X151015700Y-100228400D01*
X151599900Y-100406200D02*
X151193500Y-100406200D01*
X156150000Y-117060000D02*
X153689600Y-114599600D01*
D21*
G04 #@! TO.N,VDD*
X148900000Y-125343600D02*
X148906400Y-125350000D01*
D22*
X152480000Y-98447600D02*
X152020000Y-98907600D01*
X145478500Y-98755200D02*
X145580100Y-98653600D01*
X152748056Y-96080000D02*
X152480000Y-96348056D01*
X144660000Y-92969700D02*
X145478500Y-92151200D01*
X144660000Y-97987500D02*
X144660000Y-92969700D01*
X152480000Y-96348056D02*
X152480000Y-98447600D01*
X145453100Y-98780600D02*
X144660000Y-97987500D01*
X145580100Y-98653600D02*
X151549100Y-98653600D01*
X145453100Y-98780600D02*
X145478500Y-98755200D01*
X151803100Y-98907600D02*
X151549100Y-98653600D01*
X151803100Y-98907600D02*
X152020000Y-98907600D01*
D20*
G04 #@! TO.N,/~{RESET}*
X146732500Y-119580000D02*
X140875000Y-119580000D01*
G04 #@! TO.N,/P0.28*
X140881100Y-93370400D02*
X140881100Y-94208600D01*
D23*
G04 #@! TO.N,/P0.23*
X156150000Y-95020000D02*
X156150000Y-94200000D01*
D20*
G04 #@! TO.N,/P0.21*
X154981600Y-98111600D02*
X156150000Y-99280000D01*
X154981600Y-96256032D02*
X154981600Y-98111600D01*
G04 #@! TO.N,/P0.00*
X147231100Y-100279200D02*
X147231100Y-101117400D01*
X146824700Y-99872800D02*
X147231100Y-100279200D01*
X147231100Y-101117400D02*
X147739100Y-101625400D01*
G04 #@! TO.N,/P0.01*
X147535900Y-99847400D02*
X147535900Y-100990400D01*
G04 #@! TO.N,/P0.14*
X156150000Y-109367098D02*
X156150000Y-109440000D01*
G04 #@! TO.N,/P0.19*
X156129700Y-104360000D02*
X156121100Y-104368600D01*
X155553700Y-104360000D02*
X156129700Y-104360000D01*
G04 #@! TO.N,Net-(JP6-Pad2)*
X146000100Y-116687600D02*
X146889100Y-115798600D01*
X146889100Y-115798600D02*
X147993100Y-115798600D01*
G04 #@! TO.N,/P0.11*
X155450000Y-117060000D02*
X156150000Y-117060000D01*
G04 #@! TO.N,Net-(U2-DEC4)*
X147810000Y-91400000D02*
X145320000Y-93890000D01*
X145320000Y-93890000D02*
X145320000Y-97540000D01*
D21*
G04 #@! TO.N,Net-(J1-DTR)*
X147210000Y-129750000D02*
X142130000Y-129750000D01*
X147210000Y-127140000D02*
X147210000Y-129750000D01*
G04 #@! TD*
G04 #@! TA.AperFunction,Conductor*
G04 #@! TO.N,GND*
G36*
X151952594Y-108048040D02*
G01*
X151970900Y-108092234D01*
X151970900Y-109482381D01*
X151970814Y-109485652D01*
X151969009Y-109520076D01*
X151969009Y-109520080D01*
X151968666Y-109526639D01*
X151971020Y-109532773D01*
X151971021Y-109532775D01*
X151977891Y-109550674D01*
X151980676Y-109560074D01*
X151986031Y-109585265D01*
X151992090Y-109593605D01*
X151999871Y-109607934D01*
X152003568Y-109617564D01*
X152008212Y-109622208D01*
X152021774Y-109635770D01*
X152028143Y-109643227D01*
X152043278Y-109664058D01*
X152052203Y-109669211D01*
X152065146Y-109679143D01*
X152321194Y-109935191D01*
X152339500Y-109979385D01*
X152339500Y-111870616D01*
X152334742Y-111894534D01*
X152321194Y-111914810D01*
X152043400Y-112192601D01*
X152041028Y-112194852D01*
X152015395Y-112217932D01*
X152015388Y-112217940D01*
X152010514Y-112222330D01*
X152007844Y-112228325D01*
X152007841Y-112228330D01*
X152000038Y-112245855D01*
X151995362Y-112254466D01*
X151984916Y-112270553D01*
X151984913Y-112270558D01*
X151981339Y-112276064D01*
X151980311Y-112282546D01*
X151980311Y-112282549D01*
X151979726Y-112286245D01*
X151975095Y-112301879D01*
X151970900Y-112311303D01*
X151970900Y-112317873D01*
X151970900Y-112337056D01*
X151970130Y-112346833D01*
X151967130Y-112365769D01*
X151967130Y-112365772D01*
X151966103Y-112372258D01*
X151968771Y-112382217D01*
X151970900Y-112398388D01*
X151970900Y-113602381D01*
X151970814Y-113605652D01*
X151969009Y-113640076D01*
X151969009Y-113640080D01*
X151968666Y-113646639D01*
X151971020Y-113652773D01*
X151971021Y-113652775D01*
X151977891Y-113670674D01*
X151980676Y-113680074D01*
X151986031Y-113705265D01*
X151992090Y-113713605D01*
X151999871Y-113727934D01*
X152003568Y-113737564D01*
X152008212Y-113742208D01*
X152021774Y-113755770D01*
X152028143Y-113763227D01*
X152043278Y-113784058D01*
X152048963Y-113787340D01*
X152048964Y-113787341D01*
X152052202Y-113789210D01*
X152065148Y-113799144D01*
X152167537Y-113901533D01*
X152182784Y-113926412D01*
X152185074Y-113955502D01*
X152178797Y-113995143D01*
X152178028Y-114000000D01*
X152178797Y-114004855D01*
X152197421Y-114122449D01*
X152197422Y-114122453D01*
X152198191Y-114127306D01*
X152200422Y-114131685D01*
X152200423Y-114131687D01*
X152254476Y-114237772D01*
X152254478Y-114237775D01*
X152256708Y-114242151D01*
X152347849Y-114333292D01*
X152352225Y-114335522D01*
X152352227Y-114335523D01*
X152409194Y-114364549D01*
X152462694Y-114391809D01*
X152590000Y-114411972D01*
X152717306Y-114391809D01*
X152760025Y-114370041D01*
X152801394Y-114364596D01*
X152836971Y-114386397D01*
X152850900Y-114425730D01*
X152850900Y-116459215D01*
X152846142Y-116483133D01*
X152832593Y-116503410D01*
X152758462Y-116577538D01*
X152733583Y-116592784D01*
X152704493Y-116595074D01*
X152664857Y-116588797D01*
X152664856Y-116588797D01*
X152660000Y-116588028D01*
X152655145Y-116588797D01*
X152537550Y-116607421D01*
X152537544Y-116607422D01*
X152532694Y-116608191D01*
X152528316Y-116610421D01*
X152528312Y-116610423D01*
X152422227Y-116664476D01*
X152422221Y-116664480D01*
X152417849Y-116666708D01*
X152414375Y-116670181D01*
X152414372Y-116670184D01*
X152330184Y-116754372D01*
X152330181Y-116754375D01*
X152326708Y-116757849D01*
X152324480Y-116762221D01*
X152324476Y-116762227D01*
X152270423Y-116868312D01*
X152270421Y-116868316D01*
X152268191Y-116872694D01*
X152267422Y-116877544D01*
X152267421Y-116877550D01*
X152253989Y-116962364D01*
X152248028Y-117000000D01*
X152248797Y-117004855D01*
X152267421Y-117122449D01*
X152267422Y-117122453D01*
X152268191Y-117127306D01*
X152270422Y-117131685D01*
X152270423Y-117131687D01*
X152324476Y-117237772D01*
X152324478Y-117237775D01*
X152326708Y-117242151D01*
X152417849Y-117333292D01*
X152422225Y-117335522D01*
X152422227Y-117335523D01*
X152479194Y-117364549D01*
X152532694Y-117391809D01*
X152660000Y-117411972D01*
X152787306Y-117391809D01*
X152902151Y-117333292D01*
X152993292Y-117242151D01*
X153051809Y-117127306D01*
X153071972Y-117000000D01*
X153071202Y-116995138D01*
X153071202Y-116990436D01*
X153083622Y-116953040D01*
X153115949Y-116930507D01*
X153155333Y-116931796D01*
X153186056Y-116956342D01*
X153188368Y-116962364D01*
X153193012Y-116967008D01*
X153206574Y-116980570D01*
X153212943Y-116988027D01*
X153228078Y-117008858D01*
X153233763Y-117012140D01*
X153233764Y-117012141D01*
X153237002Y-117014010D01*
X153249948Y-117023944D01*
X155195600Y-118969596D01*
X155213091Y-119003728D01*
X155207354Y-119041648D01*
X155128009Y-119200996D01*
X155128006Y-119201002D01*
X155126723Y-119203580D01*
X155125936Y-119206343D01*
X155125933Y-119206353D01*
X155072095Y-119395576D01*
X155071304Y-119398357D01*
X155071037Y-119401233D01*
X155071037Y-119401236D01*
X155055849Y-119565145D01*
X155052619Y-119600000D01*
X155071304Y-119801643D01*
X155072095Y-119804423D01*
X155125933Y-119993646D01*
X155125935Y-119993653D01*
X155126723Y-119996420D01*
X155216988Y-120177697D01*
X155218727Y-120180001D01*
X155218731Y-120180006D01*
X155278922Y-120259711D01*
X155339026Y-120339301D01*
X155488680Y-120475729D01*
X155660855Y-120582335D01*
X155849687Y-120655489D01*
X156048746Y-120692700D01*
X156248370Y-120692700D01*
X156251254Y-120692700D01*
X156450313Y-120655489D01*
X156639145Y-120582335D01*
X156811320Y-120475729D01*
X156960974Y-120339301D01*
X157083012Y-120177697D01*
X157170551Y-120001893D01*
X157199941Y-119973176D01*
X157240809Y-119968912D01*
X157275493Y-119990945D01*
X157289000Y-120029752D01*
X157289000Y-121710248D01*
X157275493Y-121749055D01*
X157240809Y-121771088D01*
X157199941Y-121766824D01*
X157170552Y-121738107D01*
X157148920Y-121694664D01*
X157083012Y-121562303D01*
X156960974Y-121400699D01*
X156811320Y-121264271D01*
X156808870Y-121262754D01*
X156808866Y-121262751D01*
X156641597Y-121159183D01*
X156641595Y-121159182D01*
X156639145Y-121157665D01*
X156636458Y-121156624D01*
X156636456Y-121156623D01*
X156453003Y-121085553D01*
X156453001Y-121085552D01*
X156450313Y-121084511D01*
X156447477Y-121083980D01*
X156447474Y-121083980D01*
X156254088Y-121047829D01*
X156254079Y-121047828D01*
X156251254Y-121047300D01*
X156048746Y-121047300D01*
X156045921Y-121047828D01*
X156045911Y-121047829D01*
X155852525Y-121083980D01*
X155852520Y-121083981D01*
X155849687Y-121084511D01*
X155847000Y-121085551D01*
X155846996Y-121085553D01*
X155663543Y-121156623D01*
X155663537Y-121156625D01*
X155660855Y-121157665D01*
X155658408Y-121159179D01*
X155658402Y-121159183D01*
X155491133Y-121262751D01*
X155491124Y-121262757D01*
X155488680Y-121264271D01*
X155486553Y-121266209D01*
X155486545Y-121266216D01*
X155341160Y-121398753D01*
X155341156Y-121398756D01*
X155339026Y-121400699D01*
X155337286Y-121403002D01*
X155337286Y-121403003D01*
X155218731Y-121559993D01*
X155218724Y-121560003D01*
X155216988Y-121562303D01*
X155215700Y-121564888D01*
X155215699Y-121564891D01*
X155128007Y-121741000D01*
X155128004Y-121741006D01*
X155126723Y-121743580D01*
X155125936Y-121746343D01*
X155125933Y-121746353D01*
X155076175Y-121921236D01*
X155071304Y-121938357D01*
X155052619Y-122140000D01*
X155071304Y-122341643D01*
X155072095Y-122344423D01*
X155125933Y-122533646D01*
X155125935Y-122533653D01*
X155126723Y-122536420D01*
X155128006Y-122538997D01*
X155128007Y-122538999D01*
X155138675Y-122560423D01*
X155216988Y-122717697D01*
X155218727Y-122720001D01*
X155218731Y-122720006D01*
X155278922Y-122799711D01*
X155339026Y-122879301D01*
X155488680Y-123015729D01*
X155660855Y-123122335D01*
X155849687Y-123195489D01*
X156048746Y-123232700D01*
X156248370Y-123232700D01*
X156251254Y-123232700D01*
X156450313Y-123195489D01*
X156639145Y-123122335D01*
X156811320Y-123015729D01*
X156960974Y-122879301D01*
X157083012Y-122717697D01*
X157170551Y-122541893D01*
X157199941Y-122513176D01*
X157240809Y-122508912D01*
X157275493Y-122530945D01*
X157289000Y-122569752D01*
X157289000Y-124250248D01*
X157275493Y-124289055D01*
X157240809Y-124311088D01*
X157199941Y-124306824D01*
X157170552Y-124278107D01*
X157148920Y-124234664D01*
X157083012Y-124102303D01*
X156960974Y-123940699D01*
X156811320Y-123804271D01*
X156808870Y-123802754D01*
X156808866Y-123802751D01*
X156641597Y-123699183D01*
X156641595Y-123699182D01*
X156639145Y-123697665D01*
X156636458Y-123696624D01*
X156636456Y-123696623D01*
X156453003Y-123625553D01*
X156453001Y-123625552D01*
X156450313Y-123624511D01*
X156447477Y-123623980D01*
X156447474Y-123623980D01*
X156254088Y-123587829D01*
X156254079Y-123587828D01*
X156251254Y-123587300D01*
X156048746Y-123587300D01*
X156045921Y-123587828D01*
X156045911Y-123587829D01*
X155852525Y-123623980D01*
X155852520Y-123623981D01*
X155849687Y-123624511D01*
X155847000Y-123625551D01*
X155846996Y-123625553D01*
X155663543Y-123696623D01*
X155663537Y-123696625D01*
X155660855Y-123697665D01*
X155658408Y-123699179D01*
X155658402Y-123699183D01*
X155491133Y-123802751D01*
X155491124Y-123802757D01*
X155488680Y-123804271D01*
X155486553Y-123806209D01*
X155486545Y-123806216D01*
X155341160Y-123938753D01*
X155341156Y-123938756D01*
X155339026Y-123940699D01*
X155337286Y-123943002D01*
X155337286Y-123943003D01*
X155218731Y-124099993D01*
X155218724Y-124100003D01*
X155216988Y-124102303D01*
X155215700Y-124104888D01*
X155215699Y-124104891D01*
X155128007Y-124281000D01*
X155128004Y-124281006D01*
X155126723Y-124283580D01*
X155125936Y-124286343D01*
X155125933Y-124286353D01*
X155076175Y-124461236D01*
X155071304Y-124478357D01*
X155052619Y-124680000D01*
X155071304Y-124881643D01*
X155072095Y-124884423D01*
X155125933Y-125073646D01*
X155125935Y-125073653D01*
X155126723Y-125076420D01*
X155216988Y-125257697D01*
X155218727Y-125260001D01*
X155218731Y-125260006D01*
X155238522Y-125286213D01*
X155339026Y-125419301D01*
X155488680Y-125555729D01*
X155660855Y-125662335D01*
X155849687Y-125735489D01*
X156048746Y-125772700D01*
X156248370Y-125772700D01*
X156251254Y-125772700D01*
X156450313Y-125735489D01*
X156639145Y-125662335D01*
X156811320Y-125555729D01*
X156960974Y-125419301D01*
X157083012Y-125257697D01*
X157170551Y-125081893D01*
X157199941Y-125053176D01*
X157240809Y-125048912D01*
X157275493Y-125070945D01*
X157289000Y-125109752D01*
X157289000Y-130874000D01*
X157270694Y-130918194D01*
X157226500Y-130936500D01*
X147483950Y-130936500D01*
X147441844Y-130920188D01*
X147421717Y-130879767D01*
X147434074Y-130836335D01*
X147472464Y-130812564D01*
X147510313Y-130805489D01*
X147699145Y-130732335D01*
X147871320Y-130625729D01*
X148020974Y-130489301D01*
X148143012Y-130327697D01*
X148233277Y-130146420D01*
X148288696Y-129951643D01*
X148307381Y-129750000D01*
X148288696Y-129548357D01*
X148233277Y-129353580D01*
X148143012Y-129172303D01*
X148020974Y-129010699D01*
X147871320Y-128874271D01*
X147868870Y-128872754D01*
X147868866Y-128872751D01*
X147701595Y-128769182D01*
X147699145Y-128767665D01*
X147696458Y-128766624D01*
X147696454Y-128766622D01*
X147602822Y-128730349D01*
X147573838Y-128707391D01*
X147562900Y-128672070D01*
X147562900Y-127312064D01*
X147581206Y-127267870D01*
X147581205Y-127267870D01*
X147805216Y-127043860D01*
X147805216Y-127043859D01*
X147858680Y-126990394D01*
X147868678Y-126982275D01*
X147881918Y-126973627D01*
X147902256Y-126947494D01*
X147907377Y-126941697D01*
X147909816Y-126939260D01*
X147921825Y-126922438D01*
X147923345Y-126920399D01*
X147954258Y-126880684D01*
X147955940Y-126875782D01*
X147956606Y-126874552D01*
X147956891Y-126874095D01*
X147957190Y-126873514D01*
X147957403Y-126873001D01*
X147958011Y-126871755D01*
X147961026Y-126867535D01*
X147975387Y-126819297D01*
X147976164Y-126816871D01*
X147992500Y-126769289D01*
X147992500Y-126764103D01*
X147992730Y-126762725D01*
X147992853Y-126762191D01*
X147992946Y-126761554D01*
X147992980Y-126761020D01*
X147993154Y-126759621D01*
X147994633Y-126754655D01*
X147992553Y-126704374D01*
X147992500Y-126701791D01*
X147992500Y-126200399D01*
X148010806Y-126156205D01*
X148055000Y-126137899D01*
X148321485Y-126137899D01*
X148324556Y-126137899D01*
X148369158Y-126129028D01*
X148419734Y-126095234D01*
X148448034Y-126052880D01*
X148479910Y-126028421D01*
X148520090Y-126028421D01*
X148551965Y-126052880D01*
X148580266Y-126095234D01*
X148630842Y-126129028D01*
X148675443Y-126137900D01*
X149340556Y-126137899D01*
X149385158Y-126129028D01*
X149435734Y-126095234D01*
X149469528Y-126044658D01*
X149478400Y-126000057D01*
X149478399Y-125728270D01*
X149485932Y-125698524D01*
X149506712Y-125675950D01*
X149602718Y-125613227D01*
X149675058Y-125520284D01*
X149713300Y-125408889D01*
X149713300Y-123561664D01*
X149731606Y-123517470D01*
X149735216Y-123513860D01*
X149735216Y-123513859D01*
X149889136Y-123359938D01*
X149918118Y-123345174D01*
X149917769Y-123344099D01*
X149922449Y-123342578D01*
X149927306Y-123341809D01*
X150042151Y-123283292D01*
X150133292Y-123192151D01*
X150191809Y-123077306D01*
X150211972Y-122950000D01*
X150191809Y-122822694D01*
X150164549Y-122769194D01*
X150135523Y-122712227D01*
X150135522Y-122712225D01*
X150133292Y-122707849D01*
X150042151Y-122616708D01*
X150037775Y-122614478D01*
X150037772Y-122614476D01*
X149931687Y-122560423D01*
X149931685Y-122560422D01*
X149927306Y-122558191D01*
X149922453Y-122557422D01*
X149922449Y-122557421D01*
X149812955Y-122540079D01*
X149800000Y-122538028D01*
X149788393Y-122539866D01*
X149677550Y-122557421D01*
X149677544Y-122557422D01*
X149672694Y-122558191D01*
X149668316Y-122560421D01*
X149668312Y-122560423D01*
X149562227Y-122614476D01*
X149562221Y-122614480D01*
X149557849Y-122616708D01*
X149554375Y-122620181D01*
X149554372Y-122620184D01*
X149470184Y-122704372D01*
X149470181Y-122704375D01*
X149466708Y-122707849D01*
X149464480Y-122712221D01*
X149464476Y-122712227D01*
X149410422Y-122818313D01*
X149410419Y-122818319D01*
X149408191Y-122822694D01*
X149407421Y-122827549D01*
X149405902Y-122832228D01*
X149404830Y-122831879D01*
X149390060Y-122860862D01*
X149257102Y-122993821D01*
X149257101Y-122993822D01*
X149141326Y-123109596D01*
X149131320Y-123117722D01*
X149122419Y-123123537D01*
X149122410Y-123123544D01*
X149118082Y-123126373D01*
X149114905Y-123130453D01*
X149114900Y-123130459D01*
X149097746Y-123152499D01*
X149092629Y-123158294D01*
X149092013Y-123158909D01*
X149092003Y-123158919D01*
X149090184Y-123160740D01*
X149080398Y-123174446D01*
X149078182Y-123177549D01*
X149076640Y-123179616D01*
X149048922Y-123215229D01*
X149048919Y-123215232D01*
X149045742Y-123219316D01*
X149044061Y-123224210D01*
X149043384Y-123225462D01*
X149043100Y-123225916D01*
X149042808Y-123226483D01*
X149042606Y-123226973D01*
X149041979Y-123228255D01*
X149038974Y-123232465D01*
X149037498Y-123237421D01*
X149037497Y-123237424D01*
X149024621Y-123280671D01*
X149023834Y-123283127D01*
X149009180Y-123325813D01*
X149009178Y-123325820D01*
X149007500Y-123330711D01*
X149007500Y-123335882D01*
X149007267Y-123337279D01*
X149007147Y-123337796D01*
X149007053Y-123338445D01*
X149007020Y-123338980D01*
X149006845Y-123340379D01*
X149005367Y-123345345D01*
X149005581Y-123350518D01*
X149005581Y-123350519D01*
X149007447Y-123395626D01*
X149007500Y-123398209D01*
X149007500Y-124499601D01*
X148989194Y-124543795D01*
X148945000Y-124562101D01*
X148675444Y-124562101D01*
X148672434Y-124562699D01*
X148672430Y-124562700D01*
X148636879Y-124569771D01*
X148636877Y-124569771D01*
X148630842Y-124570972D01*
X148625726Y-124574389D01*
X148625724Y-124574391D01*
X148585383Y-124601346D01*
X148585380Y-124601348D01*
X148580266Y-124604766D01*
X148576848Y-124609880D01*
X148576846Y-124609883D01*
X148551967Y-124647118D01*
X148520090Y-124671578D01*
X148479910Y-124671578D01*
X148448033Y-124647118D01*
X148423153Y-124609883D01*
X148419734Y-124604766D01*
X148374275Y-124574391D01*
X148374274Y-124574390D01*
X148374272Y-124574389D01*
X148369158Y-124570972D01*
X148363125Y-124569772D01*
X148363123Y-124569771D01*
X148327567Y-124562698D01*
X148327559Y-124562697D01*
X148324557Y-124562100D01*
X148321487Y-124562100D01*
X147662515Y-124562100D01*
X147662504Y-124562100D01*
X147659444Y-124562101D01*
X147656434Y-124562699D01*
X147656430Y-124562700D01*
X147620879Y-124569771D01*
X147620877Y-124569771D01*
X147614842Y-124570972D01*
X147609726Y-124574389D01*
X147609724Y-124574391D01*
X147569383Y-124601346D01*
X147569380Y-124601348D01*
X147564266Y-124604766D01*
X147560848Y-124609880D01*
X147560846Y-124609883D01*
X147533890Y-124650225D01*
X147533888Y-124650229D01*
X147530472Y-124655342D01*
X147529272Y-124661372D01*
X147529271Y-124661376D01*
X147522198Y-124696932D01*
X147522197Y-124696941D01*
X147521600Y-124699943D01*
X147521600Y-124703013D01*
X147521600Y-124971729D01*
X147514067Y-125001476D01*
X147493284Y-125024052D01*
X147401618Y-125083939D01*
X147401613Y-125083942D01*
X147397282Y-125086773D01*
X147394103Y-125090857D01*
X147394099Y-125090861D01*
X147328124Y-125175627D01*
X147328122Y-125175629D01*
X147324942Y-125179716D01*
X147323262Y-125184608D01*
X147323260Y-125184613D01*
X147297378Y-125260006D01*
X147286700Y-125291111D01*
X147286700Y-125296291D01*
X147286700Y-126538336D01*
X147281942Y-126562254D01*
X147268394Y-126582530D01*
X146990926Y-126859996D01*
X146980920Y-126868122D01*
X146972019Y-126873937D01*
X146972010Y-126873944D01*
X146967682Y-126876773D01*
X146964505Y-126880853D01*
X146964500Y-126880859D01*
X146947346Y-126902899D01*
X146942229Y-126908694D01*
X146941613Y-126909309D01*
X146941603Y-126909319D01*
X146939784Y-126911140D01*
X146938285Y-126913238D01*
X146938286Y-126913238D01*
X146927782Y-126927949D01*
X146926240Y-126930016D01*
X146898522Y-126965629D01*
X146898519Y-126965632D01*
X146895342Y-126969716D01*
X146893661Y-126974610D01*
X146892984Y-126975862D01*
X146892700Y-126976316D01*
X146892408Y-126976883D01*
X146892206Y-126977373D01*
X146891579Y-126978655D01*
X146888574Y-126982865D01*
X146887098Y-126987821D01*
X146887097Y-126987824D01*
X146874221Y-127031071D01*
X146873434Y-127033527D01*
X146858780Y-127076213D01*
X146858778Y-127076220D01*
X146857100Y-127081111D01*
X146857100Y-127086282D01*
X146856867Y-127087679D01*
X146856747Y-127088196D01*
X146856653Y-127088845D01*
X146856620Y-127089380D01*
X146856445Y-127090779D01*
X146854967Y-127095745D01*
X146855181Y-127100918D01*
X146855181Y-127100919D01*
X146857047Y-127146026D01*
X146857100Y-127148609D01*
X146857100Y-128672070D01*
X146846162Y-128707391D01*
X146817178Y-128730349D01*
X146723545Y-128766622D01*
X146723537Y-128766625D01*
X146720855Y-128767665D01*
X146718408Y-128769179D01*
X146718404Y-128769182D01*
X146551133Y-128872751D01*
X146551124Y-128872757D01*
X146548680Y-128874271D01*
X146546553Y-128876209D01*
X146546545Y-128876216D01*
X146401160Y-129008753D01*
X146401156Y-129008756D01*
X146399026Y-129010699D01*
X146397286Y-129013002D01*
X146397286Y-129013003D01*
X146278731Y-129169993D01*
X146278724Y-129170003D01*
X146276988Y-129172303D01*
X146275700Y-129174888D01*
X146275699Y-129174891D01*
X146188008Y-129350997D01*
X146188003Y-129351007D01*
X146186723Y-129353580D01*
X146185934Y-129356351D01*
X146185614Y-129357179D01*
X146162655Y-129386163D01*
X146127335Y-129397100D01*
X145752665Y-129397100D01*
X145717345Y-129386163D01*
X145694386Y-129357179D01*
X145694066Y-129356353D01*
X145693277Y-129353580D01*
X145687251Y-129341479D01*
X145659080Y-129284903D01*
X145603012Y-129172303D01*
X145480974Y-129010699D01*
X145331320Y-128874271D01*
X145328870Y-128872754D01*
X145328866Y-128872751D01*
X145161597Y-128769183D01*
X145161595Y-128769182D01*
X145159145Y-128767665D01*
X145156458Y-128766624D01*
X145156456Y-128766623D01*
X144973003Y-128695553D01*
X144973001Y-128695552D01*
X144970313Y-128694511D01*
X144967477Y-128693980D01*
X144967474Y-128693980D01*
X144774088Y-128657829D01*
X144774079Y-128657828D01*
X144771254Y-128657300D01*
X144568746Y-128657300D01*
X144565921Y-128657828D01*
X144565911Y-128657829D01*
X144372525Y-128693980D01*
X144372520Y-128693981D01*
X144369687Y-128694511D01*
X144367000Y-128695551D01*
X144366996Y-128695553D01*
X144183543Y-128766623D01*
X144183537Y-128766625D01*
X144180855Y-128767665D01*
X144178408Y-128769179D01*
X144178402Y-128769183D01*
X144011133Y-128872751D01*
X144011124Y-128872757D01*
X144008680Y-128874271D01*
X144006553Y-128876209D01*
X144006545Y-128876216D01*
X143861160Y-129008753D01*
X143861156Y-129008756D01*
X143859026Y-129010699D01*
X143857286Y-129013002D01*
X143857286Y-129013003D01*
X143738731Y-129169993D01*
X143738724Y-129170003D01*
X143736988Y-129172303D01*
X143735700Y-129174888D01*
X143735699Y-129174891D01*
X143648008Y-129350997D01*
X143648003Y-129351007D01*
X143646723Y-129353580D01*
X143645934Y-129356351D01*
X143645614Y-129357179D01*
X143622655Y-129386163D01*
X143587335Y-129397100D01*
X143212665Y-129397100D01*
X143177345Y-129386163D01*
X143154386Y-129357179D01*
X143154066Y-129356353D01*
X143153277Y-129353580D01*
X143147251Y-129341479D01*
X143119080Y-129284903D01*
X143063012Y-129172303D01*
X142940974Y-129010699D01*
X142791320Y-128874271D01*
X142788870Y-128872754D01*
X142788866Y-128872751D01*
X142621597Y-128769183D01*
X142621595Y-128769182D01*
X142619145Y-128767665D01*
X142616458Y-128766624D01*
X142616456Y-128766623D01*
X142433003Y-128695553D01*
X142433001Y-128695552D01*
X142430313Y-128694511D01*
X142427477Y-128693980D01*
X142427474Y-128693980D01*
X142234088Y-128657829D01*
X142234079Y-128657828D01*
X142231254Y-128657300D01*
X142028746Y-128657300D01*
X142025921Y-128657828D01*
X142025911Y-128657829D01*
X141832525Y-128693980D01*
X141832520Y-128693981D01*
X141829687Y-128694511D01*
X141827000Y-128695551D01*
X141826996Y-128695553D01*
X141643543Y-128766623D01*
X141643537Y-128766625D01*
X141640855Y-128767665D01*
X141638408Y-128769179D01*
X141638402Y-128769183D01*
X141471133Y-128872751D01*
X141471124Y-128872757D01*
X141468680Y-128874271D01*
X141466553Y-128876209D01*
X141466545Y-128876216D01*
X141321160Y-129008753D01*
X141321156Y-129008756D01*
X141319026Y-129010699D01*
X141317286Y-129013002D01*
X141317286Y-129013003D01*
X141198731Y-129169993D01*
X141198724Y-129170003D01*
X141196988Y-129172303D01*
X141195700Y-129174888D01*
X141195699Y-129174891D01*
X141127048Y-129312762D01*
X141097659Y-129341479D01*
X141056791Y-129345743D01*
X141022107Y-129323710D01*
X141008600Y-129284903D01*
X141008600Y-128198535D01*
X141008600Y-128186104D01*
X140996169Y-128186104D01*
X139775700Y-128186104D01*
X139731506Y-128167798D01*
X139713200Y-128123604D01*
X139713200Y-125017610D01*
X139728552Y-124976582D01*
X139767065Y-124955709D01*
X139809821Y-124965246D01*
X139835814Y-125000506D01*
X139850933Y-125053646D01*
X139850935Y-125053653D01*
X139851723Y-125056420D01*
X139853006Y-125058997D01*
X139853007Y-125058999D01*
X139878279Y-125109752D01*
X139941988Y-125237697D01*
X139943727Y-125240001D01*
X139943731Y-125240006D01*
X139982324Y-125291111D01*
X140064026Y-125399301D01*
X140147802Y-125475673D01*
X140196737Y-125520284D01*
X140213680Y-125535729D01*
X140385855Y-125642335D01*
X140574687Y-125715489D01*
X140773746Y-125752700D01*
X140973370Y-125752700D01*
X140976254Y-125752700D01*
X141175313Y-125715489D01*
X141364145Y-125642335D01*
X141536320Y-125535729D01*
X141685974Y-125399301D01*
X141808012Y-125237697D01*
X141898277Y-125056420D01*
X141953696Y-124861643D01*
X141972381Y-124660000D01*
X141953696Y-124458357D01*
X141898277Y-124263580D01*
X141808012Y-124082303D01*
X141685974Y-123920699D01*
X141620096Y-123860643D01*
X141538454Y-123786216D01*
X141538451Y-123786214D01*
X141536320Y-123784271D01*
X141533870Y-123782754D01*
X141533866Y-123782751D01*
X141366597Y-123679183D01*
X141366595Y-123679182D01*
X141364145Y-123677665D01*
X141361458Y-123676624D01*
X141361456Y-123676623D01*
X141178003Y-123605553D01*
X141178001Y-123605552D01*
X141175313Y-123604511D01*
X141172477Y-123603980D01*
X141172474Y-123603980D01*
X140979088Y-123567829D01*
X140979079Y-123567828D01*
X140976254Y-123567300D01*
X140773746Y-123567300D01*
X140770921Y-123567828D01*
X140770911Y-123567829D01*
X140577525Y-123603980D01*
X140577520Y-123603981D01*
X140574687Y-123604511D01*
X140572000Y-123605551D01*
X140571996Y-123605553D01*
X140388543Y-123676623D01*
X140388537Y-123676625D01*
X140385855Y-123677665D01*
X140383408Y-123679179D01*
X140383402Y-123679183D01*
X140216133Y-123782751D01*
X140216124Y-123782757D01*
X140213680Y-123784271D01*
X140211553Y-123786209D01*
X140211545Y-123786216D01*
X140066160Y-123918753D01*
X140066156Y-123918756D01*
X140064026Y-123920699D01*
X140062286Y-123923002D01*
X140062286Y-123923003D01*
X139943731Y-124079993D01*
X139943724Y-124080003D01*
X139941988Y-124082303D01*
X139940700Y-124084888D01*
X139940699Y-124084891D01*
X139853007Y-124261000D01*
X139853004Y-124261006D01*
X139851723Y-124263580D01*
X139850936Y-124266343D01*
X139850933Y-124266353D01*
X139835814Y-124319494D01*
X139809821Y-124354754D01*
X139767065Y-124364291D01*
X139728552Y-124343418D01*
X139713200Y-124302390D01*
X139713200Y-122477610D01*
X139728552Y-122436582D01*
X139767065Y-122415709D01*
X139809821Y-122425246D01*
X139835814Y-122460506D01*
X139850933Y-122513646D01*
X139850935Y-122513653D01*
X139851723Y-122516420D01*
X139853006Y-122518997D01*
X139853007Y-122518999D01*
X139861682Y-122536420D01*
X139941988Y-122697697D01*
X139943727Y-122700001D01*
X139943731Y-122700006D01*
X139955136Y-122715108D01*
X140064026Y-122859301D01*
X140213680Y-122995729D01*
X140385855Y-123102335D01*
X140574687Y-123175489D01*
X140773746Y-123212700D01*
X140973370Y-123212700D01*
X140976254Y-123212700D01*
X141175313Y-123175489D01*
X141364145Y-123102335D01*
X141536320Y-122995729D01*
X141685974Y-122859301D01*
X141808012Y-122697697D01*
X141898277Y-122516420D01*
X141953696Y-122321643D01*
X141972381Y-122120000D01*
X141953696Y-121918357D01*
X141898277Y-121723580D01*
X141808012Y-121542303D01*
X141685974Y-121380699D01*
X141620096Y-121320643D01*
X141538454Y-121246216D01*
X141538451Y-121246214D01*
X141536320Y-121244271D01*
X141533870Y-121242754D01*
X141533866Y-121242751D01*
X141366597Y-121139183D01*
X141366595Y-121139182D01*
X141364145Y-121137665D01*
X141361458Y-121136624D01*
X141361456Y-121136623D01*
X141178003Y-121065553D01*
X141178001Y-121065552D01*
X141175313Y-121064511D01*
X141172477Y-121063980D01*
X141172474Y-121063980D01*
X140979088Y-121027829D01*
X140979079Y-121027828D01*
X140976254Y-121027300D01*
X140773746Y-121027300D01*
X140770921Y-121027828D01*
X140770911Y-121027829D01*
X140577525Y-121063980D01*
X140577520Y-121063981D01*
X140574687Y-121064511D01*
X140572000Y-121065551D01*
X140571996Y-121065553D01*
X140388543Y-121136623D01*
X140388537Y-121136625D01*
X140385855Y-121137665D01*
X140383408Y-121139179D01*
X140383402Y-121139183D01*
X140216133Y-121242751D01*
X140216124Y-121242757D01*
X140213680Y-121244271D01*
X140211553Y-121246209D01*
X140211545Y-121246216D01*
X140066160Y-121378753D01*
X140066156Y-121378756D01*
X140064026Y-121380699D01*
X140062286Y-121383002D01*
X140062286Y-121383003D01*
X139943731Y-121539993D01*
X139943724Y-121540003D01*
X139941988Y-121542303D01*
X139940700Y-121544888D01*
X139940699Y-121544891D01*
X139853007Y-121721000D01*
X139853004Y-121721006D01*
X139851723Y-121723580D01*
X139850936Y-121726343D01*
X139850933Y-121726353D01*
X139835814Y-121779494D01*
X139809821Y-121814754D01*
X139767065Y-121824291D01*
X139728552Y-121803418D01*
X139713200Y-121762390D01*
X139713200Y-119937610D01*
X139728552Y-119896582D01*
X139767065Y-119875709D01*
X139809821Y-119885246D01*
X139835814Y-119920506D01*
X139850933Y-119973646D01*
X139850935Y-119973653D01*
X139851723Y-119976420D01*
X139853006Y-119978997D01*
X139853007Y-119978999D01*
X139861682Y-119996420D01*
X139941988Y-120157697D01*
X139943727Y-120160001D01*
X139943731Y-120160006D01*
X139955136Y-120175108D01*
X140064026Y-120319301D01*
X140213680Y-120455729D01*
X140385855Y-120562335D01*
X140574687Y-120635489D01*
X140773746Y-120672700D01*
X140973370Y-120672700D01*
X140976254Y-120672700D01*
X141175313Y-120635489D01*
X141364145Y-120562335D01*
X141536320Y-120455729D01*
X141685974Y-120319301D01*
X141808012Y-120157697D01*
X141898277Y-119976420D01*
X141920993Y-119896582D01*
X141932968Y-119854496D01*
X141955417Y-119821724D01*
X141993082Y-119809100D01*
X146387769Y-119809100D01*
X146431963Y-119827406D01*
X146507849Y-119903292D01*
X146512225Y-119905522D01*
X146512227Y-119905523D01*
X146541633Y-119920506D01*
X146622694Y-119961809D01*
X146750000Y-119981972D01*
X146877306Y-119961809D01*
X146992151Y-119903292D01*
X147083292Y-119812151D01*
X147141809Y-119697306D01*
X147161972Y-119570000D01*
X147141809Y-119442694D01*
X147083292Y-119327849D01*
X146992151Y-119236708D01*
X146987775Y-119234478D01*
X146987772Y-119234476D01*
X146881687Y-119180423D01*
X146881685Y-119180422D01*
X146877306Y-119178191D01*
X146872453Y-119177422D01*
X146872449Y-119177421D01*
X146754855Y-119158797D01*
X146750000Y-119158028D01*
X146745145Y-119158797D01*
X146627550Y-119177421D01*
X146627544Y-119177422D01*
X146622694Y-119178191D01*
X146618316Y-119180421D01*
X146618312Y-119180423D01*
X146512227Y-119234476D01*
X146512221Y-119234480D01*
X146507849Y-119236708D01*
X146504375Y-119240181D01*
X146504372Y-119240184D01*
X146420188Y-119324368D01*
X146420185Y-119324371D01*
X146418205Y-119326351D01*
X146418199Y-119326357D01*
X146416708Y-119327849D01*
X146416590Y-119327731D01*
X146397443Y-119344087D01*
X146369067Y-119350900D01*
X141993082Y-119350900D01*
X141955417Y-119338276D01*
X141932968Y-119305504D01*
X141899066Y-119186353D01*
X141899065Y-119186352D01*
X141898277Y-119183580D01*
X141808012Y-119002303D01*
X141685974Y-118840699D01*
X141620096Y-118780643D01*
X141538454Y-118706216D01*
X141538451Y-118706214D01*
X141536320Y-118704271D01*
X141533870Y-118702754D01*
X141533866Y-118702751D01*
X141366597Y-118599183D01*
X141366595Y-118599182D01*
X141364145Y-118597665D01*
X141361458Y-118596624D01*
X141361456Y-118596623D01*
X141178003Y-118525553D01*
X141178001Y-118525552D01*
X141175313Y-118524511D01*
X141172477Y-118523980D01*
X141172474Y-118523980D01*
X140979088Y-118487829D01*
X140979079Y-118487828D01*
X140976254Y-118487300D01*
X140773746Y-118487300D01*
X140770921Y-118487828D01*
X140770911Y-118487829D01*
X140577525Y-118523980D01*
X140577520Y-118523981D01*
X140574687Y-118524511D01*
X140572000Y-118525551D01*
X140571996Y-118525553D01*
X140388543Y-118596623D01*
X140388537Y-118596625D01*
X140385855Y-118597665D01*
X140383408Y-118599179D01*
X140383402Y-118599183D01*
X140216133Y-118702751D01*
X140216124Y-118702757D01*
X140213680Y-118704271D01*
X140211553Y-118706209D01*
X140211545Y-118706216D01*
X140066160Y-118838753D01*
X140066156Y-118838756D01*
X140064026Y-118840699D01*
X140062286Y-118843002D01*
X140062286Y-118843003D01*
X139943731Y-118999993D01*
X139943724Y-119000003D01*
X139941988Y-119002303D01*
X139940700Y-119004888D01*
X139940699Y-119004891D01*
X139853007Y-119181000D01*
X139853004Y-119181006D01*
X139851723Y-119183580D01*
X139850936Y-119186343D01*
X139850933Y-119186353D01*
X139835814Y-119239494D01*
X139809821Y-119274754D01*
X139767065Y-119284291D01*
X139728552Y-119263418D01*
X139713200Y-119222390D01*
X139713200Y-116687600D01*
X145588128Y-116687600D01*
X145588897Y-116692455D01*
X145607521Y-116810049D01*
X145607522Y-116810053D01*
X145608291Y-116814906D01*
X145610522Y-116819285D01*
X145610523Y-116819287D01*
X145664576Y-116925372D01*
X145664578Y-116925375D01*
X145666808Y-116929751D01*
X145757949Y-117020892D01*
X145762325Y-117023122D01*
X145762327Y-117023123D01*
X145819294Y-117052149D01*
X145872794Y-117079409D01*
X146000100Y-117099572D01*
X146127406Y-117079409D01*
X146242251Y-117020892D01*
X146333392Y-116929751D01*
X146391909Y-116814906D01*
X146412072Y-116687600D01*
X146411303Y-116682745D01*
X146411303Y-116682740D01*
X146405025Y-116643105D01*
X146407314Y-116614014D01*
X146422559Y-116589135D01*
X146965690Y-116046006D01*
X147009885Y-116027700D01*
X147459101Y-116027700D01*
X147503295Y-116046006D01*
X147521601Y-116090200D01*
X147521601Y-116450056D01*
X147522199Y-116453066D01*
X147522200Y-116453069D01*
X147527555Y-116479993D01*
X147530472Y-116494658D01*
X147564266Y-116545234D01*
X147614842Y-116579028D01*
X147659443Y-116587900D01*
X148324556Y-116587899D01*
X148369158Y-116579028D01*
X148419734Y-116545234D01*
X148453528Y-116494658D01*
X148462400Y-116450057D01*
X148462400Y-116142400D01*
X148480706Y-116098206D01*
X148524900Y-116079900D01*
X148904051Y-116079900D01*
X148906935Y-116079900D01*
X148983863Y-116065520D01*
X149072833Y-116010431D01*
X149135896Y-115926923D01*
X149164533Y-115826273D01*
X149154878Y-115722075D01*
X149108234Y-115628401D01*
X149084553Y-115606813D01*
X149035178Y-115561801D01*
X149035177Y-115561800D01*
X149030901Y-115557902D01*
X148933322Y-115520100D01*
X148927531Y-115520100D01*
X148524899Y-115520100D01*
X148480705Y-115501794D01*
X148462399Y-115457600D01*
X148462399Y-115153015D01*
X148462399Y-115153013D01*
X148462399Y-115149944D01*
X148453528Y-115105342D01*
X148419734Y-115054766D01*
X148374275Y-115024391D01*
X148374274Y-115024390D01*
X148374272Y-115024389D01*
X148369158Y-115020972D01*
X148363125Y-115019772D01*
X148363123Y-115019771D01*
X148327567Y-115012698D01*
X148327559Y-115012697D01*
X148324557Y-115012100D01*
X148321487Y-115012100D01*
X147662515Y-115012100D01*
X147662504Y-115012100D01*
X147659444Y-115012101D01*
X147656434Y-115012699D01*
X147656430Y-115012700D01*
X147620879Y-115019771D01*
X147620877Y-115019771D01*
X147614842Y-115020972D01*
X147609726Y-115024389D01*
X147609724Y-115024391D01*
X147569383Y-115051346D01*
X147569380Y-115051348D01*
X147564266Y-115054766D01*
X147560848Y-115059880D01*
X147560846Y-115059883D01*
X147533890Y-115100225D01*
X147533888Y-115100229D01*
X147530472Y-115105342D01*
X147529272Y-115111372D01*
X147529271Y-115111376D01*
X147522198Y-115146932D01*
X147522197Y-115146941D01*
X147521600Y-115149943D01*
X147521600Y-115153013D01*
X147521600Y-115507000D01*
X147503294Y-115551194D01*
X147459100Y-115569500D01*
X146896727Y-115569500D01*
X146893457Y-115569414D01*
X146859024Y-115567609D01*
X146859019Y-115567609D01*
X146852461Y-115567266D01*
X146828419Y-115576493D01*
X146819026Y-115579276D01*
X146800259Y-115583265D01*
X146800257Y-115583265D01*
X146793835Y-115584631D01*
X146788525Y-115588488D01*
X146788517Y-115588492D01*
X146785488Y-115590693D01*
X146771162Y-115598472D01*
X146767668Y-115599813D01*
X146767665Y-115599814D01*
X146761536Y-115602168D01*
X146756892Y-115606811D01*
X146756890Y-115606813D01*
X146743330Y-115620373D01*
X146735875Y-115626740D01*
X146720357Y-115638015D01*
X146720353Y-115638018D01*
X146715042Y-115641878D01*
X146711758Y-115647564D01*
X146711758Y-115647565D01*
X146709887Y-115650806D01*
X146699957Y-115663745D01*
X146098564Y-116265137D01*
X146073684Y-116280384D01*
X146044594Y-116282674D01*
X146004957Y-116276397D01*
X146004956Y-116276397D01*
X146000100Y-116275628D01*
X145995245Y-116276397D01*
X145877650Y-116295021D01*
X145877644Y-116295022D01*
X145872794Y-116295791D01*
X145868416Y-116298021D01*
X145868412Y-116298023D01*
X145762327Y-116352076D01*
X145762321Y-116352080D01*
X145757949Y-116354308D01*
X145754475Y-116357781D01*
X145754472Y-116357784D01*
X145670284Y-116441972D01*
X145670281Y-116441975D01*
X145666808Y-116445449D01*
X145664580Y-116449821D01*
X145664576Y-116449827D01*
X145610523Y-116555912D01*
X145610521Y-116555916D01*
X145608291Y-116560294D01*
X145607522Y-116565144D01*
X145607521Y-116565150D01*
X145591932Y-116663580D01*
X145588128Y-116687600D01*
X139713200Y-116687600D01*
X139713200Y-114857610D01*
X139728552Y-114816582D01*
X139767065Y-114795709D01*
X139809821Y-114805246D01*
X139835814Y-114840506D01*
X139850933Y-114893646D01*
X139850935Y-114893653D01*
X139851723Y-114896420D01*
X139853006Y-114898997D01*
X139853007Y-114898999D01*
X139861682Y-114916420D01*
X139941988Y-115077697D01*
X139943727Y-115080001D01*
X139943731Y-115080006D01*
X139998864Y-115153013D01*
X140064026Y-115239301D01*
X140213680Y-115375729D01*
X140385855Y-115482335D01*
X140574687Y-115555489D01*
X140773746Y-115592700D01*
X140973370Y-115592700D01*
X140976254Y-115592700D01*
X141175313Y-115555489D01*
X141364145Y-115482335D01*
X141536320Y-115375729D01*
X141685974Y-115239301D01*
X141808012Y-115077697D01*
X141898277Y-114896420D01*
X141953696Y-114701643D01*
X141972381Y-114500000D01*
X141953696Y-114298357D01*
X141898277Y-114103580D01*
X141817644Y-113941648D01*
X141811908Y-113903728D01*
X141829397Y-113869598D01*
X143396624Y-112302371D01*
X143398958Y-112300156D01*
X143429486Y-112272670D01*
X143439963Y-112249137D01*
X143444631Y-112240539D01*
X143458661Y-112218936D01*
X143460273Y-112208754D01*
X143464907Y-112193113D01*
X143469100Y-112183697D01*
X143469100Y-112157944D01*
X143469870Y-112148167D01*
X143470329Y-112145265D01*
X143473897Y-112122742D01*
X143471228Y-112112782D01*
X143469100Y-112096612D01*
X143469100Y-111901994D01*
X145407100Y-111901994D01*
X145407101Y-111905056D01*
X145415972Y-111949658D01*
X145419390Y-111954774D01*
X145419391Y-111954775D01*
X145429291Y-111969592D01*
X145449766Y-112000234D01*
X145500342Y-112034028D01*
X145544943Y-112042900D01*
X147275056Y-112042899D01*
X147319658Y-112034028D01*
X147370234Y-112000234D01*
X147404028Y-111949658D01*
X147412900Y-111905057D01*
X147412899Y-111040000D01*
X147942247Y-111040000D01*
X147942548Y-111043056D01*
X147960044Y-111220699D01*
X147961611Y-111236603D01*
X147962498Y-111239529D01*
X147962500Y-111239536D01*
X148018065Y-111422709D01*
X148018068Y-111422716D01*
X148018958Y-111425650D01*
X148020404Y-111428357D01*
X148020407Y-111428362D01*
X148106299Y-111589055D01*
X148112084Y-111599878D01*
X148114032Y-111602252D01*
X148114033Y-111602253D01*
X148164946Y-111664291D01*
X148237411Y-111752589D01*
X148390122Y-111877916D01*
X148392833Y-111879365D01*
X148538301Y-111957119D01*
X148564350Y-111971042D01*
X148567288Y-111971933D01*
X148567290Y-111971934D01*
X148690891Y-112009428D01*
X148753397Y-112028389D01*
X148950000Y-112047753D01*
X149146603Y-112028389D01*
X149335650Y-111971042D01*
X149509878Y-111877916D01*
X149662589Y-111752589D01*
X149787916Y-111599878D01*
X149881042Y-111425650D01*
X149938389Y-111236603D01*
X149957753Y-111040000D01*
X149938389Y-110843397D01*
X149881042Y-110654350D01*
X149787916Y-110480122D01*
X149662589Y-110327411D01*
X149650205Y-110317248D01*
X149512253Y-110204033D01*
X149512252Y-110204032D01*
X149509878Y-110202084D01*
X149507169Y-110200636D01*
X149507166Y-110200634D01*
X149338362Y-110110407D01*
X149338357Y-110110404D01*
X149335650Y-110108958D01*
X149332716Y-110108068D01*
X149332709Y-110108065D01*
X149149536Y-110052500D01*
X149149529Y-110052498D01*
X149146603Y-110051611D01*
X149143553Y-110051310D01*
X149143550Y-110051310D01*
X148953056Y-110032548D01*
X148950000Y-110032247D01*
X148946944Y-110032548D01*
X148756449Y-110051310D01*
X148756445Y-110051310D01*
X148753397Y-110051611D01*
X148750472Y-110052498D01*
X148750463Y-110052500D01*
X148567290Y-110108065D01*
X148567279Y-110108069D01*
X148564350Y-110108958D01*
X148561646Y-110110403D01*
X148561637Y-110110407D01*
X148392833Y-110200634D01*
X148392825Y-110200638D01*
X148390122Y-110202084D01*
X148387752Y-110204028D01*
X148387746Y-110204033D01*
X148239781Y-110325465D01*
X148239775Y-110325470D01*
X148237411Y-110327411D01*
X148235470Y-110329775D01*
X148235465Y-110329781D01*
X148114033Y-110477746D01*
X148114028Y-110477752D01*
X148112084Y-110480122D01*
X148110638Y-110482825D01*
X148110634Y-110482833D01*
X148020407Y-110651637D01*
X148020403Y-110651646D01*
X148018958Y-110654350D01*
X148018069Y-110657279D01*
X148018065Y-110657290D01*
X147962500Y-110840463D01*
X147962498Y-110840472D01*
X147961611Y-110843397D01*
X147961310Y-110846445D01*
X147961310Y-110846449D01*
X147948237Y-110979183D01*
X147942247Y-111040000D01*
X147412899Y-111040000D01*
X147412899Y-110174944D01*
X147404028Y-110130342D01*
X147370234Y-110079766D01*
X147329428Y-110052500D01*
X147324774Y-110049390D01*
X147324772Y-110049389D01*
X147319658Y-110045972D01*
X147313625Y-110044772D01*
X147313623Y-110044771D01*
X147278067Y-110037698D01*
X147278059Y-110037697D01*
X147275057Y-110037100D01*
X147271987Y-110037100D01*
X145548015Y-110037100D01*
X145548004Y-110037100D01*
X145544944Y-110037101D01*
X145541934Y-110037699D01*
X145541930Y-110037700D01*
X145506379Y-110044771D01*
X145506377Y-110044771D01*
X145500342Y-110045972D01*
X145495226Y-110049389D01*
X145495224Y-110049391D01*
X145454883Y-110076346D01*
X145454880Y-110076348D01*
X145449766Y-110079766D01*
X145446348Y-110084880D01*
X145446346Y-110084883D01*
X145419390Y-110125225D01*
X145419388Y-110125229D01*
X145415972Y-110130342D01*
X145414772Y-110136372D01*
X145414771Y-110136376D01*
X145407698Y-110171932D01*
X145407697Y-110171941D01*
X145407100Y-110174943D01*
X145407100Y-110178011D01*
X145407100Y-110178012D01*
X145407100Y-111901984D01*
X145407100Y-111901994D01*
X143469100Y-111901994D01*
X143469100Y-111260784D01*
X143487406Y-111216590D01*
X146156590Y-108547406D01*
X146200784Y-108529100D01*
X151280631Y-108529100D01*
X151283902Y-108529186D01*
X151324889Y-108531334D01*
X151348924Y-108522107D01*
X151358321Y-108519323D01*
X151383515Y-108513969D01*
X151391849Y-108507913D01*
X151406194Y-108500124D01*
X151415814Y-108496432D01*
X151434030Y-108478214D01*
X151441475Y-108471857D01*
X151462308Y-108456722D01*
X151467459Y-108447798D01*
X151477391Y-108434853D01*
X151864205Y-108048040D01*
X151908400Y-108029734D01*
X151952594Y-108048040D01*
G37*
G04 #@! TD.AperFunction*
G04 #@! TA.AperFunction,Conductor*
G36*
X151632194Y-104799991D02*
G01*
X151650500Y-104844185D01*
X151650500Y-107587866D01*
X151645742Y-107611784D01*
X151632194Y-107632060D01*
X151211659Y-108052594D01*
X151167465Y-108070900D01*
X146087639Y-108070900D01*
X146084368Y-108070814D01*
X146049923Y-108069008D01*
X146049918Y-108069008D01*
X146043361Y-108068665D01*
X146037228Y-108071018D01*
X146037228Y-108071019D01*
X146019320Y-108077893D01*
X146009921Y-108080677D01*
X145991159Y-108084665D01*
X145991157Y-108084665D01*
X145984735Y-108086031D01*
X145979421Y-108089891D01*
X145979420Y-108089892D01*
X145976395Y-108092090D01*
X145962065Y-108099871D01*
X145958567Y-108101213D01*
X145958562Y-108101216D01*
X145952436Y-108103568D01*
X145947793Y-108108210D01*
X145947791Y-108108212D01*
X145934230Y-108121773D01*
X145926775Y-108128140D01*
X145911257Y-108139415D01*
X145911253Y-108139418D01*
X145905942Y-108143278D01*
X145902658Y-108148964D01*
X145902658Y-108148965D01*
X145900787Y-108152206D01*
X145890857Y-108165145D01*
X143083400Y-110972601D01*
X143081028Y-110974852D01*
X143055395Y-110997932D01*
X143055388Y-110997940D01*
X143050514Y-111002330D01*
X143047844Y-111008325D01*
X143047841Y-111008330D01*
X143040038Y-111025855D01*
X143035362Y-111034466D01*
X143024916Y-111050553D01*
X143024913Y-111050558D01*
X143021339Y-111056064D01*
X143020311Y-111062546D01*
X143020311Y-111062549D01*
X143019726Y-111066245D01*
X143015095Y-111081879D01*
X143010900Y-111091303D01*
X143010900Y-111097873D01*
X143010900Y-111117056D01*
X143010130Y-111126833D01*
X143007130Y-111145769D01*
X143007130Y-111145772D01*
X143006103Y-111152258D01*
X143008771Y-111162217D01*
X143010900Y-111178388D01*
X143010900Y-112014216D01*
X143006142Y-112038134D01*
X142992594Y-112058410D01*
X141503643Y-113547358D01*
X141466652Y-113565248D01*
X141426547Y-113556302D01*
X141366605Y-113519187D01*
X141366595Y-113519182D01*
X141364145Y-113517665D01*
X141361458Y-113516624D01*
X141361456Y-113516623D01*
X141178003Y-113445553D01*
X141178001Y-113445552D01*
X141175313Y-113444511D01*
X141172477Y-113443980D01*
X141172474Y-113443980D01*
X140979088Y-113407829D01*
X140979079Y-113407828D01*
X140976254Y-113407300D01*
X140773746Y-113407300D01*
X140770921Y-113407828D01*
X140770911Y-113407829D01*
X140577525Y-113443980D01*
X140577520Y-113443981D01*
X140574687Y-113444511D01*
X140572000Y-113445551D01*
X140571996Y-113445553D01*
X140388543Y-113516623D01*
X140388537Y-113516625D01*
X140385855Y-113517665D01*
X140383408Y-113519179D01*
X140383402Y-113519183D01*
X140216133Y-113622751D01*
X140216124Y-113622757D01*
X140213680Y-113624271D01*
X140211553Y-113626209D01*
X140211545Y-113626216D01*
X140066160Y-113758753D01*
X140066156Y-113758756D01*
X140064026Y-113760699D01*
X140062286Y-113763002D01*
X140062286Y-113763003D01*
X139943731Y-113919993D01*
X139943724Y-113920003D01*
X139941988Y-113922303D01*
X139940700Y-113924888D01*
X139940699Y-113924891D01*
X139853007Y-114101000D01*
X139853004Y-114101006D01*
X139851723Y-114103580D01*
X139850936Y-114106343D01*
X139850933Y-114106353D01*
X139835814Y-114159494D01*
X139809821Y-114194754D01*
X139767065Y-114204291D01*
X139728552Y-114183418D01*
X139713200Y-114142390D01*
X139713200Y-112317610D01*
X139728552Y-112276582D01*
X139767065Y-112255709D01*
X139809821Y-112265246D01*
X139835814Y-112300506D01*
X139850933Y-112353646D01*
X139850935Y-112353653D01*
X139851723Y-112356420D01*
X139853006Y-112358997D01*
X139853007Y-112358999D01*
X139878279Y-112409752D01*
X139941988Y-112537697D01*
X139943727Y-112540001D01*
X139943731Y-112540006D01*
X139955136Y-112555108D01*
X140064026Y-112699301D01*
X140213680Y-112835729D01*
X140216131Y-112837247D01*
X140216133Y-112837248D01*
X140242838Y-112853783D01*
X140385855Y-112942335D01*
X140574687Y-113015489D01*
X140773746Y-113052700D01*
X140973370Y-113052700D01*
X140976254Y-113052700D01*
X141175313Y-113015489D01*
X141364145Y-112942335D01*
X141536320Y-112835729D01*
X141685974Y-112699301D01*
X141808012Y-112537697D01*
X141898277Y-112356420D01*
X141953696Y-112161643D01*
X141972381Y-111960000D01*
X141953696Y-111758357D01*
X141898277Y-111563580D01*
X141817644Y-111401648D01*
X141811908Y-111363728D01*
X141829397Y-111329598D01*
X143826624Y-109332371D01*
X143828958Y-109330156D01*
X143859486Y-109302670D01*
X143869959Y-109279144D01*
X143874631Y-109270539D01*
X143888662Y-109248936D01*
X143890274Y-109238754D01*
X143894909Y-109223107D01*
X143899100Y-109213697D01*
X143899100Y-109187952D01*
X143899869Y-109178175D01*
X143900533Y-109173984D01*
X143903897Y-109152742D01*
X143901228Y-109142782D01*
X143899100Y-109126612D01*
X143899100Y-105850784D01*
X143917406Y-105806590D01*
X144226590Y-105497406D01*
X144270784Y-105479100D01*
X145551426Y-105479100D01*
X145591076Y-105493287D01*
X145612725Y-105529408D01*
X145606545Y-105571064D01*
X145579859Y-105595249D01*
X145580342Y-105595972D01*
X145575468Y-105599228D01*
X145575465Y-105599230D01*
X145575223Y-105599391D01*
X145575221Y-105599393D01*
X145534883Y-105626346D01*
X145534880Y-105626348D01*
X145529766Y-105629766D01*
X145526348Y-105634880D01*
X145526346Y-105634883D01*
X145499390Y-105675225D01*
X145499388Y-105675229D01*
X145495972Y-105680342D01*
X145494772Y-105686372D01*
X145494771Y-105686376D01*
X145487698Y-105721932D01*
X145487697Y-105721941D01*
X145487100Y-105724943D01*
X145487100Y-105728011D01*
X145487100Y-105728012D01*
X145487100Y-107451984D01*
X145487100Y-107451994D01*
X145487101Y-107455056D01*
X145487699Y-107458066D01*
X145487700Y-107458069D01*
X145491089Y-107475108D01*
X145495972Y-107499658D01*
X145529766Y-107550234D01*
X145580342Y-107584028D01*
X145624943Y-107592900D01*
X147355056Y-107592899D01*
X147399658Y-107584028D01*
X147450234Y-107550234D01*
X147484028Y-107499658D01*
X147492900Y-107455057D01*
X147492899Y-105724944D01*
X147484028Y-105680342D01*
X147450234Y-105629766D01*
X147404778Y-105599393D01*
X147404774Y-105599390D01*
X147404772Y-105599389D01*
X147404534Y-105599230D01*
X147404532Y-105599228D01*
X147399658Y-105595972D01*
X147400141Y-105595248D01*
X147373455Y-105571062D01*
X147367276Y-105529407D01*
X147388926Y-105493287D01*
X147428575Y-105479100D01*
X150762181Y-105479100D01*
X150765452Y-105479186D01*
X150806439Y-105481334D01*
X150830474Y-105472107D01*
X150839871Y-105469323D01*
X150865065Y-105463969D01*
X150873399Y-105457913D01*
X150887744Y-105450124D01*
X150897364Y-105446432D01*
X150915580Y-105428214D01*
X150923025Y-105421857D01*
X150943858Y-105406722D01*
X150949009Y-105397798D01*
X150958941Y-105384853D01*
X151428688Y-104915108D01*
X151543806Y-104799991D01*
X151588000Y-104781685D01*
X151632194Y-104799991D01*
G37*
G04 #@! TD.AperFunction*
G04 #@! TA.AperFunction,Conductor*
G36*
X157270694Y-84066906D02*
G01*
X157289000Y-84111100D01*
X157289000Y-86150248D01*
X157275493Y-86189055D01*
X157240809Y-86211088D01*
X157199941Y-86206824D01*
X157170552Y-86178107D01*
X157148920Y-86134664D01*
X157083012Y-86002303D01*
X156960974Y-85840699D01*
X156811320Y-85704271D01*
X156808870Y-85702754D01*
X156808866Y-85702751D01*
X156641597Y-85599183D01*
X156641595Y-85599182D01*
X156639145Y-85597665D01*
X156636458Y-85596624D01*
X156636456Y-85596623D01*
X156453003Y-85525553D01*
X156453001Y-85525552D01*
X156450313Y-85524511D01*
X156447477Y-85523980D01*
X156447474Y-85523980D01*
X156254088Y-85487829D01*
X156254079Y-85487828D01*
X156251254Y-85487300D01*
X156048746Y-85487300D01*
X156045921Y-85487828D01*
X156045911Y-85487829D01*
X155852525Y-85523980D01*
X155852520Y-85523981D01*
X155849687Y-85524511D01*
X155847000Y-85525551D01*
X155846996Y-85525553D01*
X155663543Y-85596623D01*
X155663537Y-85596625D01*
X155660855Y-85597665D01*
X155658408Y-85599179D01*
X155658402Y-85599183D01*
X155491133Y-85702751D01*
X155491124Y-85702757D01*
X155488680Y-85704271D01*
X155486553Y-85706209D01*
X155486545Y-85706216D01*
X155341160Y-85838753D01*
X155341156Y-85838756D01*
X155339026Y-85840699D01*
X155337286Y-85843002D01*
X155337286Y-85843003D01*
X155218731Y-85999993D01*
X155218724Y-86000003D01*
X155216988Y-86002303D01*
X155215700Y-86004888D01*
X155215699Y-86004891D01*
X155128007Y-86181000D01*
X155128004Y-86181006D01*
X155126723Y-86183580D01*
X155125936Y-86186343D01*
X155125933Y-86186353D01*
X155076175Y-86361236D01*
X155071304Y-86378357D01*
X155052619Y-86580000D01*
X155071304Y-86781643D01*
X155072095Y-86784423D01*
X155125933Y-86973646D01*
X155125935Y-86973653D01*
X155126723Y-86976420D01*
X155216988Y-87157697D01*
X155218727Y-87160001D01*
X155218731Y-87160006D01*
X155278922Y-87239711D01*
X155339026Y-87319301D01*
X155488680Y-87455729D01*
X155660855Y-87562335D01*
X155849687Y-87635489D01*
X156048746Y-87672700D01*
X156248370Y-87672700D01*
X156251254Y-87672700D01*
X156450313Y-87635489D01*
X156639145Y-87562335D01*
X156811320Y-87455729D01*
X156960974Y-87319301D01*
X157083012Y-87157697D01*
X157170551Y-86981893D01*
X157199941Y-86953176D01*
X157240809Y-86948912D01*
X157275493Y-86970945D01*
X157289000Y-87009752D01*
X157289000Y-88690248D01*
X157275493Y-88729055D01*
X157240809Y-88751088D01*
X157199941Y-88746824D01*
X157170552Y-88718107D01*
X157148920Y-88674664D01*
X157083012Y-88542303D01*
X156960974Y-88380699D01*
X156811320Y-88244271D01*
X156808870Y-88242754D01*
X156808866Y-88242751D01*
X156641597Y-88139183D01*
X156641595Y-88139182D01*
X156639145Y-88137665D01*
X156636458Y-88136624D01*
X156636456Y-88136623D01*
X156453003Y-88065553D01*
X156453001Y-88065552D01*
X156450313Y-88064511D01*
X156447477Y-88063980D01*
X156447474Y-88063980D01*
X156254088Y-88027829D01*
X156254079Y-88027828D01*
X156251254Y-88027300D01*
X156048746Y-88027300D01*
X156045921Y-88027828D01*
X156045911Y-88027829D01*
X155852525Y-88063980D01*
X155852520Y-88063981D01*
X155849687Y-88064511D01*
X155847000Y-88065551D01*
X155846996Y-88065553D01*
X155663543Y-88136623D01*
X155663537Y-88136625D01*
X155660855Y-88137665D01*
X155658408Y-88139179D01*
X155658402Y-88139183D01*
X155491133Y-88242751D01*
X155491124Y-88242757D01*
X155488680Y-88244271D01*
X155486553Y-88246209D01*
X155486545Y-88246216D01*
X155341160Y-88378753D01*
X155341156Y-88378756D01*
X155339026Y-88380699D01*
X155337286Y-88383002D01*
X155337286Y-88383003D01*
X155218731Y-88539993D01*
X155218724Y-88540003D01*
X155216988Y-88542303D01*
X155215700Y-88544888D01*
X155215699Y-88544891D01*
X155128007Y-88721000D01*
X155128004Y-88721006D01*
X155126723Y-88723580D01*
X155125936Y-88726343D01*
X155125933Y-88726353D01*
X155076175Y-88901236D01*
X155071304Y-88918357D01*
X155052619Y-89120000D01*
X155071304Y-89321643D01*
X155072095Y-89324423D01*
X155125933Y-89513646D01*
X155125935Y-89513653D01*
X155126723Y-89516420D01*
X155216988Y-89697697D01*
X155218727Y-89700001D01*
X155218731Y-89700006D01*
X155247362Y-89737919D01*
X155339026Y-89859301D01*
X155488680Y-89995729D01*
X155660855Y-90102335D01*
X155849687Y-90175489D01*
X156048746Y-90212700D01*
X156248370Y-90212700D01*
X156251254Y-90212700D01*
X156450313Y-90175489D01*
X156639145Y-90102335D01*
X156811320Y-89995729D01*
X156960974Y-89859301D01*
X157083012Y-89697697D01*
X157170551Y-89521893D01*
X157199941Y-89493176D01*
X157240809Y-89488912D01*
X157275493Y-89510945D01*
X157289000Y-89549752D01*
X157289000Y-91230248D01*
X157275493Y-91269055D01*
X157240809Y-91291088D01*
X157199941Y-91286824D01*
X157170552Y-91258107D01*
X157118898Y-91154372D01*
X157083012Y-91082303D01*
X156960974Y-90920699D01*
X156811320Y-90784271D01*
X156808870Y-90782754D01*
X156808866Y-90782751D01*
X156641597Y-90679183D01*
X156641595Y-90679182D01*
X156639145Y-90677665D01*
X156636458Y-90676624D01*
X156636456Y-90676623D01*
X156453003Y-90605553D01*
X156453001Y-90605552D01*
X156450313Y-90604511D01*
X156447477Y-90603980D01*
X156447474Y-90603980D01*
X156254088Y-90567829D01*
X156254079Y-90567828D01*
X156251254Y-90567300D01*
X156048746Y-90567300D01*
X156045921Y-90567828D01*
X156045911Y-90567829D01*
X155852525Y-90603980D01*
X155852520Y-90603981D01*
X155849687Y-90604511D01*
X155847000Y-90605551D01*
X155846996Y-90605553D01*
X155663543Y-90676623D01*
X155663537Y-90676625D01*
X155660855Y-90677665D01*
X155658408Y-90679179D01*
X155658402Y-90679183D01*
X155491133Y-90782751D01*
X155491124Y-90782757D01*
X155488680Y-90784271D01*
X155486553Y-90786209D01*
X155486545Y-90786216D01*
X155341160Y-90918753D01*
X155341156Y-90918756D01*
X155339026Y-90920699D01*
X155337286Y-90923002D01*
X155337286Y-90923003D01*
X155218731Y-91079993D01*
X155218724Y-91080003D01*
X155216988Y-91082303D01*
X155215700Y-91084888D01*
X155215699Y-91084891D01*
X155128007Y-91261000D01*
X155128004Y-91261006D01*
X155126723Y-91263580D01*
X155125936Y-91266343D01*
X155125933Y-91266353D01*
X155076175Y-91441236D01*
X155071304Y-91458357D01*
X155052619Y-91660000D01*
X155052886Y-91662881D01*
X155067044Y-91815676D01*
X155071304Y-91861643D01*
X155072095Y-91864423D01*
X155125933Y-92053646D01*
X155125935Y-92053653D01*
X155126723Y-92056420D01*
X155216988Y-92237697D01*
X155218727Y-92240001D01*
X155218731Y-92240006D01*
X155248861Y-92279904D01*
X155339026Y-92399301D01*
X155488680Y-92535729D01*
X155491131Y-92537247D01*
X155491133Y-92537248D01*
X155511323Y-92549749D01*
X155660855Y-92642335D01*
X155849687Y-92715489D01*
X156048746Y-92752700D01*
X156248370Y-92752700D01*
X156251254Y-92752700D01*
X156450313Y-92715489D01*
X156639145Y-92642335D01*
X156811320Y-92535729D01*
X156960974Y-92399301D01*
X157083012Y-92237697D01*
X157170551Y-92061893D01*
X157199941Y-92033176D01*
X157240809Y-92028912D01*
X157275493Y-92050945D01*
X157289000Y-92089752D01*
X157289000Y-93770248D01*
X157275493Y-93809055D01*
X157240809Y-93831088D01*
X157199941Y-93826824D01*
X157170552Y-93798107D01*
X157132954Y-93722601D01*
X157083012Y-93622303D01*
X156960974Y-93460699D01*
X156811320Y-93324271D01*
X156808870Y-93322754D01*
X156808866Y-93322751D01*
X156641597Y-93219183D01*
X156641595Y-93219182D01*
X156639145Y-93217665D01*
X156636458Y-93216624D01*
X156636456Y-93216623D01*
X156453003Y-93145553D01*
X156453001Y-93145552D01*
X156450313Y-93144511D01*
X156447477Y-93143980D01*
X156447474Y-93143980D01*
X156254088Y-93107829D01*
X156254079Y-93107828D01*
X156251254Y-93107300D01*
X156048746Y-93107300D01*
X156045921Y-93107828D01*
X156045911Y-93107829D01*
X155852525Y-93143980D01*
X155852520Y-93143981D01*
X155849687Y-93144511D01*
X155847000Y-93145551D01*
X155846996Y-93145553D01*
X155663543Y-93216623D01*
X155663537Y-93216625D01*
X155660855Y-93217665D01*
X155658408Y-93219179D01*
X155658402Y-93219183D01*
X155491133Y-93322751D01*
X155491124Y-93322757D01*
X155488680Y-93324271D01*
X155486553Y-93326209D01*
X155486545Y-93326216D01*
X155341160Y-93458753D01*
X155341156Y-93458756D01*
X155339026Y-93460699D01*
X155337286Y-93463002D01*
X155337286Y-93463003D01*
X155218731Y-93619993D01*
X155218724Y-93620003D01*
X155216988Y-93622303D01*
X155215700Y-93624888D01*
X155215699Y-93624891D01*
X155128007Y-93801000D01*
X155128004Y-93801006D01*
X155126723Y-93803580D01*
X155125936Y-93806343D01*
X155125933Y-93806353D01*
X155076175Y-93981236D01*
X155071304Y-93998357D01*
X155071037Y-94001233D01*
X155071037Y-94001236D01*
X155063739Y-94080000D01*
X155052619Y-94200000D01*
X155052886Y-94202881D01*
X155070075Y-94388386D01*
X155071304Y-94401643D01*
X155072095Y-94404423D01*
X155118598Y-94567864D01*
X155116499Y-94608217D01*
X155090150Y-94638852D01*
X155050565Y-94646964D01*
X155014290Y-94629162D01*
X154631678Y-94246550D01*
X154616431Y-94221670D01*
X154614141Y-94192579D01*
X154616134Y-94180000D01*
X154631972Y-94080000D01*
X154611809Y-93952694D01*
X154553292Y-93837849D01*
X154462151Y-93746708D01*
X154457775Y-93744478D01*
X154457772Y-93744476D01*
X154351687Y-93690423D01*
X154351685Y-93690422D01*
X154347306Y-93688191D01*
X154342453Y-93687422D01*
X154342449Y-93687421D01*
X154224855Y-93668797D01*
X154220000Y-93668028D01*
X154215145Y-93668797D01*
X154097550Y-93687421D01*
X154097544Y-93687422D01*
X154092694Y-93688191D01*
X154088316Y-93690421D01*
X154088312Y-93690423D01*
X153982227Y-93744476D01*
X153982221Y-93744480D01*
X153977849Y-93746708D01*
X153974375Y-93750181D01*
X153974372Y-93750184D01*
X153890184Y-93834372D01*
X153890181Y-93834375D01*
X153886708Y-93837849D01*
X153884480Y-93842221D01*
X153884476Y-93842227D01*
X153830423Y-93948312D01*
X153830421Y-93948316D01*
X153828191Y-93952694D01*
X153827422Y-93957544D01*
X153827421Y-93957550D01*
X153809866Y-94068393D01*
X153808028Y-94080000D01*
X153808797Y-94084855D01*
X153827421Y-94202449D01*
X153827422Y-94202453D01*
X153828191Y-94207306D01*
X153830422Y-94211685D01*
X153830423Y-94211687D01*
X153884476Y-94317772D01*
X153884478Y-94317775D01*
X153886708Y-94322151D01*
X153890184Y-94325627D01*
X153918526Y-94353969D01*
X153936062Y-94388386D01*
X153930020Y-94426537D01*
X153902707Y-94453851D01*
X153862228Y-94474476D01*
X153862224Y-94474478D01*
X153857849Y-94476708D01*
X153854375Y-94480181D01*
X153854372Y-94480184D01*
X153770184Y-94564372D01*
X153770181Y-94564375D01*
X153766708Y-94567849D01*
X153764480Y-94572221D01*
X153764476Y-94572227D01*
X153710423Y-94678312D01*
X153710421Y-94678316D01*
X153708191Y-94682694D01*
X153707422Y-94687544D01*
X153707421Y-94687550D01*
X153690627Y-94793590D01*
X153688028Y-94810000D01*
X153688797Y-94814855D01*
X153707421Y-94932449D01*
X153707422Y-94932453D01*
X153708191Y-94937306D01*
X153710422Y-94941685D01*
X153710423Y-94941687D01*
X153764476Y-95047772D01*
X153764478Y-95047775D01*
X153766708Y-95052151D01*
X153857849Y-95143292D01*
X153862225Y-95145522D01*
X153862227Y-95145523D01*
X153919194Y-95174549D01*
X153972694Y-95201809D01*
X154100000Y-95221972D01*
X154104855Y-95221203D01*
X154104860Y-95221203D01*
X154143516Y-95215080D01*
X154172607Y-95217369D01*
X154197488Y-95232616D01*
X154426994Y-95462122D01*
X154445300Y-95506316D01*
X154445300Y-97161558D01*
X154445214Y-97164829D01*
X154443401Y-97199407D01*
X154443401Y-97199410D01*
X154443107Y-97205024D01*
X154443107Y-97205026D01*
X154443058Y-97205967D01*
X154442909Y-97205959D01*
X154434471Y-97245650D01*
X154398230Y-97271979D01*
X154353681Y-97267296D01*
X154261690Y-97220424D01*
X154261685Y-97220422D01*
X154257306Y-97218191D01*
X154252453Y-97217422D01*
X154252449Y-97217421D01*
X154134855Y-97198797D01*
X154130000Y-97198028D01*
X154125145Y-97198797D01*
X154007550Y-97217421D01*
X154007544Y-97217422D01*
X154002694Y-97218191D01*
X153998316Y-97220421D01*
X153998312Y-97220423D01*
X153892227Y-97274476D01*
X153892221Y-97274480D01*
X153887849Y-97276708D01*
X153884375Y-97280181D01*
X153884372Y-97280184D01*
X153800184Y-97364372D01*
X153800181Y-97364375D01*
X153796708Y-97367849D01*
X153794480Y-97372221D01*
X153794476Y-97372227D01*
X153740423Y-97478312D01*
X153740421Y-97478316D01*
X153738191Y-97482694D01*
X153737422Y-97487544D01*
X153737421Y-97487550D01*
X153720596Y-97593783D01*
X153718028Y-97610000D01*
X153718797Y-97614855D01*
X153737421Y-97732449D01*
X153737422Y-97732453D01*
X153738191Y-97737306D01*
X153740422Y-97741685D01*
X153740423Y-97741687D01*
X153794476Y-97847772D01*
X153794478Y-97847775D01*
X153796708Y-97852151D01*
X153800184Y-97855627D01*
X153882594Y-97938037D01*
X153900900Y-97982231D01*
X153900900Y-99132381D01*
X153900814Y-99135652D01*
X153899009Y-99170076D01*
X153899009Y-99170080D01*
X153898666Y-99176639D01*
X153901020Y-99182773D01*
X153901021Y-99182775D01*
X153907891Y-99200674D01*
X153910676Y-99210074D01*
X153916031Y-99235265D01*
X153922090Y-99243605D01*
X153929871Y-99257934D01*
X153933568Y-99267564D01*
X153938212Y-99272208D01*
X153951774Y-99285770D01*
X153958143Y-99293227D01*
X153973278Y-99314058D01*
X153978963Y-99317340D01*
X153978964Y-99317341D01*
X153982202Y-99319210D01*
X153995148Y-99329144D01*
X154406994Y-99740991D01*
X154425300Y-99785185D01*
X154425300Y-101194665D01*
X154420542Y-101218583D01*
X154406993Y-101238860D01*
X154343240Y-101302610D01*
X154340869Y-101304860D01*
X154315245Y-101327932D01*
X154315238Y-101327940D01*
X154310364Y-101332330D01*
X154307694Y-101338325D01*
X154307691Y-101338330D01*
X154299888Y-101355855D01*
X154295212Y-101364466D01*
X154284766Y-101380553D01*
X154284763Y-101380558D01*
X154281189Y-101386064D01*
X154280161Y-101392546D01*
X154280161Y-101392549D01*
X154279576Y-101396245D01*
X154274945Y-101411879D01*
X154270750Y-101421303D01*
X154270750Y-101427873D01*
X154270750Y-101447056D01*
X154269980Y-101456833D01*
X154266980Y-101475769D01*
X154266980Y-101475772D01*
X154265953Y-101482258D01*
X154268621Y-101492217D01*
X154270750Y-101508388D01*
X154270750Y-108574091D01*
X154253210Y-108617506D01*
X154210434Y-108636553D01*
X154175652Y-108623895D01*
X154174471Y-108625941D01*
X154165543Y-108620786D01*
X154152601Y-108610855D01*
X153847406Y-108305659D01*
X153829100Y-108261465D01*
X153829100Y-101982127D01*
X153829186Y-101978857D01*
X153830990Y-101944423D01*
X153831334Y-101937861D01*
X153822107Y-101913824D01*
X153819324Y-101904431D01*
X153813969Y-101879235D01*
X153807908Y-101870892D01*
X153800124Y-101856555D01*
X153798785Y-101853066D01*
X153796432Y-101846936D01*
X153778225Y-101828729D01*
X153771855Y-101821271D01*
X153770932Y-101820000D01*
X153756722Y-101800442D01*
X153751034Y-101797158D01*
X153751032Y-101797156D01*
X153747793Y-101795286D01*
X153734851Y-101785355D01*
X153567862Y-101618365D01*
X153549642Y-101577442D01*
X153563485Y-101534838D01*
X153602278Y-101512440D01*
X153669406Y-101501809D01*
X153784251Y-101443292D01*
X153875392Y-101352151D01*
X153933909Y-101237306D01*
X153954072Y-101110000D01*
X153933909Y-100982694D01*
X153875392Y-100867849D01*
X153789506Y-100781963D01*
X153771200Y-100737769D01*
X153771200Y-99859719D01*
X153771286Y-99856448D01*
X153773090Y-99822022D01*
X153773434Y-99815460D01*
X153764202Y-99791411D01*
X153761424Y-99782031D01*
X153756069Y-99756835D01*
X153750008Y-99748492D01*
X153742224Y-99734155D01*
X153740885Y-99730666D01*
X153738532Y-99724536D01*
X153720325Y-99706329D01*
X153713955Y-99698871D01*
X153702682Y-99683355D01*
X153698822Y-99678042D01*
X153693134Y-99674758D01*
X153693132Y-99674756D01*
X153689893Y-99672886D01*
X153676951Y-99662955D01*
X153375106Y-99361109D01*
X153356800Y-99316915D01*
X153356800Y-97373084D01*
X153375106Y-97328890D01*
X153595084Y-97108912D01*
X153876624Y-96827371D01*
X153878958Y-96825156D01*
X153909486Y-96797670D01*
X153919959Y-96774144D01*
X153924631Y-96765539D01*
X153938662Y-96743936D01*
X153940274Y-96733754D01*
X153944909Y-96718107D01*
X153949100Y-96708697D01*
X153949100Y-96682951D01*
X153949869Y-96673174D01*
X153953897Y-96647741D01*
X153951228Y-96637781D01*
X153949100Y-96621611D01*
X153949100Y-95807619D01*
X153949186Y-95804348D01*
X153950990Y-95769923D01*
X153951334Y-95763361D01*
X153948747Y-95756623D01*
X153942107Y-95739324D01*
X153939324Y-95729931D01*
X153933969Y-95704735D01*
X153927908Y-95696392D01*
X153920124Y-95682055D01*
X153918785Y-95678566D01*
X153916432Y-95672436D01*
X153898225Y-95654229D01*
X153891855Y-95646771D01*
X153880582Y-95631255D01*
X153876722Y-95625942D01*
X153871034Y-95622658D01*
X153871032Y-95622656D01*
X153867793Y-95620786D01*
X153854851Y-95610855D01*
X153407806Y-95163809D01*
X153389500Y-95119615D01*
X153389500Y-93831436D01*
X153407806Y-93787242D01*
X153965639Y-93229409D01*
X154526624Y-92668423D01*
X154528958Y-92666208D01*
X154559486Y-92638722D01*
X154569959Y-92615196D01*
X154574631Y-92606591D01*
X154588662Y-92584988D01*
X154590274Y-92574806D01*
X154594909Y-92559159D01*
X154599100Y-92549749D01*
X154599100Y-92524003D01*
X154599869Y-92514226D01*
X154599939Y-92513783D01*
X154603897Y-92488793D01*
X154601228Y-92478833D01*
X154599100Y-92462663D01*
X154599100Y-91757619D01*
X154599186Y-91754348D01*
X154600990Y-91719923D01*
X154601334Y-91713361D01*
X154592107Y-91689324D01*
X154589324Y-91679931D01*
X154583969Y-91654735D01*
X154577908Y-91646392D01*
X154570124Y-91632055D01*
X154568785Y-91628566D01*
X154566432Y-91622436D01*
X154548225Y-91604228D01*
X154541855Y-91596771D01*
X154530582Y-91581255D01*
X154526722Y-91575942D01*
X154521034Y-91572658D01*
X154521032Y-91572656D01*
X154517793Y-91570786D01*
X154504851Y-91560855D01*
X153519506Y-90575509D01*
X153501200Y-90531315D01*
X153501200Y-90299719D01*
X153501286Y-90296448D01*
X153501544Y-90291517D01*
X153503434Y-90255460D01*
X153494202Y-90231411D01*
X153491424Y-90222031D01*
X153486069Y-90196835D01*
X153480008Y-90188492D01*
X153472224Y-90174155D01*
X153470885Y-90170666D01*
X153468532Y-90164536D01*
X153450325Y-90146329D01*
X153443955Y-90138871D01*
X153432682Y-90123355D01*
X153428822Y-90118042D01*
X153419892Y-90112885D01*
X153406954Y-90102957D01*
X153044289Y-89740292D01*
X153042037Y-89737919D01*
X153018966Y-89712296D01*
X153018965Y-89712295D01*
X153014570Y-89707414D01*
X153008571Y-89704743D01*
X153008566Y-89704739D01*
X152991043Y-89696937D01*
X152982430Y-89692261D01*
X152966344Y-89681816D01*
X152966345Y-89681816D01*
X152960836Y-89678239D01*
X152950655Y-89676626D01*
X152935015Y-89671993D01*
X152925597Y-89667800D01*
X152919030Y-89667800D01*
X152899844Y-89667800D01*
X152890067Y-89667030D01*
X152871130Y-89664030D01*
X152871126Y-89664030D01*
X152864642Y-89663003D01*
X152854682Y-89665671D01*
X152838512Y-89667800D01*
X152560984Y-89667800D01*
X152516790Y-89649494D01*
X152434380Y-89567084D01*
X152434380Y-89567083D01*
X152430904Y-89563608D01*
X152426528Y-89561378D01*
X152426525Y-89561376D01*
X152320440Y-89507323D01*
X152320438Y-89507322D01*
X152316059Y-89505091D01*
X152311206Y-89504322D01*
X152311202Y-89504321D01*
X152193608Y-89485697D01*
X152188753Y-89484928D01*
X152183898Y-89485697D01*
X152066303Y-89504321D01*
X152066297Y-89504322D01*
X152061447Y-89505091D01*
X152057069Y-89507321D01*
X152057065Y-89507323D01*
X151950980Y-89561376D01*
X151950974Y-89561380D01*
X151946602Y-89563608D01*
X151943128Y-89567081D01*
X151943125Y-89567084D01*
X151858937Y-89651272D01*
X151858934Y-89651275D01*
X151855461Y-89654749D01*
X151853233Y-89659121D01*
X151853229Y-89659127D01*
X151799176Y-89765212D01*
X151799174Y-89765216D01*
X151796944Y-89769594D01*
X151796175Y-89774444D01*
X151796174Y-89774450D01*
X151783101Y-89856996D01*
X151776781Y-89896900D01*
X151777550Y-89901755D01*
X151796174Y-90019349D01*
X151796175Y-90019353D01*
X151796944Y-90024206D01*
X151799175Y-90028585D01*
X151799176Y-90028587D01*
X151853229Y-90134672D01*
X151853231Y-90134675D01*
X151855461Y-90139051D01*
X151858936Y-90142526D01*
X151858937Y-90142527D01*
X151941342Y-90224932D01*
X151958281Y-90256128D01*
X151955499Y-90291517D01*
X151939444Y-90312446D01*
X151940749Y-90313751D01*
X151853084Y-90401415D01*
X151853081Y-90401418D01*
X151849608Y-90404892D01*
X151847380Y-90409264D01*
X151847376Y-90409270D01*
X151793323Y-90515355D01*
X151793321Y-90515359D01*
X151791091Y-90519737D01*
X151790322Y-90524587D01*
X151790321Y-90524593D01*
X151780916Y-90583980D01*
X151770928Y-90647043D01*
X151771697Y-90651898D01*
X151790321Y-90769492D01*
X151790322Y-90769496D01*
X151791091Y-90774349D01*
X151793322Y-90778728D01*
X151793323Y-90778730D01*
X151847376Y-90884815D01*
X151847378Y-90884818D01*
X151849608Y-90889194D01*
X151940749Y-90980335D01*
X151945125Y-90982565D01*
X151945127Y-90982566D01*
X151955847Y-90988028D01*
X152055594Y-91038852D01*
X152182900Y-91059015D01*
X152310206Y-91038852D01*
X152425051Y-90980335D01*
X152510937Y-90894449D01*
X152555131Y-90876143D01*
X152715207Y-90876143D01*
X152739125Y-90880901D01*
X152759401Y-90894449D01*
X153817794Y-91952843D01*
X153836100Y-91997037D01*
X153836100Y-92254016D01*
X153831342Y-92277934D01*
X153817794Y-92298210D01*
X153485712Y-92630291D01*
X153451295Y-92647828D01*
X153413143Y-92641785D01*
X153385830Y-92614471D01*
X153379788Y-92576319D01*
X153381603Y-92564860D01*
X153381603Y-92564855D01*
X153382372Y-92560000D01*
X153362209Y-92432694D01*
X153303692Y-92317849D01*
X153212551Y-92226708D01*
X153208175Y-92224478D01*
X153208172Y-92224476D01*
X153102087Y-92170423D01*
X153102085Y-92170422D01*
X153097706Y-92168191D01*
X153092853Y-92167422D01*
X153092849Y-92167421D01*
X152975255Y-92148797D01*
X152970400Y-92148028D01*
X152965545Y-92148797D01*
X152847950Y-92167421D01*
X152847944Y-92167422D01*
X152843094Y-92168191D01*
X152838716Y-92170421D01*
X152838712Y-92170423D01*
X152732627Y-92224476D01*
X152732621Y-92224480D01*
X152728249Y-92226708D01*
X152724775Y-92230181D01*
X152724772Y-92230184D01*
X152640584Y-92314372D01*
X152640581Y-92314375D01*
X152637108Y-92317849D01*
X152634880Y-92322221D01*
X152634876Y-92322227D01*
X152580823Y-92428312D01*
X152580821Y-92428316D01*
X152578591Y-92432694D01*
X152577822Y-92437544D01*
X152577821Y-92437550D01*
X152561473Y-92540776D01*
X152558428Y-92560000D01*
X152559197Y-92564856D01*
X152559197Y-92567436D01*
X152554439Y-92591354D01*
X152540891Y-92611630D01*
X152346723Y-92805797D01*
X152337255Y-92813568D01*
X152325176Y-92821639D01*
X152325173Y-92821641D01*
X152320059Y-92825059D01*
X152316641Y-92830173D01*
X152316639Y-92830176D01*
X152305151Y-92847368D01*
X152305151Y-92847370D01*
X152305150Y-92847371D01*
X152305151Y-92847371D01*
X152264421Y-92908326D01*
X152264419Y-92908330D01*
X152261003Y-92913443D01*
X152259802Y-92919475D01*
X152259802Y-92919478D01*
X152249874Y-92969388D01*
X152240264Y-93017700D01*
X152241465Y-93023737D01*
X152244299Y-93037984D01*
X152245500Y-93050178D01*
X152245500Y-95812166D01*
X152244299Y-95824359D01*
X152240264Y-95844644D01*
X152261003Y-95948901D01*
X152264420Y-95954015D01*
X152264421Y-95954017D01*
X152282250Y-95980699D01*
X152309017Y-96020760D01*
X152319579Y-96036566D01*
X152320059Y-96037285D01*
X152319916Y-96037380D01*
X152336495Y-96077404D01*
X152336084Y-96080000D01*
X152336853Y-96084856D01*
X152336853Y-96087436D01*
X152332094Y-96111357D01*
X152318542Y-96131635D01*
X152314018Y-96136158D01*
X152304555Y-96143924D01*
X152292476Y-96151995D01*
X152292473Y-96151997D01*
X152287359Y-96155415D01*
X152283941Y-96160529D01*
X152283939Y-96160532D01*
X152272451Y-96177724D01*
X152272451Y-96177726D01*
X152272450Y-96177727D01*
X152272451Y-96177727D01*
X152231721Y-96238682D01*
X152231719Y-96238686D01*
X152228303Y-96243799D01*
X152227102Y-96249831D01*
X152227102Y-96249834D01*
X152215085Y-96310248D01*
X152207564Y-96348056D01*
X152208765Y-96354093D01*
X152211599Y-96368340D01*
X152212800Y-96380534D01*
X152212800Y-98311035D01*
X152208042Y-98334953D01*
X152194496Y-98355226D01*
X152071628Y-98478092D01*
X152027436Y-98496397D01*
X152024856Y-98496397D01*
X152020000Y-98495628D01*
X152015145Y-98496397D01*
X151897552Y-98515021D01*
X151897548Y-98515022D01*
X151892694Y-98515791D01*
X151888312Y-98518023D01*
X151888311Y-98518024D01*
X151864571Y-98530120D01*
X151826420Y-98536161D01*
X151792004Y-98518625D01*
X151760999Y-98487620D01*
X151753226Y-98478148D01*
X151745161Y-98466078D01*
X151741741Y-98460959D01*
X151722771Y-98448284D01*
X151706846Y-98437643D01*
X151658473Y-98405321D01*
X151658471Y-98405320D01*
X151653357Y-98401903D01*
X151647322Y-98400702D01*
X151647321Y-98400702D01*
X151555138Y-98382365D01*
X151549100Y-98381164D01*
X151538835Y-98383206D01*
X151528816Y-98385199D01*
X151516622Y-98386400D01*
X145612573Y-98386400D01*
X145600380Y-98385199D01*
X145586138Y-98382366D01*
X145580100Y-98381165D01*
X145574061Y-98382366D01*
X145574060Y-98382366D01*
X145569835Y-98383206D01*
X145547872Y-98383637D01*
X145457957Y-98369397D01*
X145457955Y-98369397D01*
X145453100Y-98368628D01*
X145448244Y-98369397D01*
X145445663Y-98369397D01*
X145401469Y-98351091D01*
X145042534Y-97992156D01*
X145024421Y-97952866D01*
X145036165Y-97911225D01*
X145072138Y-97887189D01*
X145115102Y-97892273D01*
X145192694Y-97931809D01*
X145320000Y-97951972D01*
X145447306Y-97931809D01*
X145562151Y-97873292D01*
X145653292Y-97782151D01*
X145711809Y-97667306D01*
X145731972Y-97540000D01*
X145711809Y-97412694D01*
X145653292Y-97297849D01*
X145567406Y-97211963D01*
X145549100Y-97167769D01*
X145549100Y-94010784D01*
X145567406Y-93966590D01*
X146625670Y-92908326D01*
X147711537Y-91822458D01*
X147736416Y-91807213D01*
X147765503Y-91804924D01*
X147810000Y-91811972D01*
X147937306Y-91791809D01*
X148052151Y-91733292D01*
X148143292Y-91642151D01*
X148201809Y-91527306D01*
X148221972Y-91400000D01*
X148201809Y-91272694D01*
X148143292Y-91157849D01*
X148052151Y-91066708D01*
X148047775Y-91064478D01*
X148047772Y-91064476D01*
X147941687Y-91010423D01*
X147941685Y-91010422D01*
X147937306Y-91008191D01*
X147932453Y-91007422D01*
X147932449Y-91007421D01*
X147814855Y-90988797D01*
X147810000Y-90988028D01*
X147805145Y-90988797D01*
X147687550Y-91007421D01*
X147687544Y-91007422D01*
X147682694Y-91008191D01*
X147678316Y-91010421D01*
X147678312Y-91010423D01*
X147572227Y-91064476D01*
X147572221Y-91064480D01*
X147567849Y-91066708D01*
X147564375Y-91070181D01*
X147564372Y-91070184D01*
X147480184Y-91154372D01*
X147480181Y-91154375D01*
X147476708Y-91157849D01*
X147474480Y-91162221D01*
X147474476Y-91162227D01*
X147420423Y-91268312D01*
X147420421Y-91268316D01*
X147418191Y-91272694D01*
X147417422Y-91277544D01*
X147417421Y-91277550D01*
X147406851Y-91344291D01*
X147398028Y-91400000D01*
X147398797Y-91404855D01*
X147398797Y-91404857D01*
X147405074Y-91444495D01*
X147402784Y-91473585D01*
X147387537Y-91498465D01*
X145163400Y-93722601D01*
X145161028Y-93724852D01*
X145135395Y-93747932D01*
X145135388Y-93747940D01*
X145130514Y-93752330D01*
X145127844Y-93758325D01*
X145127841Y-93758330D01*
X145120038Y-93775855D01*
X145115362Y-93784466D01*
X145104916Y-93800553D01*
X145104913Y-93800558D01*
X145101339Y-93806064D01*
X145100311Y-93812546D01*
X145100311Y-93812549D01*
X145099726Y-93816245D01*
X145095095Y-93831879D01*
X145090900Y-93841303D01*
X145090900Y-93847873D01*
X145090900Y-93867056D01*
X145090130Y-93876833D01*
X145087130Y-93895769D01*
X145087130Y-93895772D01*
X145086103Y-93902258D01*
X145088771Y-93912217D01*
X145090900Y-93928388D01*
X145090900Y-97167769D01*
X145072594Y-97211963D01*
X145033894Y-97250663D01*
X144989700Y-97268969D01*
X144945506Y-97250663D01*
X144927200Y-97206469D01*
X144927200Y-93106266D01*
X144945506Y-93062072D01*
X145055769Y-92951809D01*
X145426871Y-92580705D01*
X145447146Y-92567159D01*
X145471066Y-92562402D01*
X145473639Y-92562402D01*
X145478500Y-92563172D01*
X145605806Y-92543009D01*
X145720651Y-92484492D01*
X145811792Y-92393351D01*
X145870309Y-92278506D01*
X145890472Y-92151200D01*
X145870309Y-92023894D01*
X145834106Y-91952843D01*
X145814023Y-91913427D01*
X145814022Y-91913425D01*
X145811792Y-91909049D01*
X145720651Y-91817908D01*
X145716275Y-91815678D01*
X145716272Y-91815676D01*
X145610187Y-91761623D01*
X145610185Y-91761622D01*
X145605806Y-91759391D01*
X145600953Y-91758622D01*
X145600949Y-91758621D01*
X145483355Y-91739997D01*
X145478500Y-91739228D01*
X145473645Y-91739997D01*
X145356050Y-91758621D01*
X145356044Y-91758622D01*
X145351194Y-91759391D01*
X145346816Y-91761621D01*
X145346812Y-91761623D01*
X145240727Y-91815676D01*
X145240721Y-91815680D01*
X145236349Y-91817908D01*
X145232875Y-91821381D01*
X145232872Y-91821384D01*
X145148684Y-91905572D01*
X145148681Y-91905575D01*
X145145208Y-91909049D01*
X145142980Y-91913421D01*
X145142976Y-91913427D01*
X145088923Y-92019512D01*
X145088921Y-92019516D01*
X145086691Y-92023894D01*
X145085922Y-92028744D01*
X145085921Y-92028750D01*
X145076260Y-92089752D01*
X145066528Y-92151200D01*
X145067297Y-92156055D01*
X145067297Y-92158636D01*
X145062539Y-92182554D01*
X145048991Y-92202830D01*
X144494023Y-92757797D01*
X144484555Y-92765568D01*
X144472476Y-92773639D01*
X144472473Y-92773641D01*
X144467359Y-92777059D01*
X144463941Y-92782173D01*
X144463939Y-92782176D01*
X144452451Y-92799368D01*
X144452451Y-92799370D01*
X144452450Y-92799371D01*
X144452451Y-92799371D01*
X144411721Y-92860326D01*
X144411719Y-92860330D01*
X144408303Y-92865443D01*
X144407102Y-92871475D01*
X144407102Y-92871478D01*
X144397554Y-92919478D01*
X144387564Y-92969700D01*
X144388765Y-92975737D01*
X144391599Y-92989984D01*
X144392800Y-93002178D01*
X144392800Y-97955022D01*
X144391599Y-97967215D01*
X144387564Y-97987500D01*
X144388765Y-97993538D01*
X144397014Y-98035009D01*
X144408303Y-98091757D01*
X144411720Y-98096871D01*
X144411721Y-98096873D01*
X144437651Y-98135679D01*
X144459132Y-98167829D01*
X144467359Y-98180141D01*
X144478865Y-98187829D01*
X144484551Y-98191628D01*
X144494023Y-98199401D01*
X145023591Y-98728969D01*
X145041897Y-98773163D01*
X145041897Y-98775744D01*
X145041128Y-98780600D01*
X145041897Y-98785455D01*
X145060521Y-98903049D01*
X145060522Y-98903053D01*
X145061291Y-98907906D01*
X145063522Y-98912285D01*
X145063523Y-98912287D01*
X145117576Y-99018372D01*
X145117578Y-99018375D01*
X145119808Y-99022751D01*
X145210949Y-99113892D01*
X145215325Y-99116122D01*
X145215327Y-99116123D01*
X145247235Y-99132381D01*
X145325794Y-99172409D01*
X145453100Y-99192572D01*
X145580406Y-99172409D01*
X145695251Y-99113892D01*
X145786392Y-99022751D01*
X145820950Y-98954926D01*
X145843983Y-98930010D01*
X145876639Y-98920800D01*
X151412534Y-98920800D01*
X151456728Y-98939106D01*
X151591194Y-99073571D01*
X151598967Y-99083042D01*
X151610459Y-99100241D01*
X151625686Y-99110415D01*
X151661210Y-99134151D01*
X151685922Y-99150663D01*
X151695393Y-99158436D01*
X151732205Y-99195248D01*
X151750318Y-99234538D01*
X151738575Y-99276178D01*
X151702601Y-99300215D01*
X151659637Y-99295130D01*
X151629990Y-99280024D01*
X151629985Y-99280022D01*
X151625606Y-99277791D01*
X151620753Y-99277022D01*
X151620749Y-99277021D01*
X151503155Y-99258397D01*
X151498300Y-99257628D01*
X151493445Y-99258397D01*
X151375850Y-99277021D01*
X151375844Y-99277022D01*
X151370994Y-99277791D01*
X151366616Y-99280021D01*
X151366612Y-99280023D01*
X151260527Y-99334076D01*
X151260521Y-99334080D01*
X151256149Y-99336308D01*
X151252675Y-99339781D01*
X151252672Y-99339784D01*
X151168484Y-99423972D01*
X151168481Y-99423975D01*
X151165008Y-99427449D01*
X151162780Y-99431821D01*
X151162776Y-99431827D01*
X151108723Y-99537912D01*
X151108721Y-99537916D01*
X151106491Y-99542294D01*
X151105722Y-99547144D01*
X151105721Y-99547150D01*
X151091804Y-99635027D01*
X151086328Y-99669600D01*
X151087097Y-99674455D01*
X151087097Y-99674456D01*
X151098541Y-99746714D01*
X151092499Y-99784864D01*
X151065187Y-99812177D01*
X151027038Y-99818222D01*
X151020563Y-99817197D01*
X151020556Y-99817197D01*
X151015700Y-99816428D01*
X151010845Y-99817197D01*
X151010840Y-99817197D01*
X151000236Y-99818876D01*
X150962086Y-99812832D01*
X150934773Y-99785518D01*
X150928732Y-99747367D01*
X150928836Y-99746714D01*
X150938871Y-99683355D01*
X150944303Y-99649060D01*
X150944303Y-99649055D01*
X150945072Y-99644200D01*
X150924909Y-99516894D01*
X150896342Y-99460828D01*
X150868623Y-99406427D01*
X150868622Y-99406425D01*
X150866392Y-99402049D01*
X150775251Y-99310908D01*
X150770875Y-99308678D01*
X150770872Y-99308676D01*
X150664787Y-99254623D01*
X150664785Y-99254622D01*
X150660406Y-99252391D01*
X150655553Y-99251622D01*
X150655549Y-99251621D01*
X150537955Y-99232997D01*
X150533100Y-99232228D01*
X150528245Y-99232997D01*
X150410650Y-99251621D01*
X150410644Y-99251622D01*
X150405794Y-99252391D01*
X150401416Y-99254621D01*
X150401412Y-99254623D01*
X150295327Y-99308676D01*
X150295321Y-99308680D01*
X150290949Y-99310908D01*
X150287475Y-99314381D01*
X150287472Y-99314384D01*
X150203284Y-99398572D01*
X150203281Y-99398575D01*
X150199808Y-99402049D01*
X150197580Y-99406421D01*
X150197576Y-99406427D01*
X150143523Y-99512512D01*
X150143521Y-99512516D01*
X150141291Y-99516894D01*
X150140522Y-99521744D01*
X150140521Y-99521750D01*
X150128358Y-99598552D01*
X150121128Y-99644200D01*
X150121897Y-99649055D01*
X150121897Y-99649056D01*
X150137794Y-99749431D01*
X150131751Y-99787582D01*
X150104438Y-99814896D01*
X150066287Y-99820939D01*
X150042657Y-99817197D01*
X150042655Y-99817197D01*
X150037800Y-99816428D01*
X150032945Y-99817197D01*
X150032940Y-99817197D01*
X150022336Y-99818876D01*
X149984186Y-99812832D01*
X149956873Y-99785518D01*
X149950832Y-99747367D01*
X149950936Y-99746714D01*
X149960971Y-99683355D01*
X149966403Y-99649060D01*
X149966403Y-99649055D01*
X149967172Y-99644200D01*
X149947009Y-99516894D01*
X149918442Y-99460828D01*
X149890723Y-99406427D01*
X149890722Y-99406425D01*
X149888492Y-99402049D01*
X149797351Y-99310908D01*
X149792975Y-99308678D01*
X149792972Y-99308676D01*
X149686887Y-99254623D01*
X149686885Y-99254622D01*
X149682506Y-99252391D01*
X149677653Y-99251622D01*
X149677649Y-99251621D01*
X149560055Y-99232997D01*
X149555200Y-99232228D01*
X149550345Y-99232997D01*
X149432750Y-99251621D01*
X149432744Y-99251622D01*
X149427894Y-99252391D01*
X149423516Y-99254621D01*
X149423512Y-99254623D01*
X149317427Y-99308676D01*
X149317421Y-99308680D01*
X149313049Y-99310908D01*
X149309575Y-99314381D01*
X149309572Y-99314384D01*
X149225384Y-99398572D01*
X149225381Y-99398575D01*
X149221908Y-99402049D01*
X149219680Y-99406421D01*
X149219676Y-99406427D01*
X149165623Y-99512512D01*
X149165621Y-99512516D01*
X149163391Y-99516894D01*
X149162622Y-99521744D01*
X149162621Y-99521750D01*
X149150458Y-99598552D01*
X149143228Y-99644200D01*
X149151775Y-99698165D01*
X149159568Y-99747368D01*
X149153525Y-99785519D01*
X149126213Y-99812832D01*
X149088062Y-99818876D01*
X149077459Y-99817197D01*
X149077455Y-99817197D01*
X149072600Y-99816428D01*
X149067744Y-99817197D01*
X149067740Y-99817197D01*
X149056524Y-99818973D01*
X149018374Y-99812929D01*
X148991062Y-99785616D01*
X148985019Y-99747465D01*
X148992716Y-99698871D01*
X148998872Y-99660000D01*
X148978709Y-99532694D01*
X148927314Y-99431827D01*
X148922423Y-99422227D01*
X148922422Y-99422225D01*
X148920192Y-99417849D01*
X148829051Y-99326708D01*
X148824675Y-99324478D01*
X148824672Y-99324476D01*
X148718587Y-99270423D01*
X148718585Y-99270422D01*
X148714206Y-99268191D01*
X148709353Y-99267422D01*
X148709349Y-99267421D01*
X148591755Y-99248797D01*
X148586900Y-99248028D01*
X148582045Y-99248797D01*
X148464450Y-99267421D01*
X148464444Y-99267422D01*
X148459594Y-99268191D01*
X148455216Y-99270421D01*
X148455212Y-99270423D01*
X148349127Y-99324476D01*
X148349121Y-99324480D01*
X148344749Y-99326708D01*
X148341275Y-99330181D01*
X148341272Y-99330184D01*
X148257084Y-99414372D01*
X148257081Y-99414375D01*
X148253608Y-99417849D01*
X148251380Y-99422221D01*
X148251376Y-99422227D01*
X148197323Y-99528312D01*
X148197321Y-99528316D01*
X148195091Y-99532694D01*
X148194322Y-99537544D01*
X148194321Y-99537550D01*
X148182906Y-99609627D01*
X148174928Y-99660000D01*
X148176969Y-99672886D01*
X148188948Y-99748521D01*
X148182905Y-99786672D01*
X148155592Y-99813985D01*
X148117442Y-99820029D01*
X148099558Y-99817197D01*
X148099555Y-99817197D01*
X148094700Y-99816428D01*
X148089845Y-99817197D01*
X148089843Y-99817197D01*
X148008409Y-99830094D01*
X147961896Y-99818926D01*
X147936902Y-99778140D01*
X147932207Y-99748498D01*
X147927709Y-99720094D01*
X147891513Y-99649056D01*
X147871423Y-99609627D01*
X147871422Y-99609625D01*
X147869192Y-99605249D01*
X147778051Y-99514108D01*
X147773675Y-99511878D01*
X147773672Y-99511876D01*
X147667587Y-99457823D01*
X147667585Y-99457822D01*
X147663206Y-99455591D01*
X147658353Y-99454822D01*
X147658349Y-99454821D01*
X147540755Y-99436197D01*
X147535900Y-99435428D01*
X147531045Y-99436197D01*
X147413450Y-99454821D01*
X147413444Y-99454822D01*
X147408594Y-99455591D01*
X147404216Y-99457821D01*
X147404212Y-99457823D01*
X147298127Y-99511876D01*
X147298121Y-99511880D01*
X147293749Y-99514108D01*
X147290275Y-99517581D01*
X147290272Y-99517584D01*
X147211794Y-99596063D01*
X147167600Y-99614369D01*
X147123406Y-99596063D01*
X147070327Y-99542984D01*
X147066851Y-99539508D01*
X147062475Y-99537278D01*
X147062472Y-99537276D01*
X146956387Y-99483223D01*
X146956385Y-99483222D01*
X146952006Y-99480991D01*
X146947153Y-99480222D01*
X146947149Y-99480221D01*
X146837655Y-99462879D01*
X146824700Y-99460828D01*
X146813093Y-99462666D01*
X146702250Y-99480221D01*
X146702244Y-99480222D01*
X146697394Y-99480991D01*
X146693016Y-99483221D01*
X146693012Y-99483223D01*
X146586927Y-99537276D01*
X146586921Y-99537280D01*
X146582549Y-99539508D01*
X146579075Y-99542981D01*
X146579072Y-99542984D01*
X146494884Y-99627172D01*
X146494881Y-99627175D01*
X146491408Y-99630649D01*
X146489180Y-99635021D01*
X146489176Y-99635027D01*
X146435123Y-99741112D01*
X146435121Y-99741116D01*
X146432891Y-99745494D01*
X146432122Y-99750344D01*
X146432121Y-99750350D01*
X146415530Y-99855108D01*
X146412728Y-99872800D01*
X146413497Y-99877655D01*
X146432121Y-99995249D01*
X146432122Y-99995253D01*
X146432891Y-100000106D01*
X146435122Y-100004485D01*
X146435123Y-100004487D01*
X146489176Y-100110572D01*
X146489178Y-100110575D01*
X146491408Y-100114951D01*
X146582549Y-100206092D01*
X146586925Y-100208322D01*
X146586927Y-100208323D01*
X146643894Y-100237349D01*
X146697394Y-100264609D01*
X146824700Y-100284772D01*
X146869196Y-100277724D01*
X146898283Y-100280013D01*
X146923164Y-100295260D01*
X146983694Y-100355790D01*
X147002000Y-100399984D01*
X147002000Y-101109781D01*
X147001914Y-101113052D01*
X147000109Y-101147476D01*
X147000109Y-101147480D01*
X146999766Y-101154039D01*
X147002120Y-101160173D01*
X147002121Y-101160175D01*
X147008991Y-101178074D01*
X147011776Y-101187474D01*
X147017131Y-101212665D01*
X147023190Y-101221005D01*
X147030971Y-101235334D01*
X147034668Y-101244964D01*
X147039312Y-101249607D01*
X147039312Y-101249608D01*
X147052874Y-101263170D01*
X147059243Y-101270627D01*
X147074378Y-101291458D01*
X147080063Y-101294740D01*
X147080064Y-101294741D01*
X147083302Y-101296610D01*
X147096248Y-101306544D01*
X147946712Y-102157008D01*
X147952041Y-102163589D01*
X147953568Y-102167564D01*
X147958212Y-102172208D01*
X147971774Y-102185770D01*
X147978144Y-102193228D01*
X147992411Y-102212865D01*
X148004005Y-102256134D01*
X147983668Y-102296048D01*
X147941847Y-102312101D01*
X147685444Y-102312101D01*
X147682434Y-102312699D01*
X147682430Y-102312700D01*
X147646879Y-102319771D01*
X147646877Y-102319771D01*
X147640842Y-102320972D01*
X147635726Y-102324389D01*
X147635724Y-102324391D01*
X147595383Y-102351346D01*
X147595380Y-102351348D01*
X147590266Y-102354766D01*
X147586848Y-102359880D01*
X147586846Y-102359883D01*
X147561967Y-102397118D01*
X147530090Y-102421578D01*
X147489910Y-102421578D01*
X147458033Y-102397118D01*
X147433153Y-102359883D01*
X147429734Y-102354766D01*
X147384275Y-102324391D01*
X147384274Y-102324390D01*
X147384272Y-102324389D01*
X147379158Y-102320972D01*
X147373125Y-102319772D01*
X147373123Y-102319771D01*
X147337567Y-102312698D01*
X147337559Y-102312697D01*
X147334557Y-102312100D01*
X147331487Y-102312100D01*
X146672515Y-102312100D01*
X146672504Y-102312100D01*
X146669444Y-102312101D01*
X146666434Y-102312699D01*
X146666430Y-102312700D01*
X146630879Y-102319771D01*
X146630877Y-102319771D01*
X146624842Y-102320972D01*
X146619726Y-102324389D01*
X146619724Y-102324391D01*
X146579383Y-102351346D01*
X146579380Y-102351348D01*
X146574266Y-102354766D01*
X146570848Y-102359880D01*
X146570846Y-102359883D01*
X146543890Y-102400225D01*
X146543888Y-102400229D01*
X146540472Y-102405342D01*
X146539272Y-102411372D01*
X146539271Y-102411376D01*
X146532198Y-102446932D01*
X146532197Y-102446941D01*
X146531600Y-102449943D01*
X146531600Y-102453013D01*
X146531600Y-102678322D01*
X146517671Y-102717655D01*
X146482094Y-102739456D01*
X146440726Y-102734010D01*
X146387306Y-102706791D01*
X146382453Y-102706022D01*
X146382449Y-102706021D01*
X146264855Y-102687397D01*
X146260000Y-102686628D01*
X146255145Y-102687397D01*
X146137550Y-102706021D01*
X146137544Y-102706022D01*
X146132694Y-102706791D01*
X146128316Y-102709021D01*
X146128312Y-102709023D01*
X146022227Y-102763076D01*
X146022221Y-102763080D01*
X146017849Y-102765308D01*
X146014375Y-102768781D01*
X146014372Y-102768784D01*
X145930184Y-102852972D01*
X145930181Y-102852975D01*
X145926708Y-102856449D01*
X145924480Y-102860821D01*
X145924476Y-102860827D01*
X145870423Y-102966912D01*
X145870421Y-102966916D01*
X145868191Y-102971294D01*
X145867422Y-102976144D01*
X145867421Y-102976150D01*
X145849866Y-103086993D01*
X145848028Y-103098600D01*
X145848797Y-103103455D01*
X145867421Y-103221049D01*
X145867422Y-103221053D01*
X145868191Y-103225906D01*
X145870422Y-103230285D01*
X145870423Y-103230287D01*
X145924476Y-103336372D01*
X145924478Y-103336375D01*
X145926708Y-103340751D01*
X146017849Y-103431892D01*
X146022225Y-103434122D01*
X146022227Y-103434123D01*
X146062074Y-103454426D01*
X146132694Y-103490409D01*
X146260000Y-103510572D01*
X146387306Y-103490409D01*
X146440726Y-103463189D01*
X146482094Y-103457744D01*
X146517671Y-103479545D01*
X146531600Y-103518878D01*
X146531600Y-103746984D01*
X146531600Y-103746994D01*
X146531601Y-103750056D01*
X146532199Y-103753066D01*
X146532200Y-103753069D01*
X146537555Y-103779993D01*
X146540472Y-103794658D01*
X146543890Y-103799774D01*
X146543891Y-103799775D01*
X146570617Y-103839774D01*
X146574266Y-103845234D01*
X146579383Y-103848653D01*
X146579384Y-103848654D01*
X146591027Y-103856434D01*
X146615150Y-103887345D01*
X146616112Y-103926543D01*
X146593534Y-103958601D01*
X146556303Y-103970900D01*
X141950580Y-103970900D01*
X141917678Y-103961539D01*
X141894632Y-103936259D01*
X141809301Y-103764891D01*
X141809299Y-103764888D01*
X141808012Y-103762303D01*
X141798764Y-103750057D01*
X141701077Y-103620699D01*
X141685974Y-103600699D01*
X141586266Y-103509803D01*
X141538454Y-103466216D01*
X141538451Y-103466214D01*
X141536320Y-103464271D01*
X141533870Y-103462754D01*
X141533866Y-103462751D01*
X141366597Y-103359183D01*
X141366595Y-103359182D01*
X141364145Y-103357665D01*
X141361458Y-103356624D01*
X141361456Y-103356623D01*
X141178003Y-103285553D01*
X141178001Y-103285552D01*
X141175313Y-103284511D01*
X141172477Y-103283980D01*
X141172474Y-103283980D01*
X140979088Y-103247829D01*
X140979079Y-103247828D01*
X140976254Y-103247300D01*
X140773746Y-103247300D01*
X140770921Y-103247828D01*
X140770911Y-103247829D01*
X140577525Y-103283980D01*
X140577520Y-103283981D01*
X140574687Y-103284511D01*
X140572000Y-103285551D01*
X140571996Y-103285553D01*
X140388543Y-103356623D01*
X140388537Y-103356625D01*
X140385855Y-103357665D01*
X140383408Y-103359179D01*
X140383402Y-103359183D01*
X140216133Y-103462751D01*
X140216124Y-103462757D01*
X140213680Y-103464271D01*
X140211553Y-103466209D01*
X140211545Y-103466216D01*
X140066160Y-103598753D01*
X140066156Y-103598756D01*
X140064026Y-103600699D01*
X140062286Y-103603002D01*
X140062286Y-103603003D01*
X139943731Y-103759993D01*
X139943724Y-103760003D01*
X139941988Y-103762303D01*
X139940700Y-103764888D01*
X139940699Y-103764891D01*
X139853007Y-103941000D01*
X139853004Y-103941006D01*
X139851723Y-103943580D01*
X139850936Y-103946343D01*
X139850933Y-103946353D01*
X139835814Y-103999494D01*
X139809821Y-104034754D01*
X139767065Y-104044291D01*
X139728552Y-104023418D01*
X139713200Y-103982390D01*
X139713200Y-102157610D01*
X139728552Y-102116582D01*
X139767065Y-102095709D01*
X139809821Y-102105246D01*
X139835814Y-102140506D01*
X139850933Y-102193646D01*
X139850935Y-102193653D01*
X139851723Y-102196420D01*
X139853006Y-102198997D01*
X139853007Y-102198999D01*
X139869189Y-102231496D01*
X139941988Y-102377697D01*
X139943727Y-102380001D01*
X139943731Y-102380006D01*
X139998864Y-102453013D01*
X140064026Y-102539301D01*
X140127119Y-102596818D01*
X140164872Y-102631235D01*
X140213680Y-102675729D01*
X140216131Y-102677247D01*
X140216133Y-102677248D01*
X140242838Y-102693783D01*
X140385855Y-102782335D01*
X140574687Y-102855489D01*
X140773746Y-102892700D01*
X140973370Y-102892700D01*
X140976254Y-102892700D01*
X141175313Y-102855489D01*
X141364145Y-102782335D01*
X141536320Y-102675729D01*
X141685974Y-102539301D01*
X141808012Y-102377697D01*
X141898277Y-102196420D01*
X141953696Y-102001643D01*
X141972381Y-101800000D01*
X141953696Y-101598357D01*
X141898277Y-101403580D01*
X141808012Y-101222303D01*
X141804745Y-101217977D01*
X141743445Y-101136803D01*
X141685974Y-101060699D01*
X141576566Y-100960960D01*
X141538454Y-100926216D01*
X141538451Y-100926214D01*
X141536320Y-100924271D01*
X141533870Y-100922754D01*
X141533866Y-100922751D01*
X141366597Y-100819183D01*
X141366595Y-100819182D01*
X141364145Y-100817665D01*
X141361458Y-100816624D01*
X141361456Y-100816623D01*
X141178003Y-100745553D01*
X141178001Y-100745552D01*
X141175313Y-100744511D01*
X141172477Y-100743980D01*
X141172474Y-100743980D01*
X140979088Y-100707829D01*
X140979079Y-100707828D01*
X140976254Y-100707300D01*
X140773746Y-100707300D01*
X140770921Y-100707828D01*
X140770911Y-100707829D01*
X140577525Y-100743980D01*
X140577520Y-100743981D01*
X140574687Y-100744511D01*
X140572000Y-100745551D01*
X140571996Y-100745553D01*
X140388543Y-100816623D01*
X140388537Y-100816625D01*
X140385855Y-100817665D01*
X140383408Y-100819179D01*
X140383402Y-100819183D01*
X140216133Y-100922751D01*
X140216124Y-100922757D01*
X140213680Y-100924271D01*
X140211553Y-100926209D01*
X140211545Y-100926216D01*
X140066160Y-101058753D01*
X140066156Y-101058756D01*
X140064026Y-101060699D01*
X140062286Y-101063002D01*
X140062286Y-101063003D01*
X139943731Y-101219993D01*
X139943724Y-101220003D01*
X139941988Y-101222303D01*
X139940700Y-101224888D01*
X139940699Y-101224891D01*
X139853007Y-101401000D01*
X139853004Y-101401006D01*
X139851723Y-101403580D01*
X139850936Y-101406343D01*
X139850933Y-101406353D01*
X139835814Y-101459494D01*
X139809821Y-101494754D01*
X139767065Y-101504291D01*
X139728552Y-101483418D01*
X139713200Y-101442390D01*
X139713200Y-99617610D01*
X139728552Y-99576582D01*
X139767065Y-99555709D01*
X139809821Y-99565246D01*
X139835814Y-99600506D01*
X139850933Y-99653646D01*
X139850935Y-99653653D01*
X139851723Y-99656420D01*
X139853006Y-99658997D01*
X139853007Y-99658999D01*
X139896076Y-99745494D01*
X139941988Y-99837697D01*
X139943727Y-99840001D01*
X139943731Y-99840006D01*
X139972163Y-99877655D01*
X140064026Y-99999301D01*
X140147802Y-100075673D01*
X140194700Y-100118427D01*
X140213680Y-100135729D01*
X140385855Y-100242335D01*
X140574687Y-100315489D01*
X140773746Y-100352700D01*
X140973370Y-100352700D01*
X140976254Y-100352700D01*
X141175313Y-100315489D01*
X141364145Y-100242335D01*
X141536320Y-100135729D01*
X141685974Y-99999301D01*
X141808012Y-99837697D01*
X141898277Y-99656420D01*
X141953696Y-99461643D01*
X141972381Y-99260000D01*
X141953696Y-99058357D01*
X141898277Y-98863580D01*
X141808012Y-98682303D01*
X141685974Y-98520699D01*
X141594866Y-98437643D01*
X141538454Y-98386216D01*
X141538451Y-98386214D01*
X141536320Y-98384271D01*
X141533870Y-98382754D01*
X141533866Y-98382751D01*
X141366597Y-98279183D01*
X141366595Y-98279182D01*
X141364145Y-98277665D01*
X141361458Y-98276624D01*
X141361456Y-98276623D01*
X141178003Y-98205553D01*
X141178001Y-98205552D01*
X141175313Y-98204511D01*
X141172477Y-98203980D01*
X141172474Y-98203980D01*
X140979088Y-98167829D01*
X140979079Y-98167828D01*
X140976254Y-98167300D01*
X140773746Y-98167300D01*
X140770921Y-98167828D01*
X140770911Y-98167829D01*
X140577525Y-98203980D01*
X140577520Y-98203981D01*
X140574687Y-98204511D01*
X140572000Y-98205551D01*
X140571996Y-98205553D01*
X140388543Y-98276623D01*
X140388537Y-98276625D01*
X140385855Y-98277665D01*
X140383408Y-98279179D01*
X140383402Y-98279183D01*
X140216133Y-98382751D01*
X140216124Y-98382757D01*
X140213680Y-98384271D01*
X140211553Y-98386209D01*
X140211545Y-98386216D01*
X140066160Y-98518753D01*
X140066156Y-98518756D01*
X140064026Y-98520699D01*
X140062286Y-98523002D01*
X140062286Y-98523003D01*
X139943731Y-98679993D01*
X139943724Y-98680003D01*
X139941988Y-98682303D01*
X139940700Y-98684888D01*
X139940699Y-98684891D01*
X139853007Y-98861000D01*
X139853004Y-98861006D01*
X139851723Y-98863580D01*
X139850936Y-98866343D01*
X139850933Y-98866353D01*
X139835814Y-98919494D01*
X139809821Y-98954754D01*
X139767065Y-98964291D01*
X139728552Y-98943418D01*
X139713200Y-98902390D01*
X139713200Y-97077610D01*
X139728552Y-97036582D01*
X139767065Y-97015709D01*
X139809821Y-97025246D01*
X139835814Y-97060506D01*
X139850933Y-97113646D01*
X139850935Y-97113653D01*
X139851723Y-97116420D01*
X139853006Y-97118997D01*
X139853007Y-97118999D01*
X139893370Y-97200058D01*
X139941988Y-97297697D01*
X139943727Y-97300001D01*
X139943731Y-97300006D01*
X139992339Y-97364372D01*
X140064026Y-97459301D01*
X140213680Y-97595729D01*
X140216131Y-97597247D01*
X140216133Y-97597248D01*
X140245981Y-97615729D01*
X140385855Y-97702335D01*
X140574687Y-97775489D01*
X140773746Y-97812700D01*
X140973370Y-97812700D01*
X140976254Y-97812700D01*
X141175313Y-97775489D01*
X141364145Y-97702335D01*
X141536320Y-97595729D01*
X141685974Y-97459301D01*
X141808012Y-97297697D01*
X141898277Y-97116420D01*
X141953696Y-96921643D01*
X141972381Y-96720000D01*
X141953696Y-96518357D01*
X141898277Y-96323580D01*
X141808012Y-96142303D01*
X141803371Y-96136158D01*
X141759656Y-96078269D01*
X141685974Y-95980699D01*
X141591854Y-95894897D01*
X141538454Y-95846216D01*
X141538451Y-95846214D01*
X141536320Y-95844271D01*
X141533870Y-95842754D01*
X141533866Y-95842751D01*
X141366597Y-95739183D01*
X141366595Y-95739182D01*
X141364145Y-95737665D01*
X141361458Y-95736624D01*
X141361456Y-95736623D01*
X141178003Y-95665553D01*
X141178001Y-95665552D01*
X141175313Y-95664511D01*
X141172477Y-95663980D01*
X141172474Y-95663980D01*
X140979088Y-95627829D01*
X140979079Y-95627828D01*
X140976254Y-95627300D01*
X140773746Y-95627300D01*
X140770921Y-95627828D01*
X140770911Y-95627829D01*
X140577525Y-95663980D01*
X140577520Y-95663981D01*
X140574687Y-95664511D01*
X140572000Y-95665551D01*
X140571996Y-95665553D01*
X140388543Y-95736623D01*
X140388537Y-95736625D01*
X140385855Y-95737665D01*
X140383408Y-95739179D01*
X140383402Y-95739183D01*
X140216133Y-95842751D01*
X140216124Y-95842757D01*
X140213680Y-95844271D01*
X140211553Y-95846209D01*
X140211545Y-95846216D01*
X140066160Y-95978753D01*
X140066156Y-95978756D01*
X140064026Y-95980699D01*
X140062286Y-95983002D01*
X140062286Y-95983003D01*
X139943731Y-96139993D01*
X139943724Y-96140003D01*
X139941988Y-96142303D01*
X139940700Y-96144888D01*
X139940699Y-96144891D01*
X139853007Y-96321000D01*
X139853004Y-96321006D01*
X139851723Y-96323580D01*
X139850936Y-96326343D01*
X139850933Y-96326353D01*
X139835814Y-96379494D01*
X139809821Y-96414754D01*
X139767065Y-96424291D01*
X139728552Y-96403418D01*
X139713200Y-96362390D01*
X139713200Y-94537610D01*
X139728552Y-94496582D01*
X139767065Y-94475709D01*
X139809821Y-94485246D01*
X139835814Y-94520506D01*
X139850933Y-94573646D01*
X139850935Y-94573653D01*
X139851723Y-94576420D01*
X139853006Y-94578997D01*
X139853007Y-94578999D01*
X139861682Y-94596420D01*
X139941988Y-94757697D01*
X139943727Y-94760001D01*
X139943731Y-94760006D01*
X139955136Y-94775108D01*
X140064026Y-94919301D01*
X140147802Y-94995673D01*
X140204951Y-95047772D01*
X140213680Y-95055729D01*
X140385855Y-95162335D01*
X140574687Y-95235489D01*
X140773746Y-95272700D01*
X140973370Y-95272700D01*
X140976254Y-95272700D01*
X141175313Y-95235489D01*
X141364145Y-95162335D01*
X141536320Y-95055729D01*
X141685974Y-94919301D01*
X141808012Y-94757697D01*
X141898277Y-94576420D01*
X141953696Y-94381643D01*
X141972381Y-94180000D01*
X141953696Y-93978357D01*
X141898277Y-93783580D01*
X141808012Y-93602303D01*
X141685974Y-93440699D01*
X141571238Y-93336103D01*
X141538454Y-93306216D01*
X141538451Y-93306214D01*
X141536320Y-93304271D01*
X141533870Y-93302754D01*
X141533866Y-93302751D01*
X141366597Y-93199183D01*
X141366595Y-93199182D01*
X141364145Y-93197665D01*
X141361458Y-93196624D01*
X141361456Y-93196623D01*
X141178003Y-93125553D01*
X141178001Y-93125552D01*
X141175313Y-93124511D01*
X141172477Y-93123980D01*
X141172474Y-93123980D01*
X140979088Y-93087829D01*
X140979079Y-93087828D01*
X140976254Y-93087300D01*
X140773746Y-93087300D01*
X140770921Y-93087828D01*
X140770911Y-93087829D01*
X140577525Y-93123980D01*
X140577520Y-93123981D01*
X140574687Y-93124511D01*
X140572000Y-93125551D01*
X140571996Y-93125553D01*
X140388543Y-93196623D01*
X140388537Y-93196625D01*
X140385855Y-93197665D01*
X140383408Y-93199179D01*
X140383402Y-93199183D01*
X140216133Y-93302751D01*
X140216124Y-93302757D01*
X140213680Y-93304271D01*
X140211553Y-93306209D01*
X140211545Y-93306216D01*
X140066160Y-93438753D01*
X140066156Y-93438756D01*
X140064026Y-93440699D01*
X140062286Y-93443002D01*
X140062286Y-93443003D01*
X139943731Y-93599993D01*
X139943724Y-93600003D01*
X139941988Y-93602303D01*
X139940700Y-93604888D01*
X139940699Y-93604891D01*
X139853007Y-93781000D01*
X139853004Y-93781006D01*
X139851723Y-93783580D01*
X139850936Y-93786343D01*
X139850933Y-93786353D01*
X139835814Y-93839494D01*
X139809821Y-93874754D01*
X139767065Y-93884291D01*
X139728552Y-93863418D01*
X139713200Y-93822390D01*
X139713200Y-91997610D01*
X139728552Y-91956582D01*
X139767065Y-91935709D01*
X139809821Y-91945246D01*
X139835814Y-91980506D01*
X139850933Y-92033646D01*
X139850935Y-92033653D01*
X139851723Y-92036420D01*
X139853006Y-92038997D01*
X139853007Y-92038999D01*
X139861682Y-92056420D01*
X139941988Y-92217697D01*
X139943727Y-92220001D01*
X139943731Y-92220006D01*
X139955136Y-92235108D01*
X140064026Y-92379301D01*
X140122595Y-92432694D01*
X140184132Y-92488793D01*
X140213680Y-92515729D01*
X140385855Y-92622335D01*
X140574687Y-92695489D01*
X140773746Y-92732700D01*
X140973370Y-92732700D01*
X140976254Y-92732700D01*
X141175313Y-92695489D01*
X141364145Y-92622335D01*
X141536320Y-92515729D01*
X141685974Y-92379301D01*
X141808012Y-92217697D01*
X141898277Y-92036420D01*
X141953696Y-91841643D01*
X141972381Y-91640000D01*
X141953696Y-91438357D01*
X141898277Y-91243580D01*
X141808012Y-91062303D01*
X141804948Y-91058246D01*
X141746112Y-90980335D01*
X141685974Y-90900699D01*
X141620096Y-90840643D01*
X141538454Y-90766216D01*
X141538451Y-90766214D01*
X141536320Y-90764271D01*
X141533870Y-90762754D01*
X141533866Y-90762751D01*
X141366597Y-90659183D01*
X141366595Y-90659182D01*
X141364145Y-90657665D01*
X141361458Y-90656624D01*
X141361456Y-90656623D01*
X141178003Y-90585553D01*
X141178001Y-90585552D01*
X141175313Y-90584511D01*
X141172477Y-90583980D01*
X141172474Y-90583980D01*
X140979088Y-90547829D01*
X140979079Y-90547828D01*
X140976254Y-90547300D01*
X140773746Y-90547300D01*
X140770921Y-90547828D01*
X140770911Y-90547829D01*
X140577525Y-90583980D01*
X140577520Y-90583981D01*
X140574687Y-90584511D01*
X140572000Y-90585551D01*
X140571996Y-90585553D01*
X140388543Y-90656623D01*
X140388537Y-90656625D01*
X140385855Y-90657665D01*
X140383408Y-90659179D01*
X140383402Y-90659183D01*
X140216133Y-90762751D01*
X140216124Y-90762757D01*
X140213680Y-90764271D01*
X140211553Y-90766209D01*
X140211545Y-90766216D01*
X140066160Y-90898753D01*
X140066156Y-90898756D01*
X140064026Y-90900699D01*
X140062286Y-90903002D01*
X140062286Y-90903003D01*
X139943731Y-91059993D01*
X139943724Y-91060003D01*
X139941988Y-91062303D01*
X139940700Y-91064888D01*
X139940699Y-91064891D01*
X139853007Y-91241000D01*
X139853004Y-91241006D01*
X139851723Y-91243580D01*
X139850936Y-91246343D01*
X139850933Y-91246353D01*
X139835814Y-91299494D01*
X139809821Y-91334754D01*
X139767065Y-91344291D01*
X139728552Y-91323418D01*
X139713200Y-91282390D01*
X139713200Y-89457610D01*
X139728552Y-89416582D01*
X139767065Y-89395709D01*
X139809821Y-89405246D01*
X139835814Y-89440506D01*
X139850933Y-89493646D01*
X139850935Y-89493653D01*
X139851723Y-89496420D01*
X139853006Y-89498997D01*
X139853007Y-89498999D01*
X139861682Y-89516420D01*
X139941988Y-89677697D01*
X139943727Y-89680001D01*
X139943731Y-89680006D01*
X139988383Y-89739134D01*
X140064026Y-89839301D01*
X140213680Y-89975729D01*
X140385855Y-90082335D01*
X140574687Y-90155489D01*
X140773746Y-90192700D01*
X140973370Y-90192700D01*
X140976254Y-90192700D01*
X141175313Y-90155489D01*
X141364145Y-90082335D01*
X141536320Y-89975729D01*
X141685974Y-89839301D01*
X141808012Y-89677697D01*
X141898277Y-89496420D01*
X141953696Y-89301643D01*
X141972381Y-89100000D01*
X141953696Y-88898357D01*
X141898277Y-88703580D01*
X141808012Y-88522303D01*
X141685974Y-88360699D01*
X141620096Y-88300643D01*
X141538454Y-88226216D01*
X141538451Y-88226214D01*
X141536320Y-88224271D01*
X141533870Y-88222754D01*
X141533866Y-88222751D01*
X141366597Y-88119183D01*
X141366595Y-88119182D01*
X141364145Y-88117665D01*
X141361458Y-88116624D01*
X141361456Y-88116623D01*
X141178003Y-88045553D01*
X141178001Y-88045552D01*
X141175313Y-88044511D01*
X141172477Y-88043980D01*
X141172474Y-88043980D01*
X140979088Y-88007829D01*
X140979079Y-88007828D01*
X140976254Y-88007300D01*
X140773746Y-88007300D01*
X140770921Y-88007828D01*
X140770911Y-88007829D01*
X140577525Y-88043980D01*
X140577520Y-88043981D01*
X140574687Y-88044511D01*
X140572000Y-88045551D01*
X140571996Y-88045553D01*
X140388543Y-88116623D01*
X140388537Y-88116625D01*
X140385855Y-88117665D01*
X140383408Y-88119179D01*
X140383402Y-88119183D01*
X140216133Y-88222751D01*
X140216124Y-88222757D01*
X140213680Y-88224271D01*
X140211553Y-88226209D01*
X140211545Y-88226216D01*
X140066160Y-88358753D01*
X140066156Y-88358756D01*
X140064026Y-88360699D01*
X140062286Y-88363002D01*
X140062286Y-88363003D01*
X139943731Y-88519993D01*
X139943724Y-88520003D01*
X139941988Y-88522303D01*
X139940700Y-88524888D01*
X139940699Y-88524891D01*
X139853007Y-88701000D01*
X139853004Y-88701006D01*
X139851723Y-88703580D01*
X139850936Y-88706343D01*
X139850933Y-88706353D01*
X139835814Y-88759494D01*
X139809821Y-88794754D01*
X139767065Y-88804291D01*
X139728552Y-88783418D01*
X139713200Y-88742390D01*
X139713200Y-86917610D01*
X139728552Y-86876582D01*
X139767065Y-86855709D01*
X139809821Y-86865246D01*
X139835814Y-86900506D01*
X139850933Y-86953646D01*
X139850935Y-86953653D01*
X139851723Y-86956420D01*
X139853006Y-86958997D01*
X139853007Y-86958999D01*
X139861682Y-86976420D01*
X139941988Y-87137697D01*
X139943727Y-87140001D01*
X139943731Y-87140006D01*
X139955136Y-87155108D01*
X140064026Y-87299301D01*
X140213680Y-87435729D01*
X140385855Y-87542335D01*
X140574687Y-87615489D01*
X140773746Y-87652700D01*
X140973370Y-87652700D01*
X140976254Y-87652700D01*
X141175313Y-87615489D01*
X141364145Y-87542335D01*
X141536320Y-87435729D01*
X141685974Y-87299301D01*
X141808012Y-87137697D01*
X141898277Y-86956420D01*
X141953696Y-86761643D01*
X141972381Y-86560000D01*
X141953696Y-86358357D01*
X141898277Y-86163580D01*
X141808012Y-85982303D01*
X141685974Y-85820699D01*
X141620096Y-85760643D01*
X141538454Y-85686216D01*
X141538451Y-85686214D01*
X141536320Y-85684271D01*
X141533870Y-85682754D01*
X141533866Y-85682751D01*
X141366597Y-85579183D01*
X141366595Y-85579182D01*
X141364145Y-85577665D01*
X141361458Y-85576624D01*
X141361456Y-85576623D01*
X141178003Y-85505553D01*
X141178001Y-85505552D01*
X141175313Y-85504511D01*
X141172477Y-85503980D01*
X141172474Y-85503980D01*
X140979088Y-85467829D01*
X140979079Y-85467828D01*
X140976254Y-85467300D01*
X140773746Y-85467300D01*
X140770921Y-85467828D01*
X140770911Y-85467829D01*
X140577525Y-85503980D01*
X140577520Y-85503981D01*
X140574687Y-85504511D01*
X140572000Y-85505551D01*
X140571996Y-85505553D01*
X140388543Y-85576623D01*
X140388537Y-85576625D01*
X140385855Y-85577665D01*
X140383408Y-85579179D01*
X140383402Y-85579183D01*
X140216133Y-85682751D01*
X140216124Y-85682757D01*
X140213680Y-85684271D01*
X140211553Y-85686209D01*
X140211545Y-85686216D01*
X140066160Y-85818753D01*
X140066156Y-85818756D01*
X140064026Y-85820699D01*
X140062286Y-85823002D01*
X140062286Y-85823003D01*
X139943731Y-85979993D01*
X139943724Y-85980003D01*
X139941988Y-85982303D01*
X139940700Y-85984888D01*
X139940699Y-85984891D01*
X139853007Y-86161000D01*
X139853004Y-86161006D01*
X139851723Y-86163580D01*
X139850936Y-86166343D01*
X139850933Y-86166353D01*
X139835814Y-86219494D01*
X139809821Y-86254754D01*
X139767065Y-86264291D01*
X139728552Y-86243418D01*
X139713200Y-86202390D01*
X139713200Y-84111100D01*
X139731506Y-84066906D01*
X139775700Y-84048600D01*
X157226500Y-84048600D01*
X157270694Y-84066906D01*
G37*
G04 #@! TD.AperFunction*
G04 #@! TD*
M02*
